G75*
%MOIN*%
%OFA0B0*%
%FSLAX25Y25*%
%IPPOS*%
%LPD*%
%AMOC8*
5,1,8,0,0,1.08239X$1,22.5*
%
%ADD10R,0.07874X0.04724*%
%ADD11R,0.05315X0.02362*%
%ADD12R,0.04331X0.03937*%
%ADD13C,0.01181*%
%ADD14R,0.02165X0.01378*%
%ADD15R,0.01969X0.05512*%
D10*
X0038873Y0067726D03*
X0038873Y0089774D03*
X0127810Y0089774D03*
X0140873Y0089774D03*
X0140873Y0067726D03*
X0127810Y0067726D03*
X0229810Y0067726D03*
X0242873Y0067726D03*
X0242873Y0089774D03*
X0229810Y0089774D03*
X0229810Y0169726D03*
X0242873Y0169726D03*
X0242873Y0191774D03*
X0229810Y0191774D03*
X0229810Y0271726D03*
X0242873Y0271726D03*
X0242873Y0293774D03*
X0229810Y0293774D03*
X0229810Y0373726D03*
X0242873Y0373726D03*
X0242873Y0395774D03*
X0229810Y0395774D03*
X0229810Y0475726D03*
X0242873Y0475726D03*
X0242873Y0497774D03*
X0229810Y0497774D03*
X0140873Y0497774D03*
X0127810Y0497774D03*
X0127810Y0475726D03*
X0140873Y0475726D03*
X0140873Y0395774D03*
X0127810Y0395774D03*
X0127810Y0373726D03*
X0140873Y0373726D03*
X0140873Y0293774D03*
X0127810Y0293774D03*
X0127810Y0271726D03*
X0140873Y0271726D03*
X0140873Y0191774D03*
X0127810Y0191774D03*
X0127810Y0169726D03*
X0140873Y0169726D03*
X0038873Y0169726D03*
X0038873Y0191774D03*
X0038873Y0271726D03*
X0038873Y0293774D03*
X0038873Y0373726D03*
X0038873Y0395774D03*
X0038873Y0475726D03*
X0038873Y0497774D03*
X0331810Y0497774D03*
X0344873Y0497774D03*
X0344873Y0475726D03*
X0331810Y0475726D03*
X0331810Y0395774D03*
X0344873Y0395774D03*
X0344873Y0373726D03*
X0331810Y0373726D03*
X0331810Y0293774D03*
X0344873Y0293774D03*
X0344873Y0271726D03*
X0331810Y0271726D03*
X0331810Y0191774D03*
X0344873Y0191774D03*
X0344873Y0169726D03*
X0331810Y0169726D03*
X0331810Y0089774D03*
X0344873Y0089774D03*
X0344873Y0067726D03*
X0331810Y0067726D03*
X0433810Y0067726D03*
X0446873Y0067726D03*
X0446873Y0089774D03*
X0433810Y0089774D03*
X0433810Y0169726D03*
X0446873Y0169726D03*
X0446873Y0191774D03*
X0433810Y0191774D03*
X0433810Y0271726D03*
X0446873Y0271726D03*
X0446873Y0293774D03*
X0433810Y0293774D03*
X0433810Y0373726D03*
X0446873Y0373726D03*
X0446873Y0395774D03*
X0433810Y0395774D03*
X0433810Y0475726D03*
X0446873Y0475726D03*
X0446873Y0497774D03*
X0433810Y0497774D03*
X0535810Y0497774D03*
X0535810Y0475726D03*
X0535810Y0395774D03*
X0535810Y0373726D03*
X0535810Y0293774D03*
X0535810Y0271726D03*
X0535810Y0191774D03*
X0535810Y0169726D03*
X0535810Y0089774D03*
X0535810Y0067726D03*
D11*
X0521342Y0072844D03*
X0521342Y0076781D03*
X0521342Y0080719D03*
X0521342Y0084656D03*
X0461342Y0084656D03*
X0461342Y0080719D03*
X0461342Y0076781D03*
X0461342Y0072844D03*
X0419342Y0072844D03*
X0419342Y0076781D03*
X0419342Y0080719D03*
X0419342Y0084656D03*
X0359342Y0084656D03*
X0359342Y0080719D03*
X0359342Y0076781D03*
X0359342Y0072844D03*
X0317342Y0072844D03*
X0317342Y0076781D03*
X0317342Y0080719D03*
X0317342Y0084656D03*
X0257342Y0084656D03*
X0257342Y0080719D03*
X0257342Y0076781D03*
X0257342Y0072844D03*
X0215342Y0072844D03*
X0215342Y0076781D03*
X0215342Y0080719D03*
X0215342Y0084656D03*
X0155342Y0084656D03*
X0155342Y0080719D03*
X0155342Y0076781D03*
X0155342Y0072844D03*
X0113342Y0072844D03*
X0113342Y0076781D03*
X0113342Y0080719D03*
X0113342Y0084656D03*
X0053342Y0084656D03*
X0053342Y0080719D03*
X0053342Y0076781D03*
X0053342Y0072844D03*
X0053342Y0174844D03*
X0053342Y0178781D03*
X0053342Y0182719D03*
X0053342Y0186656D03*
X0113342Y0186656D03*
X0113342Y0182719D03*
X0113342Y0178781D03*
X0113342Y0174844D03*
X0155342Y0174844D03*
X0155342Y0178781D03*
X0155342Y0182719D03*
X0155342Y0186656D03*
X0215342Y0186656D03*
X0215342Y0182719D03*
X0215342Y0178781D03*
X0215342Y0174844D03*
X0257342Y0174844D03*
X0257342Y0178781D03*
X0257342Y0182719D03*
X0257342Y0186656D03*
X0317342Y0186656D03*
X0317342Y0182719D03*
X0317342Y0178781D03*
X0317342Y0174844D03*
X0359342Y0174844D03*
X0359342Y0178781D03*
X0359342Y0182719D03*
X0359342Y0186656D03*
X0419342Y0186656D03*
X0419342Y0182719D03*
X0419342Y0178781D03*
X0419342Y0174844D03*
X0461342Y0174844D03*
X0461342Y0178781D03*
X0461342Y0182719D03*
X0461342Y0186656D03*
X0521342Y0186656D03*
X0521342Y0182719D03*
X0521342Y0178781D03*
X0521342Y0174844D03*
X0521342Y0276844D03*
X0521342Y0280781D03*
X0521342Y0284719D03*
X0521342Y0288656D03*
X0461342Y0288656D03*
X0461342Y0284719D03*
X0461342Y0280781D03*
X0461342Y0276844D03*
X0419342Y0276844D03*
X0419342Y0280781D03*
X0419342Y0284719D03*
X0419342Y0288656D03*
X0359342Y0288656D03*
X0359342Y0284719D03*
X0359342Y0280781D03*
X0359342Y0276844D03*
X0317342Y0276844D03*
X0317342Y0280781D03*
X0317342Y0284719D03*
X0317342Y0288656D03*
X0257342Y0288656D03*
X0257342Y0284719D03*
X0257342Y0280781D03*
X0257342Y0276844D03*
X0215342Y0276844D03*
X0215342Y0280781D03*
X0215342Y0284719D03*
X0215342Y0288656D03*
X0155342Y0288656D03*
X0155342Y0284719D03*
X0155342Y0280781D03*
X0155342Y0276844D03*
X0113342Y0276844D03*
X0113342Y0280781D03*
X0113342Y0284719D03*
X0113342Y0288656D03*
X0053342Y0288656D03*
X0053342Y0284719D03*
X0053342Y0280781D03*
X0053342Y0276844D03*
X0053342Y0378844D03*
X0053342Y0382781D03*
X0053342Y0386719D03*
X0053342Y0390656D03*
X0113342Y0390656D03*
X0113342Y0386719D03*
X0113342Y0382781D03*
X0113342Y0378844D03*
X0155342Y0378844D03*
X0155342Y0382781D03*
X0155342Y0386719D03*
X0155342Y0390656D03*
X0215342Y0390656D03*
X0215342Y0386719D03*
X0215342Y0382781D03*
X0215342Y0378844D03*
X0257342Y0378844D03*
X0257342Y0382781D03*
X0257342Y0386719D03*
X0257342Y0390656D03*
X0317342Y0390656D03*
X0317342Y0386719D03*
X0317342Y0382781D03*
X0317342Y0378844D03*
X0359342Y0378844D03*
X0359342Y0382781D03*
X0359342Y0386719D03*
X0359342Y0390656D03*
X0419342Y0390656D03*
X0419342Y0386719D03*
X0419342Y0382781D03*
X0419342Y0378844D03*
X0461342Y0378844D03*
X0461342Y0382781D03*
X0461342Y0386719D03*
X0461342Y0390656D03*
X0521342Y0390656D03*
X0521342Y0386719D03*
X0521342Y0382781D03*
X0521342Y0378844D03*
X0521342Y0480844D03*
X0521342Y0484781D03*
X0521342Y0488719D03*
X0521342Y0492656D03*
X0461342Y0492656D03*
X0461342Y0488719D03*
X0461342Y0484781D03*
X0461342Y0480844D03*
X0419342Y0480844D03*
X0419342Y0484781D03*
X0419342Y0488719D03*
X0419342Y0492656D03*
X0359342Y0492656D03*
X0359342Y0488719D03*
X0359342Y0484781D03*
X0359342Y0480844D03*
X0317342Y0480844D03*
X0317342Y0484781D03*
X0317342Y0488719D03*
X0317342Y0492656D03*
X0257342Y0492656D03*
X0257342Y0488719D03*
X0257342Y0484781D03*
X0257342Y0480844D03*
X0215342Y0480844D03*
X0215342Y0484781D03*
X0215342Y0488719D03*
X0215342Y0492656D03*
X0155342Y0492656D03*
X0155342Y0488719D03*
X0155342Y0484781D03*
X0155342Y0480844D03*
X0113342Y0480844D03*
X0113342Y0484781D03*
X0113342Y0488719D03*
X0113342Y0492656D03*
X0053342Y0492656D03*
X0053342Y0488719D03*
X0053342Y0484781D03*
X0053342Y0480844D03*
D12*
X0042495Y0047250D03*
X0049188Y0047250D03*
X0080495Y0084750D03*
X0087188Y0084750D03*
X0087188Y0096750D03*
X0080495Y0096750D03*
X0080495Y0103750D03*
X0087188Y0103750D03*
X0049188Y0149250D03*
X0042495Y0149250D03*
X0080495Y0186750D03*
X0087188Y0186750D03*
X0087188Y0198750D03*
X0080495Y0198750D03*
X0080495Y0205750D03*
X0087188Y0205750D03*
X0049188Y0251250D03*
X0042495Y0251250D03*
X0080495Y0288750D03*
X0087188Y0288750D03*
X0087188Y0300750D03*
X0080495Y0300750D03*
X0080495Y0307750D03*
X0087188Y0307750D03*
X0049188Y0353250D03*
X0042495Y0353250D03*
X0080495Y0390750D03*
X0087188Y0390750D03*
X0087188Y0402750D03*
X0080495Y0402750D03*
X0080495Y0409750D03*
X0087188Y0409750D03*
X0049188Y0455250D03*
X0042495Y0455250D03*
X0080495Y0492750D03*
X0087188Y0492750D03*
X0087188Y0504750D03*
X0080495Y0504750D03*
X0080495Y0511750D03*
X0087188Y0511750D03*
X0144495Y0455250D03*
X0151188Y0455250D03*
X0182495Y0492750D03*
X0189188Y0492750D03*
X0189188Y0504750D03*
X0182495Y0504750D03*
X0182495Y0511750D03*
X0189188Y0511750D03*
X0246495Y0455250D03*
X0253188Y0455250D03*
X0284495Y0492750D03*
X0291188Y0492750D03*
X0291188Y0504750D03*
X0284495Y0504750D03*
X0284495Y0511750D03*
X0291188Y0511750D03*
X0348495Y0455250D03*
X0355188Y0455250D03*
X0386495Y0492750D03*
X0393188Y0492750D03*
X0393188Y0504750D03*
X0393188Y0511750D03*
X0386495Y0511750D03*
X0386495Y0504750D03*
X0450495Y0455250D03*
X0457188Y0455250D03*
X0488495Y0492750D03*
X0495188Y0492750D03*
X0495188Y0504750D03*
X0488495Y0504750D03*
X0488495Y0511750D03*
X0495188Y0511750D03*
X0495188Y0409750D03*
X0488495Y0409750D03*
X0488495Y0402750D03*
X0495188Y0402750D03*
X0495188Y0390750D03*
X0488495Y0390750D03*
X0457188Y0353250D03*
X0450495Y0353250D03*
X0488495Y0307750D03*
X0495188Y0307750D03*
X0495188Y0300750D03*
X0488495Y0300750D03*
X0488495Y0288750D03*
X0495188Y0288750D03*
X0457188Y0251250D03*
X0450495Y0251250D03*
X0488495Y0205750D03*
X0495188Y0205750D03*
X0495188Y0198750D03*
X0488495Y0198750D03*
X0488495Y0186750D03*
X0495188Y0186750D03*
X0457188Y0149250D03*
X0450495Y0149250D03*
X0488495Y0103750D03*
X0495188Y0103750D03*
X0495188Y0096750D03*
X0488495Y0096750D03*
X0488495Y0084750D03*
X0495188Y0084750D03*
X0457188Y0047250D03*
X0450495Y0047250D03*
X0393188Y0084750D03*
X0393188Y0096750D03*
X0386495Y0096750D03*
X0386495Y0084750D03*
X0386495Y0103750D03*
X0393188Y0103750D03*
X0355188Y0149250D03*
X0348495Y0149250D03*
X0386495Y0186750D03*
X0393188Y0186750D03*
X0393188Y0198750D03*
X0393188Y0205750D03*
X0386495Y0205750D03*
X0386495Y0198750D03*
X0355188Y0251250D03*
X0348495Y0251250D03*
X0386495Y0288750D03*
X0393188Y0288750D03*
X0393188Y0300750D03*
X0393188Y0307750D03*
X0386495Y0307750D03*
X0386495Y0300750D03*
X0355188Y0353250D03*
X0348495Y0353250D03*
X0386495Y0390750D03*
X0393188Y0390750D03*
X0393188Y0402750D03*
X0393188Y0409750D03*
X0386495Y0409750D03*
X0386495Y0402750D03*
X0291188Y0402750D03*
X0284495Y0402750D03*
X0284495Y0409750D03*
X0291188Y0409750D03*
X0291188Y0390750D03*
X0284495Y0390750D03*
X0253188Y0353250D03*
X0246495Y0353250D03*
X0284495Y0307750D03*
X0291188Y0307750D03*
X0291188Y0300750D03*
X0284495Y0300750D03*
X0284495Y0288750D03*
X0291188Y0288750D03*
X0253188Y0251250D03*
X0246495Y0251250D03*
X0284495Y0205750D03*
X0291188Y0205750D03*
X0291188Y0198750D03*
X0284495Y0198750D03*
X0284495Y0186750D03*
X0291188Y0186750D03*
X0253188Y0149250D03*
X0246495Y0149250D03*
X0284495Y0103750D03*
X0291188Y0103750D03*
X0291188Y0096750D03*
X0284495Y0096750D03*
X0284495Y0084750D03*
X0291188Y0084750D03*
X0253188Y0047250D03*
X0246495Y0047250D03*
X0189188Y0084750D03*
X0182495Y0084750D03*
X0182495Y0096750D03*
X0189188Y0096750D03*
X0189188Y0103750D03*
X0182495Y0103750D03*
X0151188Y0149250D03*
X0144495Y0149250D03*
X0182495Y0186750D03*
X0189188Y0186750D03*
X0189188Y0198750D03*
X0182495Y0198750D03*
X0182495Y0205750D03*
X0189188Y0205750D03*
X0151188Y0251250D03*
X0144495Y0251250D03*
X0182495Y0288750D03*
X0189188Y0288750D03*
X0189188Y0300750D03*
X0182495Y0300750D03*
X0182495Y0307750D03*
X0189188Y0307750D03*
X0151188Y0353250D03*
X0144495Y0353250D03*
X0182495Y0390750D03*
X0189188Y0390750D03*
X0189188Y0402750D03*
X0182495Y0402750D03*
X0182495Y0409750D03*
X0189188Y0409750D03*
X0151188Y0047250D03*
X0144495Y0047250D03*
X0348495Y0047250D03*
X0355188Y0047250D03*
D13*
X0353917Y0051372D02*
X0353917Y0054128D01*
X0356673Y0054128D01*
X0356673Y0051372D01*
X0353917Y0051372D01*
X0353917Y0052494D02*
X0356673Y0052494D01*
X0356673Y0053616D02*
X0353917Y0053616D01*
X0347011Y0054128D02*
X0347011Y0051372D01*
X0347011Y0054128D02*
X0349767Y0054128D01*
X0349767Y0051372D01*
X0347011Y0051372D01*
X0347011Y0052494D02*
X0349767Y0052494D01*
X0349767Y0053616D02*
X0347011Y0053616D01*
X0251917Y0054128D02*
X0251917Y0051372D01*
X0251917Y0054128D02*
X0254673Y0054128D01*
X0254673Y0051372D01*
X0251917Y0051372D01*
X0251917Y0052494D02*
X0254673Y0052494D01*
X0254673Y0053616D02*
X0251917Y0053616D01*
X0245011Y0054128D02*
X0245011Y0051372D01*
X0245011Y0054128D02*
X0247767Y0054128D01*
X0247767Y0051372D01*
X0245011Y0051372D01*
X0245011Y0052494D02*
X0247767Y0052494D01*
X0247767Y0053616D02*
X0245011Y0053616D01*
X0149917Y0054128D02*
X0149917Y0051372D01*
X0149917Y0054128D02*
X0152673Y0054128D01*
X0152673Y0051372D01*
X0149917Y0051372D01*
X0149917Y0052494D02*
X0152673Y0052494D01*
X0152673Y0053616D02*
X0149917Y0053616D01*
X0143011Y0054128D02*
X0143011Y0051372D01*
X0143011Y0054128D02*
X0145767Y0054128D01*
X0145767Y0051372D01*
X0143011Y0051372D01*
X0143011Y0052494D02*
X0145767Y0052494D01*
X0145767Y0053616D02*
X0143011Y0053616D01*
X0047917Y0054128D02*
X0047917Y0051372D01*
X0047917Y0054128D02*
X0050673Y0054128D01*
X0050673Y0051372D01*
X0047917Y0051372D01*
X0047917Y0052494D02*
X0050673Y0052494D01*
X0050673Y0053616D02*
X0047917Y0053616D01*
X0041011Y0054128D02*
X0041011Y0051372D01*
X0041011Y0054128D02*
X0043767Y0054128D01*
X0043767Y0051372D01*
X0041011Y0051372D01*
X0041011Y0052494D02*
X0043767Y0052494D01*
X0043767Y0053616D02*
X0041011Y0053616D01*
X0041011Y0153372D02*
X0041011Y0156128D01*
X0043767Y0156128D01*
X0043767Y0153372D01*
X0041011Y0153372D01*
X0041011Y0154494D02*
X0043767Y0154494D01*
X0043767Y0155616D02*
X0041011Y0155616D01*
X0047917Y0156128D02*
X0047917Y0153372D01*
X0047917Y0156128D02*
X0050673Y0156128D01*
X0050673Y0153372D01*
X0047917Y0153372D01*
X0047917Y0154494D02*
X0050673Y0154494D01*
X0050673Y0155616D02*
X0047917Y0155616D01*
X0143011Y0156128D02*
X0143011Y0153372D01*
X0143011Y0156128D02*
X0145767Y0156128D01*
X0145767Y0153372D01*
X0143011Y0153372D01*
X0143011Y0154494D02*
X0145767Y0154494D01*
X0145767Y0155616D02*
X0143011Y0155616D01*
X0149917Y0156128D02*
X0149917Y0153372D01*
X0149917Y0156128D02*
X0152673Y0156128D01*
X0152673Y0153372D01*
X0149917Y0153372D01*
X0149917Y0154494D02*
X0152673Y0154494D01*
X0152673Y0155616D02*
X0149917Y0155616D01*
X0245011Y0156128D02*
X0245011Y0153372D01*
X0245011Y0156128D02*
X0247767Y0156128D01*
X0247767Y0153372D01*
X0245011Y0153372D01*
X0245011Y0154494D02*
X0247767Y0154494D01*
X0247767Y0155616D02*
X0245011Y0155616D01*
X0251917Y0156128D02*
X0251917Y0153372D01*
X0251917Y0156128D02*
X0254673Y0156128D01*
X0254673Y0153372D01*
X0251917Y0153372D01*
X0251917Y0154494D02*
X0254673Y0154494D01*
X0254673Y0155616D02*
X0251917Y0155616D01*
X0347011Y0156128D02*
X0347011Y0153372D01*
X0347011Y0156128D02*
X0349767Y0156128D01*
X0349767Y0153372D01*
X0347011Y0153372D01*
X0347011Y0154494D02*
X0349767Y0154494D01*
X0349767Y0155616D02*
X0347011Y0155616D01*
X0353917Y0156128D02*
X0353917Y0153372D01*
X0353917Y0156128D02*
X0356673Y0156128D01*
X0356673Y0153372D01*
X0353917Y0153372D01*
X0353917Y0154494D02*
X0356673Y0154494D01*
X0356673Y0155616D02*
X0353917Y0155616D01*
X0449011Y0156128D02*
X0449011Y0153372D01*
X0449011Y0156128D02*
X0451767Y0156128D01*
X0451767Y0153372D01*
X0449011Y0153372D01*
X0449011Y0154494D02*
X0451767Y0154494D01*
X0451767Y0155616D02*
X0449011Y0155616D01*
X0455917Y0156128D02*
X0455917Y0153372D01*
X0455917Y0156128D02*
X0458673Y0156128D01*
X0458673Y0153372D01*
X0455917Y0153372D01*
X0455917Y0154494D02*
X0458673Y0154494D01*
X0458673Y0155616D02*
X0455917Y0155616D01*
X0455917Y0255372D02*
X0455917Y0258128D01*
X0458673Y0258128D01*
X0458673Y0255372D01*
X0455917Y0255372D01*
X0455917Y0256494D02*
X0458673Y0256494D01*
X0458673Y0257616D02*
X0455917Y0257616D01*
X0449011Y0258128D02*
X0449011Y0255372D01*
X0449011Y0258128D02*
X0451767Y0258128D01*
X0451767Y0255372D01*
X0449011Y0255372D01*
X0449011Y0256494D02*
X0451767Y0256494D01*
X0451767Y0257616D02*
X0449011Y0257616D01*
X0353917Y0258128D02*
X0353917Y0255372D01*
X0353917Y0258128D02*
X0356673Y0258128D01*
X0356673Y0255372D01*
X0353917Y0255372D01*
X0353917Y0256494D02*
X0356673Y0256494D01*
X0356673Y0257616D02*
X0353917Y0257616D01*
X0347011Y0258128D02*
X0347011Y0255372D01*
X0347011Y0258128D02*
X0349767Y0258128D01*
X0349767Y0255372D01*
X0347011Y0255372D01*
X0347011Y0256494D02*
X0349767Y0256494D01*
X0349767Y0257616D02*
X0347011Y0257616D01*
X0251917Y0258128D02*
X0251917Y0255372D01*
X0251917Y0258128D02*
X0254673Y0258128D01*
X0254673Y0255372D01*
X0251917Y0255372D01*
X0251917Y0256494D02*
X0254673Y0256494D01*
X0254673Y0257616D02*
X0251917Y0257616D01*
X0245011Y0258128D02*
X0245011Y0255372D01*
X0245011Y0258128D02*
X0247767Y0258128D01*
X0247767Y0255372D01*
X0245011Y0255372D01*
X0245011Y0256494D02*
X0247767Y0256494D01*
X0247767Y0257616D02*
X0245011Y0257616D01*
X0149917Y0258128D02*
X0149917Y0255372D01*
X0149917Y0258128D02*
X0152673Y0258128D01*
X0152673Y0255372D01*
X0149917Y0255372D01*
X0149917Y0256494D02*
X0152673Y0256494D01*
X0152673Y0257616D02*
X0149917Y0257616D01*
X0143011Y0258128D02*
X0143011Y0255372D01*
X0143011Y0258128D02*
X0145767Y0258128D01*
X0145767Y0255372D01*
X0143011Y0255372D01*
X0143011Y0256494D02*
X0145767Y0256494D01*
X0145767Y0257616D02*
X0143011Y0257616D01*
X0047917Y0258128D02*
X0047917Y0255372D01*
X0047917Y0258128D02*
X0050673Y0258128D01*
X0050673Y0255372D01*
X0047917Y0255372D01*
X0047917Y0256494D02*
X0050673Y0256494D01*
X0050673Y0257616D02*
X0047917Y0257616D01*
X0041011Y0258128D02*
X0041011Y0255372D01*
X0041011Y0258128D02*
X0043767Y0258128D01*
X0043767Y0255372D01*
X0041011Y0255372D01*
X0041011Y0256494D02*
X0043767Y0256494D01*
X0043767Y0257616D02*
X0041011Y0257616D01*
X0041011Y0357372D02*
X0041011Y0360128D01*
X0043767Y0360128D01*
X0043767Y0357372D01*
X0041011Y0357372D01*
X0041011Y0358494D02*
X0043767Y0358494D01*
X0043767Y0359616D02*
X0041011Y0359616D01*
X0047917Y0360128D02*
X0047917Y0357372D01*
X0047917Y0360128D02*
X0050673Y0360128D01*
X0050673Y0357372D01*
X0047917Y0357372D01*
X0047917Y0358494D02*
X0050673Y0358494D01*
X0050673Y0359616D02*
X0047917Y0359616D01*
X0143011Y0360128D02*
X0143011Y0357372D01*
X0143011Y0360128D02*
X0145767Y0360128D01*
X0145767Y0357372D01*
X0143011Y0357372D01*
X0143011Y0358494D02*
X0145767Y0358494D01*
X0145767Y0359616D02*
X0143011Y0359616D01*
X0149917Y0360128D02*
X0149917Y0357372D01*
X0149917Y0360128D02*
X0152673Y0360128D01*
X0152673Y0357372D01*
X0149917Y0357372D01*
X0149917Y0358494D02*
X0152673Y0358494D01*
X0152673Y0359616D02*
X0149917Y0359616D01*
X0245011Y0360128D02*
X0245011Y0357372D01*
X0245011Y0360128D02*
X0247767Y0360128D01*
X0247767Y0357372D01*
X0245011Y0357372D01*
X0245011Y0358494D02*
X0247767Y0358494D01*
X0247767Y0359616D02*
X0245011Y0359616D01*
X0251917Y0360128D02*
X0251917Y0357372D01*
X0251917Y0360128D02*
X0254673Y0360128D01*
X0254673Y0357372D01*
X0251917Y0357372D01*
X0251917Y0358494D02*
X0254673Y0358494D01*
X0254673Y0359616D02*
X0251917Y0359616D01*
X0347011Y0360128D02*
X0347011Y0357372D01*
X0347011Y0360128D02*
X0349767Y0360128D01*
X0349767Y0357372D01*
X0347011Y0357372D01*
X0347011Y0358494D02*
X0349767Y0358494D01*
X0349767Y0359616D02*
X0347011Y0359616D01*
X0353917Y0360128D02*
X0353917Y0357372D01*
X0353917Y0360128D02*
X0356673Y0360128D01*
X0356673Y0357372D01*
X0353917Y0357372D01*
X0353917Y0358494D02*
X0356673Y0358494D01*
X0356673Y0359616D02*
X0353917Y0359616D01*
X0449011Y0360128D02*
X0449011Y0357372D01*
X0449011Y0360128D02*
X0451767Y0360128D01*
X0451767Y0357372D01*
X0449011Y0357372D01*
X0449011Y0358494D02*
X0451767Y0358494D01*
X0451767Y0359616D02*
X0449011Y0359616D01*
X0455917Y0360128D02*
X0455917Y0357372D01*
X0455917Y0360128D02*
X0458673Y0360128D01*
X0458673Y0357372D01*
X0455917Y0357372D01*
X0455917Y0358494D02*
X0458673Y0358494D01*
X0458673Y0359616D02*
X0455917Y0359616D01*
X0455917Y0459372D02*
X0455917Y0462128D01*
X0458673Y0462128D01*
X0458673Y0459372D01*
X0455917Y0459372D01*
X0455917Y0460494D02*
X0458673Y0460494D01*
X0458673Y0461616D02*
X0455917Y0461616D01*
X0449011Y0462128D02*
X0449011Y0459372D01*
X0449011Y0462128D02*
X0451767Y0462128D01*
X0451767Y0459372D01*
X0449011Y0459372D01*
X0449011Y0460494D02*
X0451767Y0460494D01*
X0451767Y0461616D02*
X0449011Y0461616D01*
X0353917Y0462128D02*
X0353917Y0459372D01*
X0353917Y0462128D02*
X0356673Y0462128D01*
X0356673Y0459372D01*
X0353917Y0459372D01*
X0353917Y0460494D02*
X0356673Y0460494D01*
X0356673Y0461616D02*
X0353917Y0461616D01*
X0347011Y0462128D02*
X0347011Y0459372D01*
X0347011Y0462128D02*
X0349767Y0462128D01*
X0349767Y0459372D01*
X0347011Y0459372D01*
X0347011Y0460494D02*
X0349767Y0460494D01*
X0349767Y0461616D02*
X0347011Y0461616D01*
X0251917Y0462128D02*
X0251917Y0459372D01*
X0251917Y0462128D02*
X0254673Y0462128D01*
X0254673Y0459372D01*
X0251917Y0459372D01*
X0251917Y0460494D02*
X0254673Y0460494D01*
X0254673Y0461616D02*
X0251917Y0461616D01*
X0245011Y0462128D02*
X0245011Y0459372D01*
X0245011Y0462128D02*
X0247767Y0462128D01*
X0247767Y0459372D01*
X0245011Y0459372D01*
X0245011Y0460494D02*
X0247767Y0460494D01*
X0247767Y0461616D02*
X0245011Y0461616D01*
X0149917Y0462128D02*
X0149917Y0459372D01*
X0149917Y0462128D02*
X0152673Y0462128D01*
X0152673Y0459372D01*
X0149917Y0459372D01*
X0149917Y0460494D02*
X0152673Y0460494D01*
X0152673Y0461616D02*
X0149917Y0461616D01*
X0143011Y0462128D02*
X0143011Y0459372D01*
X0143011Y0462128D02*
X0145767Y0462128D01*
X0145767Y0459372D01*
X0143011Y0459372D01*
X0143011Y0460494D02*
X0145767Y0460494D01*
X0145767Y0461616D02*
X0143011Y0461616D01*
X0047917Y0462128D02*
X0047917Y0459372D01*
X0047917Y0462128D02*
X0050673Y0462128D01*
X0050673Y0459372D01*
X0047917Y0459372D01*
X0047917Y0460494D02*
X0050673Y0460494D01*
X0050673Y0461616D02*
X0047917Y0461616D01*
X0041011Y0462128D02*
X0041011Y0459372D01*
X0041011Y0462128D02*
X0043767Y0462128D01*
X0043767Y0459372D01*
X0041011Y0459372D01*
X0041011Y0460494D02*
X0043767Y0460494D01*
X0043767Y0461616D02*
X0041011Y0461616D01*
X0449011Y0054128D02*
X0449011Y0051372D01*
X0449011Y0054128D02*
X0451767Y0054128D01*
X0451767Y0051372D01*
X0449011Y0051372D01*
X0449011Y0052494D02*
X0451767Y0052494D01*
X0451767Y0053616D02*
X0449011Y0053616D01*
X0455917Y0054128D02*
X0455917Y0051372D01*
X0455917Y0054128D02*
X0458673Y0054128D01*
X0458673Y0051372D01*
X0455917Y0051372D01*
X0455917Y0052494D02*
X0458673Y0052494D01*
X0458673Y0053616D02*
X0455917Y0053616D01*
D14*
X0488200Y0074781D03*
X0488200Y0078719D03*
X0495484Y0078719D03*
X0495484Y0074781D03*
X0393484Y0074781D03*
X0393484Y0078719D03*
X0386200Y0078719D03*
X0386200Y0074781D03*
X0291484Y0074781D03*
X0291484Y0078719D03*
X0284200Y0078719D03*
X0284200Y0074781D03*
X0189484Y0074781D03*
X0189484Y0078719D03*
X0182200Y0078719D03*
X0182200Y0074781D03*
X0087484Y0074781D03*
X0087484Y0078719D03*
X0080200Y0078719D03*
X0080200Y0074781D03*
X0080200Y0176781D03*
X0080200Y0180719D03*
X0087484Y0180719D03*
X0087484Y0176781D03*
X0182200Y0176781D03*
X0182200Y0180719D03*
X0189484Y0180719D03*
X0189484Y0176781D03*
X0284200Y0176781D03*
X0284200Y0180719D03*
X0291484Y0180719D03*
X0291484Y0176781D03*
X0386200Y0176781D03*
X0386200Y0180719D03*
X0393484Y0180719D03*
X0393484Y0176781D03*
X0488200Y0176781D03*
X0488200Y0180719D03*
X0495484Y0180719D03*
X0495484Y0176781D03*
X0495484Y0278781D03*
X0495484Y0282719D03*
X0488200Y0282719D03*
X0488200Y0278781D03*
X0393484Y0278781D03*
X0393484Y0282719D03*
X0386200Y0282719D03*
X0386200Y0278781D03*
X0291484Y0278781D03*
X0291484Y0282719D03*
X0284200Y0282719D03*
X0284200Y0278781D03*
X0189484Y0278781D03*
X0189484Y0282719D03*
X0182200Y0282719D03*
X0182200Y0278781D03*
X0087484Y0278781D03*
X0087484Y0282719D03*
X0080200Y0282719D03*
X0080200Y0278781D03*
X0080200Y0380781D03*
X0080200Y0384719D03*
X0087484Y0384719D03*
X0087484Y0380781D03*
X0182200Y0380781D03*
X0182200Y0384719D03*
X0189484Y0384719D03*
X0189484Y0380781D03*
X0284200Y0380781D03*
X0284200Y0384719D03*
X0291484Y0384719D03*
X0291484Y0380781D03*
X0386200Y0380781D03*
X0386200Y0384719D03*
X0393484Y0384719D03*
X0393484Y0380781D03*
X0488200Y0380781D03*
X0488200Y0384719D03*
X0495484Y0384719D03*
X0495484Y0380781D03*
X0495484Y0482781D03*
X0495484Y0486719D03*
X0488200Y0486719D03*
X0488200Y0482781D03*
X0393484Y0482781D03*
X0393484Y0486719D03*
X0386200Y0486719D03*
X0386200Y0482781D03*
X0291484Y0482781D03*
X0291484Y0486719D03*
X0284200Y0486719D03*
X0284200Y0482781D03*
X0189484Y0482781D03*
X0189484Y0486719D03*
X0182200Y0486719D03*
X0182200Y0482781D03*
X0087484Y0482781D03*
X0087484Y0486719D03*
X0080200Y0486719D03*
X0080200Y0482781D03*
D15*
X0083842Y0484750D03*
X0185842Y0484750D03*
X0287842Y0484750D03*
X0389842Y0484750D03*
X0491842Y0484750D03*
X0491842Y0382750D03*
X0389842Y0382750D03*
X0287842Y0382750D03*
X0185842Y0382750D03*
X0083842Y0382750D03*
X0083842Y0280750D03*
X0185842Y0280750D03*
X0287842Y0280750D03*
X0389842Y0280750D03*
X0491842Y0280750D03*
X0491842Y0178750D03*
X0389842Y0178750D03*
X0287842Y0178750D03*
X0185842Y0178750D03*
X0083842Y0178750D03*
X0083842Y0076750D03*
X0185842Y0076750D03*
X0287842Y0076750D03*
X0389842Y0076750D03*
X0491842Y0076750D03*
M02*
