G75*
%MOIN*%
%OFA0B0*%
%FSLAX25Y25*%
%IPPOS*%
%LPD*%
%AMOC8*
5,1,8,0,0,1.08239X$1,22.5*
%
%ADD10C,0.00800*%
%ADD11C,0.03000*%
%ADD12C,0.01500*%
%ADD13C,0.01100*%
%ADD14C,0.01000*%
%ADD15C,0.00000*%
D10*
X0033342Y0028750D02*
X0133342Y0028750D01*
X0133342Y0128750D01*
X0033342Y0128750D01*
X0033342Y0028750D01*
X0135342Y0028750D02*
X0235342Y0028750D01*
X0235342Y0128750D01*
X0135342Y0128750D01*
X0135342Y0028750D01*
X0237342Y0028750D02*
X0337342Y0028750D01*
X0337342Y0128750D01*
X0237342Y0128750D01*
X0237342Y0028750D01*
X0237342Y0130750D02*
X0337342Y0130750D01*
X0337342Y0230750D01*
X0237342Y0230750D01*
X0237342Y0130750D01*
X0235342Y0130750D02*
X0135342Y0130750D01*
X0135342Y0230750D01*
X0235342Y0230750D01*
X0235342Y0130750D01*
X0133342Y0130750D02*
X0033342Y0130750D01*
X0033342Y0230750D01*
X0133342Y0230750D01*
X0133342Y0130750D01*
X0133342Y0232750D02*
X0033342Y0232750D01*
X0033342Y0332750D01*
X0133342Y0332750D01*
X0133342Y0232750D01*
X0135342Y0232750D02*
X0235342Y0232750D01*
X0235342Y0332750D01*
X0135342Y0332750D01*
X0135342Y0232750D01*
X0237342Y0232750D02*
X0337342Y0232750D01*
X0337342Y0332750D01*
X0237342Y0332750D01*
X0237342Y0232750D01*
D11*
X0277342Y0191250D02*
X0277342Y0173250D01*
X0277342Y0191250D02*
X0297342Y0191250D01*
X0297342Y0173250D01*
X0297342Y0089250D02*
X0277342Y0089250D01*
X0277342Y0071250D01*
X0297342Y0071250D02*
X0297342Y0089250D01*
X0195342Y0089250D02*
X0195342Y0071250D01*
X0195342Y0089250D02*
X0175342Y0089250D01*
X0175342Y0071250D01*
X0093342Y0071250D02*
X0093342Y0089250D01*
X0073342Y0089250D01*
X0073342Y0071250D01*
X0073342Y0173250D02*
X0073342Y0191250D01*
X0093342Y0191250D01*
X0093342Y0173250D01*
X0175342Y0173250D02*
X0175342Y0191250D01*
X0195342Y0191250D01*
X0195342Y0173250D01*
X0195342Y0275250D02*
X0195342Y0293250D01*
X0175342Y0293250D01*
X0175342Y0275250D01*
X0093342Y0275250D02*
X0093342Y0293250D01*
X0073342Y0293250D01*
X0073342Y0275250D01*
X0277342Y0275250D02*
X0277342Y0293250D01*
X0297342Y0293250D01*
X0297342Y0275250D01*
D12*
X0389342Y0231750D02*
X0006342Y0231750D01*
X0006342Y0129750D02*
X0389342Y0129750D01*
X0389342Y0027750D02*
X0006342Y0027750D01*
X0032342Y0001750D02*
X0032342Y0384750D01*
X0006342Y0333750D02*
X0389342Y0333750D01*
X0338342Y0384750D02*
X0338342Y0001750D01*
X0236342Y0001750D02*
X0236342Y0384750D01*
X0134342Y0384750D02*
X0134342Y0001750D01*
D13*
X0402133Y0028733D02*
X0403444Y0024800D01*
X0404755Y0028733D01*
X0407426Y0027094D02*
X0411359Y0027094D01*
X0414727Y0027094D02*
X0416366Y0026439D01*
X0416367Y0026439D02*
X0416419Y0026416D01*
X0416470Y0026389D01*
X0416519Y0026359D01*
X0416566Y0026326D01*
X0416611Y0026290D01*
X0416653Y0026250D01*
X0416692Y0026208D01*
X0416728Y0026164D01*
X0416761Y0026117D01*
X0416791Y0026067D01*
X0416818Y0026016D01*
X0416841Y0025964D01*
X0416860Y0025910D01*
X0416876Y0025854D01*
X0416888Y0025798D01*
X0416896Y0025741D01*
X0416900Y0025684D01*
X0416901Y0025626D01*
X0416897Y0025569D01*
X0416890Y0025512D01*
X0416878Y0025455D01*
X0416863Y0025400D01*
X0416845Y0025345D01*
X0416822Y0025292D01*
X0416796Y0025241D01*
X0416767Y0025192D01*
X0416734Y0025144D01*
X0416698Y0025099D01*
X0416660Y0025057D01*
X0416618Y0025017D01*
X0416574Y0024980D01*
X0416527Y0024946D01*
X0416479Y0024915D01*
X0416428Y0024888D01*
X0416376Y0024864D01*
X0416322Y0024844D01*
X0416267Y0024828D01*
X0416211Y0024815D01*
X0416154Y0024806D01*
X0416096Y0024801D01*
X0416039Y0024800D01*
X0416530Y0028405D02*
X0416423Y0028451D01*
X0416314Y0028494D01*
X0416204Y0028534D01*
X0416092Y0028570D01*
X0415980Y0028602D01*
X0415866Y0028631D01*
X0415752Y0028657D01*
X0415637Y0028678D01*
X0415522Y0028697D01*
X0415405Y0028711D01*
X0415289Y0028722D01*
X0415172Y0028729D01*
X0415055Y0028733D01*
X0415055Y0028734D02*
X0414998Y0028733D01*
X0414940Y0028728D01*
X0414883Y0028719D01*
X0414827Y0028706D01*
X0414772Y0028690D01*
X0414718Y0028670D01*
X0414666Y0028646D01*
X0414615Y0028619D01*
X0414567Y0028588D01*
X0414520Y0028554D01*
X0414476Y0028517D01*
X0414434Y0028477D01*
X0414396Y0028435D01*
X0414360Y0028390D01*
X0414327Y0028342D01*
X0414298Y0028293D01*
X0414272Y0028242D01*
X0414249Y0028189D01*
X0414231Y0028134D01*
X0414216Y0028079D01*
X0414204Y0028022D01*
X0414197Y0027965D01*
X0414193Y0027908D01*
X0414194Y0027850D01*
X0414198Y0027793D01*
X0414206Y0027736D01*
X0414218Y0027680D01*
X0414234Y0027624D01*
X0414253Y0027570D01*
X0414276Y0027518D01*
X0414303Y0027467D01*
X0414333Y0027417D01*
X0414366Y0027370D01*
X0414402Y0027326D01*
X0414441Y0027284D01*
X0414483Y0027244D01*
X0414528Y0027208D01*
X0414575Y0027175D01*
X0414624Y0027145D01*
X0414675Y0027118D01*
X0414727Y0027095D01*
X0414236Y0025128D02*
X0414370Y0025082D01*
X0414505Y0025039D01*
X0414641Y0025000D01*
X0414778Y0024964D01*
X0414915Y0024932D01*
X0415054Y0024903D01*
X0415193Y0024877D01*
X0415333Y0024856D01*
X0415474Y0024837D01*
X0415614Y0024823D01*
X0415756Y0024812D01*
X0415897Y0024804D01*
X0416039Y0024801D01*
X0419580Y0025783D02*
X0419580Y0027750D01*
X0419582Y0027812D01*
X0419588Y0027873D01*
X0419597Y0027934D01*
X0419611Y0027994D01*
X0419628Y0028054D01*
X0419649Y0028112D01*
X0419674Y0028169D01*
X0419702Y0028224D01*
X0419733Y0028277D01*
X0419768Y0028328D01*
X0419806Y0028377D01*
X0419846Y0028423D01*
X0419890Y0028467D01*
X0419936Y0028507D01*
X0419985Y0028545D01*
X0420036Y0028580D01*
X0420089Y0028611D01*
X0420144Y0028639D01*
X0420201Y0028664D01*
X0420259Y0028685D01*
X0420319Y0028702D01*
X0420379Y0028716D01*
X0420440Y0028725D01*
X0420501Y0028731D01*
X0420563Y0028733D01*
X0421874Y0028733D01*
X0424287Y0027422D02*
X0424287Y0026111D01*
X0424289Y0026040D01*
X0424295Y0025969D01*
X0424304Y0025899D01*
X0424318Y0025829D01*
X0424335Y0025760D01*
X0424356Y0025692D01*
X0424380Y0025626D01*
X0424408Y0025561D01*
X0424440Y0025497D01*
X0424475Y0025435D01*
X0424513Y0025375D01*
X0424554Y0025318D01*
X0424599Y0025262D01*
X0424646Y0025209D01*
X0424696Y0025159D01*
X0424749Y0025112D01*
X0424805Y0025067D01*
X0424862Y0025026D01*
X0424922Y0024988D01*
X0424984Y0024953D01*
X0425048Y0024921D01*
X0425113Y0024893D01*
X0425179Y0024869D01*
X0425247Y0024848D01*
X0425316Y0024831D01*
X0425386Y0024817D01*
X0425456Y0024808D01*
X0425527Y0024802D01*
X0425598Y0024800D01*
X0425669Y0024802D01*
X0425740Y0024808D01*
X0425810Y0024817D01*
X0425880Y0024831D01*
X0425949Y0024848D01*
X0426017Y0024869D01*
X0426083Y0024893D01*
X0426148Y0024921D01*
X0426212Y0024953D01*
X0426274Y0024988D01*
X0426334Y0025026D01*
X0426391Y0025067D01*
X0426447Y0025112D01*
X0426500Y0025159D01*
X0426550Y0025209D01*
X0426597Y0025262D01*
X0426642Y0025318D01*
X0426683Y0025375D01*
X0426721Y0025435D01*
X0426756Y0025497D01*
X0426788Y0025561D01*
X0426816Y0025626D01*
X0426840Y0025692D01*
X0426861Y0025760D01*
X0426878Y0025829D01*
X0426892Y0025899D01*
X0426901Y0025969D01*
X0426907Y0026040D01*
X0426909Y0026111D01*
X0426910Y0026111D02*
X0426910Y0027422D01*
X0426909Y0027422D02*
X0426907Y0027493D01*
X0426901Y0027564D01*
X0426892Y0027634D01*
X0426878Y0027704D01*
X0426861Y0027773D01*
X0426840Y0027841D01*
X0426816Y0027907D01*
X0426788Y0027972D01*
X0426756Y0028036D01*
X0426721Y0028098D01*
X0426683Y0028158D01*
X0426642Y0028215D01*
X0426597Y0028271D01*
X0426550Y0028324D01*
X0426500Y0028374D01*
X0426447Y0028421D01*
X0426391Y0028466D01*
X0426334Y0028507D01*
X0426274Y0028545D01*
X0426212Y0028580D01*
X0426148Y0028612D01*
X0426083Y0028640D01*
X0426017Y0028664D01*
X0425949Y0028685D01*
X0425880Y0028702D01*
X0425810Y0028716D01*
X0425740Y0028725D01*
X0425669Y0028731D01*
X0425598Y0028733D01*
X0425527Y0028731D01*
X0425456Y0028725D01*
X0425386Y0028716D01*
X0425316Y0028702D01*
X0425247Y0028685D01*
X0425179Y0028664D01*
X0425113Y0028640D01*
X0425048Y0028612D01*
X0424984Y0028580D01*
X0424922Y0028545D01*
X0424862Y0028507D01*
X0424805Y0028466D01*
X0424749Y0028421D01*
X0424696Y0028374D01*
X0424646Y0028324D01*
X0424599Y0028271D01*
X0424554Y0028215D01*
X0424513Y0028158D01*
X0424475Y0028098D01*
X0424440Y0028036D01*
X0424408Y0027972D01*
X0424380Y0027907D01*
X0424356Y0027841D01*
X0424335Y0027773D01*
X0424318Y0027704D01*
X0424304Y0027634D01*
X0424295Y0027564D01*
X0424289Y0027493D01*
X0424287Y0027422D01*
X0421874Y0024800D02*
X0420563Y0024800D01*
X0420501Y0024802D01*
X0420440Y0024808D01*
X0420379Y0024817D01*
X0420319Y0024831D01*
X0420259Y0024848D01*
X0420201Y0024869D01*
X0420144Y0024894D01*
X0420089Y0024922D01*
X0420036Y0024953D01*
X0419985Y0024988D01*
X0419936Y0025026D01*
X0419890Y0025066D01*
X0419846Y0025110D01*
X0419806Y0025156D01*
X0419768Y0025205D01*
X0419733Y0025256D01*
X0419702Y0025309D01*
X0419674Y0025364D01*
X0419649Y0025421D01*
X0419628Y0025479D01*
X0419611Y0025539D01*
X0419597Y0025599D01*
X0419588Y0025660D01*
X0419582Y0025721D01*
X0419580Y0025783D01*
X0429876Y0024800D02*
X0429876Y0028733D01*
X0431843Y0028733D01*
X0431843Y0028078D01*
X0433929Y0027422D02*
X0433929Y0025783D01*
X0433931Y0025721D01*
X0433937Y0025660D01*
X0433946Y0025599D01*
X0433960Y0025539D01*
X0433977Y0025479D01*
X0433998Y0025421D01*
X0434023Y0025364D01*
X0434051Y0025309D01*
X0434082Y0025256D01*
X0434117Y0025205D01*
X0434155Y0025156D01*
X0434195Y0025110D01*
X0434239Y0025066D01*
X0434285Y0025026D01*
X0434334Y0024988D01*
X0434385Y0024953D01*
X0434438Y0024922D01*
X0434493Y0024894D01*
X0434550Y0024869D01*
X0434608Y0024848D01*
X0434668Y0024831D01*
X0434728Y0024817D01*
X0434789Y0024808D01*
X0434850Y0024802D01*
X0434912Y0024800D01*
X0436551Y0024800D01*
X0436551Y0026767D02*
X0433929Y0026767D01*
X0433929Y0027422D02*
X0433931Y0027493D01*
X0433937Y0027564D01*
X0433946Y0027634D01*
X0433960Y0027704D01*
X0433977Y0027773D01*
X0433998Y0027841D01*
X0434022Y0027907D01*
X0434050Y0027972D01*
X0434082Y0028036D01*
X0434117Y0028098D01*
X0434155Y0028158D01*
X0434196Y0028215D01*
X0434241Y0028271D01*
X0434288Y0028324D01*
X0434338Y0028374D01*
X0434391Y0028421D01*
X0434447Y0028466D01*
X0434504Y0028507D01*
X0434564Y0028545D01*
X0434626Y0028580D01*
X0434690Y0028612D01*
X0434755Y0028640D01*
X0434821Y0028664D01*
X0434889Y0028685D01*
X0434958Y0028702D01*
X0435028Y0028716D01*
X0435098Y0028725D01*
X0435169Y0028731D01*
X0435240Y0028733D01*
X0435311Y0028731D01*
X0435382Y0028725D01*
X0435452Y0028716D01*
X0435522Y0028702D01*
X0435591Y0028685D01*
X0435659Y0028664D01*
X0435725Y0028640D01*
X0435790Y0028612D01*
X0435854Y0028580D01*
X0435916Y0028545D01*
X0435976Y0028507D01*
X0436033Y0028466D01*
X0436089Y0028421D01*
X0436142Y0028374D01*
X0436192Y0028324D01*
X0436239Y0028271D01*
X0436284Y0028215D01*
X0436325Y0028158D01*
X0436363Y0028098D01*
X0436398Y0028036D01*
X0436430Y0027972D01*
X0436458Y0027907D01*
X0436482Y0027841D01*
X0436503Y0027773D01*
X0436520Y0027704D01*
X0436534Y0027634D01*
X0436543Y0027564D01*
X0436549Y0027493D01*
X0436551Y0027422D01*
X0436551Y0026767D01*
X0436551Y0126800D02*
X0434912Y0126800D01*
X0434850Y0126802D01*
X0434789Y0126808D01*
X0434728Y0126817D01*
X0434668Y0126831D01*
X0434608Y0126848D01*
X0434550Y0126869D01*
X0434493Y0126894D01*
X0434438Y0126922D01*
X0434385Y0126953D01*
X0434334Y0126988D01*
X0434285Y0127026D01*
X0434239Y0127066D01*
X0434195Y0127110D01*
X0434155Y0127156D01*
X0434117Y0127205D01*
X0434082Y0127256D01*
X0434051Y0127309D01*
X0434023Y0127364D01*
X0433998Y0127421D01*
X0433977Y0127479D01*
X0433960Y0127539D01*
X0433946Y0127599D01*
X0433937Y0127660D01*
X0433931Y0127721D01*
X0433929Y0127783D01*
X0433929Y0129422D01*
X0433929Y0128767D02*
X0436551Y0128767D01*
X0436551Y0129422D01*
X0436549Y0129493D01*
X0436543Y0129564D01*
X0436534Y0129634D01*
X0436520Y0129704D01*
X0436503Y0129773D01*
X0436482Y0129841D01*
X0436458Y0129907D01*
X0436430Y0129972D01*
X0436398Y0130036D01*
X0436363Y0130098D01*
X0436325Y0130158D01*
X0436284Y0130215D01*
X0436239Y0130271D01*
X0436192Y0130324D01*
X0436142Y0130374D01*
X0436089Y0130421D01*
X0436033Y0130466D01*
X0435976Y0130507D01*
X0435916Y0130545D01*
X0435854Y0130580D01*
X0435790Y0130612D01*
X0435725Y0130640D01*
X0435659Y0130664D01*
X0435591Y0130685D01*
X0435522Y0130702D01*
X0435452Y0130716D01*
X0435382Y0130725D01*
X0435311Y0130731D01*
X0435240Y0130733D01*
X0435169Y0130731D01*
X0435098Y0130725D01*
X0435028Y0130716D01*
X0434958Y0130702D01*
X0434889Y0130685D01*
X0434821Y0130664D01*
X0434755Y0130640D01*
X0434690Y0130612D01*
X0434626Y0130580D01*
X0434564Y0130545D01*
X0434504Y0130507D01*
X0434447Y0130466D01*
X0434391Y0130421D01*
X0434338Y0130374D01*
X0434288Y0130324D01*
X0434241Y0130271D01*
X0434196Y0130215D01*
X0434155Y0130158D01*
X0434117Y0130098D01*
X0434082Y0130036D01*
X0434050Y0129972D01*
X0434022Y0129907D01*
X0433998Y0129841D01*
X0433977Y0129773D01*
X0433960Y0129704D01*
X0433946Y0129634D01*
X0433937Y0129564D01*
X0433931Y0129493D01*
X0433929Y0129422D01*
X0431843Y0130078D02*
X0431843Y0130733D01*
X0429876Y0130733D01*
X0429876Y0126800D01*
X0426910Y0128111D02*
X0426910Y0129422D01*
X0426909Y0129422D02*
X0426907Y0129493D01*
X0426901Y0129564D01*
X0426892Y0129634D01*
X0426878Y0129704D01*
X0426861Y0129773D01*
X0426840Y0129841D01*
X0426816Y0129907D01*
X0426788Y0129972D01*
X0426756Y0130036D01*
X0426721Y0130098D01*
X0426683Y0130158D01*
X0426642Y0130215D01*
X0426597Y0130271D01*
X0426550Y0130324D01*
X0426500Y0130374D01*
X0426447Y0130421D01*
X0426391Y0130466D01*
X0426334Y0130507D01*
X0426274Y0130545D01*
X0426212Y0130580D01*
X0426148Y0130612D01*
X0426083Y0130640D01*
X0426017Y0130664D01*
X0425949Y0130685D01*
X0425880Y0130702D01*
X0425810Y0130716D01*
X0425740Y0130725D01*
X0425669Y0130731D01*
X0425598Y0130733D01*
X0425527Y0130731D01*
X0425456Y0130725D01*
X0425386Y0130716D01*
X0425316Y0130702D01*
X0425247Y0130685D01*
X0425179Y0130664D01*
X0425113Y0130640D01*
X0425048Y0130612D01*
X0424984Y0130580D01*
X0424922Y0130545D01*
X0424862Y0130507D01*
X0424805Y0130466D01*
X0424749Y0130421D01*
X0424696Y0130374D01*
X0424646Y0130324D01*
X0424599Y0130271D01*
X0424554Y0130215D01*
X0424513Y0130158D01*
X0424475Y0130098D01*
X0424440Y0130036D01*
X0424408Y0129972D01*
X0424380Y0129907D01*
X0424356Y0129841D01*
X0424335Y0129773D01*
X0424318Y0129704D01*
X0424304Y0129634D01*
X0424295Y0129564D01*
X0424289Y0129493D01*
X0424287Y0129422D01*
X0424287Y0128111D01*
X0424289Y0128040D01*
X0424295Y0127969D01*
X0424304Y0127899D01*
X0424318Y0127829D01*
X0424335Y0127760D01*
X0424356Y0127692D01*
X0424380Y0127626D01*
X0424408Y0127561D01*
X0424440Y0127497D01*
X0424475Y0127435D01*
X0424513Y0127375D01*
X0424554Y0127318D01*
X0424599Y0127262D01*
X0424646Y0127209D01*
X0424696Y0127159D01*
X0424749Y0127112D01*
X0424805Y0127067D01*
X0424862Y0127026D01*
X0424922Y0126988D01*
X0424984Y0126953D01*
X0425048Y0126921D01*
X0425113Y0126893D01*
X0425179Y0126869D01*
X0425247Y0126848D01*
X0425316Y0126831D01*
X0425386Y0126817D01*
X0425456Y0126808D01*
X0425527Y0126802D01*
X0425598Y0126800D01*
X0425669Y0126802D01*
X0425740Y0126808D01*
X0425810Y0126817D01*
X0425880Y0126831D01*
X0425949Y0126848D01*
X0426017Y0126869D01*
X0426083Y0126893D01*
X0426148Y0126921D01*
X0426212Y0126953D01*
X0426274Y0126988D01*
X0426334Y0127026D01*
X0426391Y0127067D01*
X0426447Y0127112D01*
X0426500Y0127159D01*
X0426550Y0127209D01*
X0426597Y0127262D01*
X0426642Y0127318D01*
X0426683Y0127375D01*
X0426721Y0127435D01*
X0426756Y0127497D01*
X0426788Y0127561D01*
X0426816Y0127626D01*
X0426840Y0127692D01*
X0426861Y0127760D01*
X0426878Y0127829D01*
X0426892Y0127899D01*
X0426901Y0127969D01*
X0426907Y0128040D01*
X0426909Y0128111D01*
X0421874Y0126800D02*
X0420563Y0126800D01*
X0420501Y0126802D01*
X0420440Y0126808D01*
X0420379Y0126817D01*
X0420319Y0126831D01*
X0420259Y0126848D01*
X0420201Y0126869D01*
X0420144Y0126894D01*
X0420089Y0126922D01*
X0420036Y0126953D01*
X0419985Y0126988D01*
X0419936Y0127026D01*
X0419890Y0127066D01*
X0419846Y0127110D01*
X0419806Y0127156D01*
X0419768Y0127205D01*
X0419733Y0127256D01*
X0419702Y0127309D01*
X0419674Y0127364D01*
X0419649Y0127421D01*
X0419628Y0127479D01*
X0419611Y0127539D01*
X0419597Y0127599D01*
X0419588Y0127660D01*
X0419582Y0127721D01*
X0419580Y0127783D01*
X0419580Y0129750D01*
X0419582Y0129812D01*
X0419588Y0129873D01*
X0419597Y0129934D01*
X0419611Y0129994D01*
X0419628Y0130054D01*
X0419649Y0130112D01*
X0419674Y0130169D01*
X0419702Y0130224D01*
X0419733Y0130277D01*
X0419768Y0130328D01*
X0419806Y0130377D01*
X0419846Y0130423D01*
X0419890Y0130467D01*
X0419936Y0130507D01*
X0419985Y0130545D01*
X0420036Y0130580D01*
X0420089Y0130611D01*
X0420144Y0130639D01*
X0420201Y0130664D01*
X0420259Y0130685D01*
X0420319Y0130702D01*
X0420379Y0130716D01*
X0420440Y0130725D01*
X0420501Y0130731D01*
X0420563Y0130733D01*
X0421874Y0130733D01*
X0416366Y0128439D02*
X0414727Y0129094D01*
X0414727Y0129095D02*
X0414675Y0129118D01*
X0414624Y0129145D01*
X0414575Y0129175D01*
X0414528Y0129208D01*
X0414483Y0129244D01*
X0414441Y0129284D01*
X0414402Y0129326D01*
X0414366Y0129370D01*
X0414333Y0129417D01*
X0414303Y0129467D01*
X0414276Y0129518D01*
X0414253Y0129570D01*
X0414234Y0129624D01*
X0414218Y0129680D01*
X0414206Y0129736D01*
X0414198Y0129793D01*
X0414194Y0129850D01*
X0414193Y0129908D01*
X0414197Y0129965D01*
X0414204Y0130022D01*
X0414216Y0130079D01*
X0414231Y0130134D01*
X0414249Y0130189D01*
X0414272Y0130242D01*
X0414298Y0130293D01*
X0414327Y0130342D01*
X0414360Y0130390D01*
X0414396Y0130435D01*
X0414434Y0130477D01*
X0414476Y0130517D01*
X0414520Y0130554D01*
X0414567Y0130588D01*
X0414615Y0130619D01*
X0414666Y0130646D01*
X0414718Y0130670D01*
X0414772Y0130690D01*
X0414827Y0130706D01*
X0414883Y0130719D01*
X0414940Y0130728D01*
X0414998Y0130733D01*
X0415055Y0130734D01*
X0414236Y0127128D02*
X0414370Y0127082D01*
X0414505Y0127039D01*
X0414641Y0127000D01*
X0414778Y0126964D01*
X0414915Y0126932D01*
X0415054Y0126903D01*
X0415193Y0126877D01*
X0415333Y0126856D01*
X0415474Y0126837D01*
X0415614Y0126823D01*
X0415756Y0126812D01*
X0415897Y0126804D01*
X0416039Y0126801D01*
X0416039Y0126800D02*
X0416096Y0126801D01*
X0416154Y0126806D01*
X0416211Y0126815D01*
X0416267Y0126828D01*
X0416322Y0126844D01*
X0416376Y0126864D01*
X0416428Y0126888D01*
X0416479Y0126915D01*
X0416527Y0126946D01*
X0416574Y0126980D01*
X0416618Y0127017D01*
X0416660Y0127057D01*
X0416698Y0127099D01*
X0416734Y0127144D01*
X0416767Y0127192D01*
X0416796Y0127241D01*
X0416822Y0127292D01*
X0416845Y0127345D01*
X0416863Y0127400D01*
X0416878Y0127455D01*
X0416890Y0127512D01*
X0416897Y0127569D01*
X0416901Y0127626D01*
X0416900Y0127684D01*
X0416896Y0127741D01*
X0416888Y0127798D01*
X0416876Y0127854D01*
X0416860Y0127910D01*
X0416841Y0127964D01*
X0416818Y0128016D01*
X0416791Y0128067D01*
X0416761Y0128117D01*
X0416728Y0128164D01*
X0416692Y0128208D01*
X0416653Y0128250D01*
X0416611Y0128290D01*
X0416566Y0128326D01*
X0416519Y0128359D01*
X0416470Y0128389D01*
X0416419Y0128416D01*
X0416367Y0128439D01*
X0416530Y0130405D02*
X0416423Y0130451D01*
X0416314Y0130494D01*
X0416204Y0130534D01*
X0416092Y0130570D01*
X0415980Y0130602D01*
X0415866Y0130631D01*
X0415752Y0130657D01*
X0415637Y0130678D01*
X0415522Y0130697D01*
X0415405Y0130711D01*
X0415289Y0130722D01*
X0415172Y0130729D01*
X0415055Y0130733D01*
X0411359Y0129094D02*
X0407426Y0129094D01*
X0404755Y0130733D02*
X0403444Y0126800D01*
X0402133Y0130733D01*
X0403444Y0228800D02*
X0404755Y0232733D01*
X0402133Y0232733D02*
X0403444Y0228800D01*
X0407426Y0231094D02*
X0411359Y0231094D01*
X0414727Y0231094D02*
X0416366Y0230439D01*
X0416367Y0230439D02*
X0416419Y0230416D01*
X0416470Y0230389D01*
X0416519Y0230359D01*
X0416566Y0230326D01*
X0416611Y0230290D01*
X0416653Y0230250D01*
X0416692Y0230208D01*
X0416728Y0230164D01*
X0416761Y0230117D01*
X0416791Y0230067D01*
X0416818Y0230016D01*
X0416841Y0229964D01*
X0416860Y0229910D01*
X0416876Y0229854D01*
X0416888Y0229798D01*
X0416896Y0229741D01*
X0416900Y0229684D01*
X0416901Y0229626D01*
X0416897Y0229569D01*
X0416890Y0229512D01*
X0416878Y0229455D01*
X0416863Y0229400D01*
X0416845Y0229345D01*
X0416822Y0229292D01*
X0416796Y0229241D01*
X0416767Y0229192D01*
X0416734Y0229144D01*
X0416698Y0229099D01*
X0416660Y0229057D01*
X0416618Y0229017D01*
X0416574Y0228980D01*
X0416527Y0228946D01*
X0416479Y0228915D01*
X0416428Y0228888D01*
X0416376Y0228864D01*
X0416322Y0228844D01*
X0416267Y0228828D01*
X0416211Y0228815D01*
X0416154Y0228806D01*
X0416096Y0228801D01*
X0416039Y0228800D01*
X0416530Y0232405D02*
X0416423Y0232451D01*
X0416314Y0232494D01*
X0416204Y0232534D01*
X0416092Y0232570D01*
X0415980Y0232602D01*
X0415866Y0232631D01*
X0415752Y0232657D01*
X0415637Y0232678D01*
X0415522Y0232697D01*
X0415405Y0232711D01*
X0415289Y0232722D01*
X0415172Y0232729D01*
X0415055Y0232733D01*
X0415055Y0232734D02*
X0414998Y0232733D01*
X0414940Y0232728D01*
X0414883Y0232719D01*
X0414827Y0232706D01*
X0414772Y0232690D01*
X0414718Y0232670D01*
X0414666Y0232646D01*
X0414615Y0232619D01*
X0414567Y0232588D01*
X0414520Y0232554D01*
X0414476Y0232517D01*
X0414434Y0232477D01*
X0414396Y0232435D01*
X0414360Y0232390D01*
X0414327Y0232342D01*
X0414298Y0232293D01*
X0414272Y0232242D01*
X0414249Y0232189D01*
X0414231Y0232134D01*
X0414216Y0232079D01*
X0414204Y0232022D01*
X0414197Y0231965D01*
X0414193Y0231908D01*
X0414194Y0231850D01*
X0414198Y0231793D01*
X0414206Y0231736D01*
X0414218Y0231680D01*
X0414234Y0231624D01*
X0414253Y0231570D01*
X0414276Y0231518D01*
X0414303Y0231467D01*
X0414333Y0231417D01*
X0414366Y0231370D01*
X0414402Y0231326D01*
X0414441Y0231284D01*
X0414483Y0231244D01*
X0414528Y0231208D01*
X0414575Y0231175D01*
X0414624Y0231145D01*
X0414675Y0231118D01*
X0414727Y0231095D01*
X0414236Y0229128D02*
X0414370Y0229082D01*
X0414505Y0229039D01*
X0414641Y0229000D01*
X0414778Y0228964D01*
X0414915Y0228932D01*
X0415054Y0228903D01*
X0415193Y0228877D01*
X0415333Y0228856D01*
X0415474Y0228837D01*
X0415614Y0228823D01*
X0415756Y0228812D01*
X0415897Y0228804D01*
X0416039Y0228801D01*
X0419580Y0229783D02*
X0419580Y0231750D01*
X0419582Y0231812D01*
X0419588Y0231873D01*
X0419597Y0231934D01*
X0419611Y0231994D01*
X0419628Y0232054D01*
X0419649Y0232112D01*
X0419674Y0232169D01*
X0419702Y0232224D01*
X0419733Y0232277D01*
X0419768Y0232328D01*
X0419806Y0232377D01*
X0419846Y0232423D01*
X0419890Y0232467D01*
X0419936Y0232507D01*
X0419985Y0232545D01*
X0420036Y0232580D01*
X0420089Y0232611D01*
X0420144Y0232639D01*
X0420201Y0232664D01*
X0420259Y0232685D01*
X0420319Y0232702D01*
X0420379Y0232716D01*
X0420440Y0232725D01*
X0420501Y0232731D01*
X0420563Y0232733D01*
X0421874Y0232733D01*
X0424287Y0231422D02*
X0424287Y0230111D01*
X0424289Y0230040D01*
X0424295Y0229969D01*
X0424304Y0229899D01*
X0424318Y0229829D01*
X0424335Y0229760D01*
X0424356Y0229692D01*
X0424380Y0229626D01*
X0424408Y0229561D01*
X0424440Y0229497D01*
X0424475Y0229435D01*
X0424513Y0229375D01*
X0424554Y0229318D01*
X0424599Y0229262D01*
X0424646Y0229209D01*
X0424696Y0229159D01*
X0424749Y0229112D01*
X0424805Y0229067D01*
X0424862Y0229026D01*
X0424922Y0228988D01*
X0424984Y0228953D01*
X0425048Y0228921D01*
X0425113Y0228893D01*
X0425179Y0228869D01*
X0425247Y0228848D01*
X0425316Y0228831D01*
X0425386Y0228817D01*
X0425456Y0228808D01*
X0425527Y0228802D01*
X0425598Y0228800D01*
X0425669Y0228802D01*
X0425740Y0228808D01*
X0425810Y0228817D01*
X0425880Y0228831D01*
X0425949Y0228848D01*
X0426017Y0228869D01*
X0426083Y0228893D01*
X0426148Y0228921D01*
X0426212Y0228953D01*
X0426274Y0228988D01*
X0426334Y0229026D01*
X0426391Y0229067D01*
X0426447Y0229112D01*
X0426500Y0229159D01*
X0426550Y0229209D01*
X0426597Y0229262D01*
X0426642Y0229318D01*
X0426683Y0229375D01*
X0426721Y0229435D01*
X0426756Y0229497D01*
X0426788Y0229561D01*
X0426816Y0229626D01*
X0426840Y0229692D01*
X0426861Y0229760D01*
X0426878Y0229829D01*
X0426892Y0229899D01*
X0426901Y0229969D01*
X0426907Y0230040D01*
X0426909Y0230111D01*
X0426910Y0230111D02*
X0426910Y0231422D01*
X0426909Y0231422D02*
X0426907Y0231493D01*
X0426901Y0231564D01*
X0426892Y0231634D01*
X0426878Y0231704D01*
X0426861Y0231773D01*
X0426840Y0231841D01*
X0426816Y0231907D01*
X0426788Y0231972D01*
X0426756Y0232036D01*
X0426721Y0232098D01*
X0426683Y0232158D01*
X0426642Y0232215D01*
X0426597Y0232271D01*
X0426550Y0232324D01*
X0426500Y0232374D01*
X0426447Y0232421D01*
X0426391Y0232466D01*
X0426334Y0232507D01*
X0426274Y0232545D01*
X0426212Y0232580D01*
X0426148Y0232612D01*
X0426083Y0232640D01*
X0426017Y0232664D01*
X0425949Y0232685D01*
X0425880Y0232702D01*
X0425810Y0232716D01*
X0425740Y0232725D01*
X0425669Y0232731D01*
X0425598Y0232733D01*
X0425527Y0232731D01*
X0425456Y0232725D01*
X0425386Y0232716D01*
X0425316Y0232702D01*
X0425247Y0232685D01*
X0425179Y0232664D01*
X0425113Y0232640D01*
X0425048Y0232612D01*
X0424984Y0232580D01*
X0424922Y0232545D01*
X0424862Y0232507D01*
X0424805Y0232466D01*
X0424749Y0232421D01*
X0424696Y0232374D01*
X0424646Y0232324D01*
X0424599Y0232271D01*
X0424554Y0232215D01*
X0424513Y0232158D01*
X0424475Y0232098D01*
X0424440Y0232036D01*
X0424408Y0231972D01*
X0424380Y0231907D01*
X0424356Y0231841D01*
X0424335Y0231773D01*
X0424318Y0231704D01*
X0424304Y0231634D01*
X0424295Y0231564D01*
X0424289Y0231493D01*
X0424287Y0231422D01*
X0421874Y0228800D02*
X0420563Y0228800D01*
X0420501Y0228802D01*
X0420440Y0228808D01*
X0420379Y0228817D01*
X0420319Y0228831D01*
X0420259Y0228848D01*
X0420201Y0228869D01*
X0420144Y0228894D01*
X0420089Y0228922D01*
X0420036Y0228953D01*
X0419985Y0228988D01*
X0419936Y0229026D01*
X0419890Y0229066D01*
X0419846Y0229110D01*
X0419806Y0229156D01*
X0419768Y0229205D01*
X0419733Y0229256D01*
X0419702Y0229309D01*
X0419674Y0229364D01*
X0419649Y0229421D01*
X0419628Y0229479D01*
X0419611Y0229539D01*
X0419597Y0229599D01*
X0419588Y0229660D01*
X0419582Y0229721D01*
X0419580Y0229783D01*
X0429876Y0228800D02*
X0429876Y0232733D01*
X0431843Y0232733D01*
X0431843Y0232078D01*
X0433929Y0231422D02*
X0433929Y0229783D01*
X0433931Y0229721D01*
X0433937Y0229660D01*
X0433946Y0229599D01*
X0433960Y0229539D01*
X0433977Y0229479D01*
X0433998Y0229421D01*
X0434023Y0229364D01*
X0434051Y0229309D01*
X0434082Y0229256D01*
X0434117Y0229205D01*
X0434155Y0229156D01*
X0434195Y0229110D01*
X0434239Y0229066D01*
X0434285Y0229026D01*
X0434334Y0228988D01*
X0434385Y0228953D01*
X0434438Y0228922D01*
X0434493Y0228894D01*
X0434550Y0228869D01*
X0434608Y0228848D01*
X0434668Y0228831D01*
X0434728Y0228817D01*
X0434789Y0228808D01*
X0434850Y0228802D01*
X0434912Y0228800D01*
X0436551Y0228800D01*
X0436551Y0230767D02*
X0433929Y0230767D01*
X0433929Y0231422D02*
X0433931Y0231493D01*
X0433937Y0231564D01*
X0433946Y0231634D01*
X0433960Y0231704D01*
X0433977Y0231773D01*
X0433998Y0231841D01*
X0434022Y0231907D01*
X0434050Y0231972D01*
X0434082Y0232036D01*
X0434117Y0232098D01*
X0434155Y0232158D01*
X0434196Y0232215D01*
X0434241Y0232271D01*
X0434288Y0232324D01*
X0434338Y0232374D01*
X0434391Y0232421D01*
X0434447Y0232466D01*
X0434504Y0232507D01*
X0434564Y0232545D01*
X0434626Y0232580D01*
X0434690Y0232612D01*
X0434755Y0232640D01*
X0434821Y0232664D01*
X0434889Y0232685D01*
X0434958Y0232702D01*
X0435028Y0232716D01*
X0435098Y0232725D01*
X0435169Y0232731D01*
X0435240Y0232733D01*
X0435311Y0232731D01*
X0435382Y0232725D01*
X0435452Y0232716D01*
X0435522Y0232702D01*
X0435591Y0232685D01*
X0435659Y0232664D01*
X0435725Y0232640D01*
X0435790Y0232612D01*
X0435854Y0232580D01*
X0435916Y0232545D01*
X0435976Y0232507D01*
X0436033Y0232466D01*
X0436089Y0232421D01*
X0436142Y0232374D01*
X0436192Y0232324D01*
X0436239Y0232271D01*
X0436284Y0232215D01*
X0436325Y0232158D01*
X0436363Y0232098D01*
X0436398Y0232036D01*
X0436430Y0231972D01*
X0436458Y0231907D01*
X0436482Y0231841D01*
X0436503Y0231773D01*
X0436520Y0231704D01*
X0436534Y0231634D01*
X0436543Y0231564D01*
X0436549Y0231493D01*
X0436551Y0231422D01*
X0436551Y0230767D01*
X0436551Y0330800D02*
X0434912Y0330800D01*
X0434850Y0330802D01*
X0434789Y0330808D01*
X0434728Y0330817D01*
X0434668Y0330831D01*
X0434608Y0330848D01*
X0434550Y0330869D01*
X0434493Y0330894D01*
X0434438Y0330922D01*
X0434385Y0330953D01*
X0434334Y0330988D01*
X0434285Y0331026D01*
X0434239Y0331066D01*
X0434195Y0331110D01*
X0434155Y0331156D01*
X0434117Y0331205D01*
X0434082Y0331256D01*
X0434051Y0331309D01*
X0434023Y0331364D01*
X0433998Y0331421D01*
X0433977Y0331479D01*
X0433960Y0331539D01*
X0433946Y0331599D01*
X0433937Y0331660D01*
X0433931Y0331721D01*
X0433929Y0331783D01*
X0433929Y0333422D01*
X0433929Y0332767D02*
X0436551Y0332767D01*
X0436551Y0333422D01*
X0436549Y0333493D01*
X0436543Y0333564D01*
X0436534Y0333634D01*
X0436520Y0333704D01*
X0436503Y0333773D01*
X0436482Y0333841D01*
X0436458Y0333907D01*
X0436430Y0333972D01*
X0436398Y0334036D01*
X0436363Y0334098D01*
X0436325Y0334158D01*
X0436284Y0334215D01*
X0436239Y0334271D01*
X0436192Y0334324D01*
X0436142Y0334374D01*
X0436089Y0334421D01*
X0436033Y0334466D01*
X0435976Y0334507D01*
X0435916Y0334545D01*
X0435854Y0334580D01*
X0435790Y0334612D01*
X0435725Y0334640D01*
X0435659Y0334664D01*
X0435591Y0334685D01*
X0435522Y0334702D01*
X0435452Y0334716D01*
X0435382Y0334725D01*
X0435311Y0334731D01*
X0435240Y0334733D01*
X0435169Y0334731D01*
X0435098Y0334725D01*
X0435028Y0334716D01*
X0434958Y0334702D01*
X0434889Y0334685D01*
X0434821Y0334664D01*
X0434755Y0334640D01*
X0434690Y0334612D01*
X0434626Y0334580D01*
X0434564Y0334545D01*
X0434504Y0334507D01*
X0434447Y0334466D01*
X0434391Y0334421D01*
X0434338Y0334374D01*
X0434288Y0334324D01*
X0434241Y0334271D01*
X0434196Y0334215D01*
X0434155Y0334158D01*
X0434117Y0334098D01*
X0434082Y0334036D01*
X0434050Y0333972D01*
X0434022Y0333907D01*
X0433998Y0333841D01*
X0433977Y0333773D01*
X0433960Y0333704D01*
X0433946Y0333634D01*
X0433937Y0333564D01*
X0433931Y0333493D01*
X0433929Y0333422D01*
X0431843Y0334078D02*
X0431843Y0334733D01*
X0429876Y0334733D01*
X0429876Y0330800D01*
X0426910Y0332111D02*
X0426910Y0333422D01*
X0426909Y0333422D02*
X0426907Y0333493D01*
X0426901Y0333564D01*
X0426892Y0333634D01*
X0426878Y0333704D01*
X0426861Y0333773D01*
X0426840Y0333841D01*
X0426816Y0333907D01*
X0426788Y0333972D01*
X0426756Y0334036D01*
X0426721Y0334098D01*
X0426683Y0334158D01*
X0426642Y0334215D01*
X0426597Y0334271D01*
X0426550Y0334324D01*
X0426500Y0334374D01*
X0426447Y0334421D01*
X0426391Y0334466D01*
X0426334Y0334507D01*
X0426274Y0334545D01*
X0426212Y0334580D01*
X0426148Y0334612D01*
X0426083Y0334640D01*
X0426017Y0334664D01*
X0425949Y0334685D01*
X0425880Y0334702D01*
X0425810Y0334716D01*
X0425740Y0334725D01*
X0425669Y0334731D01*
X0425598Y0334733D01*
X0425527Y0334731D01*
X0425456Y0334725D01*
X0425386Y0334716D01*
X0425316Y0334702D01*
X0425247Y0334685D01*
X0425179Y0334664D01*
X0425113Y0334640D01*
X0425048Y0334612D01*
X0424984Y0334580D01*
X0424922Y0334545D01*
X0424862Y0334507D01*
X0424805Y0334466D01*
X0424749Y0334421D01*
X0424696Y0334374D01*
X0424646Y0334324D01*
X0424599Y0334271D01*
X0424554Y0334215D01*
X0424513Y0334158D01*
X0424475Y0334098D01*
X0424440Y0334036D01*
X0424408Y0333972D01*
X0424380Y0333907D01*
X0424356Y0333841D01*
X0424335Y0333773D01*
X0424318Y0333704D01*
X0424304Y0333634D01*
X0424295Y0333564D01*
X0424289Y0333493D01*
X0424287Y0333422D01*
X0424287Y0332111D01*
X0424289Y0332040D01*
X0424295Y0331969D01*
X0424304Y0331899D01*
X0424318Y0331829D01*
X0424335Y0331760D01*
X0424356Y0331692D01*
X0424380Y0331626D01*
X0424408Y0331561D01*
X0424440Y0331497D01*
X0424475Y0331435D01*
X0424513Y0331375D01*
X0424554Y0331318D01*
X0424599Y0331262D01*
X0424646Y0331209D01*
X0424696Y0331159D01*
X0424749Y0331112D01*
X0424805Y0331067D01*
X0424862Y0331026D01*
X0424922Y0330988D01*
X0424984Y0330953D01*
X0425048Y0330921D01*
X0425113Y0330893D01*
X0425179Y0330869D01*
X0425247Y0330848D01*
X0425316Y0330831D01*
X0425386Y0330817D01*
X0425456Y0330808D01*
X0425527Y0330802D01*
X0425598Y0330800D01*
X0425669Y0330802D01*
X0425740Y0330808D01*
X0425810Y0330817D01*
X0425880Y0330831D01*
X0425949Y0330848D01*
X0426017Y0330869D01*
X0426083Y0330893D01*
X0426148Y0330921D01*
X0426212Y0330953D01*
X0426274Y0330988D01*
X0426334Y0331026D01*
X0426391Y0331067D01*
X0426447Y0331112D01*
X0426500Y0331159D01*
X0426550Y0331209D01*
X0426597Y0331262D01*
X0426642Y0331318D01*
X0426683Y0331375D01*
X0426721Y0331435D01*
X0426756Y0331497D01*
X0426788Y0331561D01*
X0426816Y0331626D01*
X0426840Y0331692D01*
X0426861Y0331760D01*
X0426878Y0331829D01*
X0426892Y0331899D01*
X0426901Y0331969D01*
X0426907Y0332040D01*
X0426909Y0332111D01*
X0421874Y0330800D02*
X0420563Y0330800D01*
X0420501Y0330802D01*
X0420440Y0330808D01*
X0420379Y0330817D01*
X0420319Y0330831D01*
X0420259Y0330848D01*
X0420201Y0330869D01*
X0420144Y0330894D01*
X0420089Y0330922D01*
X0420036Y0330953D01*
X0419985Y0330988D01*
X0419936Y0331026D01*
X0419890Y0331066D01*
X0419846Y0331110D01*
X0419806Y0331156D01*
X0419768Y0331205D01*
X0419733Y0331256D01*
X0419702Y0331309D01*
X0419674Y0331364D01*
X0419649Y0331421D01*
X0419628Y0331479D01*
X0419611Y0331539D01*
X0419597Y0331599D01*
X0419588Y0331660D01*
X0419582Y0331721D01*
X0419580Y0331783D01*
X0419580Y0333750D01*
X0419582Y0333812D01*
X0419588Y0333873D01*
X0419597Y0333934D01*
X0419611Y0333994D01*
X0419628Y0334054D01*
X0419649Y0334112D01*
X0419674Y0334169D01*
X0419702Y0334224D01*
X0419733Y0334277D01*
X0419768Y0334328D01*
X0419806Y0334377D01*
X0419846Y0334423D01*
X0419890Y0334467D01*
X0419936Y0334507D01*
X0419985Y0334545D01*
X0420036Y0334580D01*
X0420089Y0334611D01*
X0420144Y0334639D01*
X0420201Y0334664D01*
X0420259Y0334685D01*
X0420319Y0334702D01*
X0420379Y0334716D01*
X0420440Y0334725D01*
X0420501Y0334731D01*
X0420563Y0334733D01*
X0421874Y0334733D01*
X0416366Y0332439D02*
X0414727Y0333094D01*
X0414727Y0333095D02*
X0414675Y0333118D01*
X0414624Y0333145D01*
X0414575Y0333175D01*
X0414528Y0333208D01*
X0414483Y0333244D01*
X0414441Y0333284D01*
X0414402Y0333326D01*
X0414366Y0333370D01*
X0414333Y0333417D01*
X0414303Y0333467D01*
X0414276Y0333518D01*
X0414253Y0333570D01*
X0414234Y0333624D01*
X0414218Y0333680D01*
X0414206Y0333736D01*
X0414198Y0333793D01*
X0414194Y0333850D01*
X0414193Y0333908D01*
X0414197Y0333965D01*
X0414204Y0334022D01*
X0414216Y0334079D01*
X0414231Y0334134D01*
X0414249Y0334189D01*
X0414272Y0334242D01*
X0414298Y0334293D01*
X0414327Y0334342D01*
X0414360Y0334390D01*
X0414396Y0334435D01*
X0414434Y0334477D01*
X0414476Y0334517D01*
X0414520Y0334554D01*
X0414567Y0334588D01*
X0414615Y0334619D01*
X0414666Y0334646D01*
X0414718Y0334670D01*
X0414772Y0334690D01*
X0414827Y0334706D01*
X0414883Y0334719D01*
X0414940Y0334728D01*
X0414998Y0334733D01*
X0415055Y0334734D01*
X0414236Y0331128D02*
X0414370Y0331082D01*
X0414505Y0331039D01*
X0414641Y0331000D01*
X0414778Y0330964D01*
X0414915Y0330932D01*
X0415054Y0330903D01*
X0415193Y0330877D01*
X0415333Y0330856D01*
X0415474Y0330837D01*
X0415614Y0330823D01*
X0415756Y0330812D01*
X0415897Y0330804D01*
X0416039Y0330801D01*
X0416039Y0330800D02*
X0416096Y0330801D01*
X0416154Y0330806D01*
X0416211Y0330815D01*
X0416267Y0330828D01*
X0416322Y0330844D01*
X0416376Y0330864D01*
X0416428Y0330888D01*
X0416479Y0330915D01*
X0416527Y0330946D01*
X0416574Y0330980D01*
X0416618Y0331017D01*
X0416660Y0331057D01*
X0416698Y0331099D01*
X0416734Y0331144D01*
X0416767Y0331192D01*
X0416796Y0331241D01*
X0416822Y0331292D01*
X0416845Y0331345D01*
X0416863Y0331400D01*
X0416878Y0331455D01*
X0416890Y0331512D01*
X0416897Y0331569D01*
X0416901Y0331626D01*
X0416900Y0331684D01*
X0416896Y0331741D01*
X0416888Y0331798D01*
X0416876Y0331854D01*
X0416860Y0331910D01*
X0416841Y0331964D01*
X0416818Y0332016D01*
X0416791Y0332067D01*
X0416761Y0332117D01*
X0416728Y0332164D01*
X0416692Y0332208D01*
X0416653Y0332250D01*
X0416611Y0332290D01*
X0416566Y0332326D01*
X0416519Y0332359D01*
X0416470Y0332389D01*
X0416419Y0332416D01*
X0416367Y0332439D01*
X0416530Y0334405D02*
X0416423Y0334451D01*
X0416314Y0334494D01*
X0416204Y0334534D01*
X0416092Y0334570D01*
X0415980Y0334602D01*
X0415866Y0334631D01*
X0415752Y0334657D01*
X0415637Y0334678D01*
X0415522Y0334697D01*
X0415405Y0334711D01*
X0415289Y0334722D01*
X0415172Y0334729D01*
X0415055Y0334733D01*
X0411359Y0333094D02*
X0407426Y0333094D01*
X0404755Y0334733D02*
X0403444Y0330800D01*
X0402133Y0334733D01*
X0355551Y0390800D02*
X0353912Y0390800D01*
X0353850Y0390802D01*
X0353789Y0390808D01*
X0353728Y0390817D01*
X0353668Y0390831D01*
X0353608Y0390848D01*
X0353550Y0390869D01*
X0353493Y0390894D01*
X0353438Y0390922D01*
X0353385Y0390953D01*
X0353334Y0390988D01*
X0353285Y0391026D01*
X0353239Y0391066D01*
X0353195Y0391110D01*
X0353155Y0391156D01*
X0353117Y0391205D01*
X0353082Y0391256D01*
X0353051Y0391309D01*
X0353023Y0391364D01*
X0352998Y0391421D01*
X0352977Y0391479D01*
X0352960Y0391539D01*
X0352946Y0391599D01*
X0352937Y0391660D01*
X0352931Y0391721D01*
X0352929Y0391783D01*
X0352929Y0393422D01*
X0352929Y0392767D02*
X0355551Y0392767D01*
X0355551Y0393422D01*
X0355549Y0393493D01*
X0355543Y0393564D01*
X0355534Y0393634D01*
X0355520Y0393704D01*
X0355503Y0393773D01*
X0355482Y0393841D01*
X0355458Y0393907D01*
X0355430Y0393972D01*
X0355398Y0394036D01*
X0355363Y0394098D01*
X0355325Y0394158D01*
X0355284Y0394215D01*
X0355239Y0394271D01*
X0355192Y0394324D01*
X0355142Y0394374D01*
X0355089Y0394421D01*
X0355033Y0394466D01*
X0354976Y0394507D01*
X0354916Y0394545D01*
X0354854Y0394580D01*
X0354790Y0394612D01*
X0354725Y0394640D01*
X0354659Y0394664D01*
X0354591Y0394685D01*
X0354522Y0394702D01*
X0354452Y0394716D01*
X0354382Y0394725D01*
X0354311Y0394731D01*
X0354240Y0394733D01*
X0354169Y0394731D01*
X0354098Y0394725D01*
X0354028Y0394716D01*
X0353958Y0394702D01*
X0353889Y0394685D01*
X0353821Y0394664D01*
X0353755Y0394640D01*
X0353690Y0394612D01*
X0353626Y0394580D01*
X0353564Y0394545D01*
X0353504Y0394507D01*
X0353447Y0394466D01*
X0353391Y0394421D01*
X0353338Y0394374D01*
X0353288Y0394324D01*
X0353241Y0394271D01*
X0353196Y0394215D01*
X0353155Y0394158D01*
X0353117Y0394098D01*
X0353082Y0394036D01*
X0353050Y0393972D01*
X0353022Y0393907D01*
X0352998Y0393841D01*
X0352977Y0393773D01*
X0352960Y0393704D01*
X0352946Y0393634D01*
X0352937Y0393564D01*
X0352931Y0393493D01*
X0352929Y0393422D01*
X0350843Y0394078D02*
X0350843Y0394733D01*
X0348876Y0394733D01*
X0348876Y0390800D01*
X0345910Y0392111D02*
X0345910Y0393422D01*
X0345909Y0393422D02*
X0345907Y0393493D01*
X0345901Y0393564D01*
X0345892Y0393634D01*
X0345878Y0393704D01*
X0345861Y0393773D01*
X0345840Y0393841D01*
X0345816Y0393907D01*
X0345788Y0393972D01*
X0345756Y0394036D01*
X0345721Y0394098D01*
X0345683Y0394158D01*
X0345642Y0394215D01*
X0345597Y0394271D01*
X0345550Y0394324D01*
X0345500Y0394374D01*
X0345447Y0394421D01*
X0345391Y0394466D01*
X0345334Y0394507D01*
X0345274Y0394545D01*
X0345212Y0394580D01*
X0345148Y0394612D01*
X0345083Y0394640D01*
X0345017Y0394664D01*
X0344949Y0394685D01*
X0344880Y0394702D01*
X0344810Y0394716D01*
X0344740Y0394725D01*
X0344669Y0394731D01*
X0344598Y0394733D01*
X0344527Y0394731D01*
X0344456Y0394725D01*
X0344386Y0394716D01*
X0344316Y0394702D01*
X0344247Y0394685D01*
X0344179Y0394664D01*
X0344113Y0394640D01*
X0344048Y0394612D01*
X0343984Y0394580D01*
X0343922Y0394545D01*
X0343862Y0394507D01*
X0343805Y0394466D01*
X0343749Y0394421D01*
X0343696Y0394374D01*
X0343646Y0394324D01*
X0343599Y0394271D01*
X0343554Y0394215D01*
X0343513Y0394158D01*
X0343475Y0394098D01*
X0343440Y0394036D01*
X0343408Y0393972D01*
X0343380Y0393907D01*
X0343356Y0393841D01*
X0343335Y0393773D01*
X0343318Y0393704D01*
X0343304Y0393634D01*
X0343295Y0393564D01*
X0343289Y0393493D01*
X0343287Y0393422D01*
X0343287Y0392111D01*
X0343289Y0392040D01*
X0343295Y0391969D01*
X0343304Y0391899D01*
X0343318Y0391829D01*
X0343335Y0391760D01*
X0343356Y0391692D01*
X0343380Y0391626D01*
X0343408Y0391561D01*
X0343440Y0391497D01*
X0343475Y0391435D01*
X0343513Y0391375D01*
X0343554Y0391318D01*
X0343599Y0391262D01*
X0343646Y0391209D01*
X0343696Y0391159D01*
X0343749Y0391112D01*
X0343805Y0391067D01*
X0343862Y0391026D01*
X0343922Y0390988D01*
X0343984Y0390953D01*
X0344048Y0390921D01*
X0344113Y0390893D01*
X0344179Y0390869D01*
X0344247Y0390848D01*
X0344316Y0390831D01*
X0344386Y0390817D01*
X0344456Y0390808D01*
X0344527Y0390802D01*
X0344598Y0390800D01*
X0344669Y0390802D01*
X0344740Y0390808D01*
X0344810Y0390817D01*
X0344880Y0390831D01*
X0344949Y0390848D01*
X0345017Y0390869D01*
X0345083Y0390893D01*
X0345148Y0390921D01*
X0345212Y0390953D01*
X0345274Y0390988D01*
X0345334Y0391026D01*
X0345391Y0391067D01*
X0345447Y0391112D01*
X0345500Y0391159D01*
X0345550Y0391209D01*
X0345597Y0391262D01*
X0345642Y0391318D01*
X0345683Y0391375D01*
X0345721Y0391435D01*
X0345756Y0391497D01*
X0345788Y0391561D01*
X0345816Y0391626D01*
X0345840Y0391692D01*
X0345861Y0391760D01*
X0345878Y0391829D01*
X0345892Y0391899D01*
X0345901Y0391969D01*
X0345907Y0392040D01*
X0345909Y0392111D01*
X0340874Y0390800D02*
X0339563Y0390800D01*
X0339501Y0390802D01*
X0339440Y0390808D01*
X0339379Y0390817D01*
X0339319Y0390831D01*
X0339259Y0390848D01*
X0339201Y0390869D01*
X0339144Y0390894D01*
X0339089Y0390922D01*
X0339036Y0390953D01*
X0338985Y0390988D01*
X0338936Y0391026D01*
X0338890Y0391066D01*
X0338846Y0391110D01*
X0338806Y0391156D01*
X0338768Y0391205D01*
X0338733Y0391256D01*
X0338702Y0391309D01*
X0338674Y0391364D01*
X0338649Y0391421D01*
X0338628Y0391479D01*
X0338611Y0391539D01*
X0338597Y0391599D01*
X0338588Y0391660D01*
X0338582Y0391721D01*
X0338580Y0391783D01*
X0338580Y0393750D01*
X0338582Y0393812D01*
X0338588Y0393873D01*
X0338597Y0393934D01*
X0338611Y0393994D01*
X0338628Y0394054D01*
X0338649Y0394112D01*
X0338674Y0394169D01*
X0338702Y0394224D01*
X0338733Y0394277D01*
X0338768Y0394328D01*
X0338806Y0394377D01*
X0338846Y0394423D01*
X0338890Y0394467D01*
X0338936Y0394507D01*
X0338985Y0394545D01*
X0339036Y0394580D01*
X0339089Y0394611D01*
X0339144Y0394639D01*
X0339201Y0394664D01*
X0339259Y0394685D01*
X0339319Y0394702D01*
X0339379Y0394716D01*
X0339440Y0394725D01*
X0339501Y0394731D01*
X0339563Y0394733D01*
X0340874Y0394733D01*
X0335366Y0392439D02*
X0333727Y0393094D01*
X0333727Y0393095D02*
X0333675Y0393118D01*
X0333624Y0393145D01*
X0333575Y0393175D01*
X0333528Y0393208D01*
X0333483Y0393244D01*
X0333441Y0393284D01*
X0333402Y0393326D01*
X0333366Y0393370D01*
X0333333Y0393417D01*
X0333303Y0393467D01*
X0333276Y0393518D01*
X0333253Y0393570D01*
X0333234Y0393624D01*
X0333218Y0393680D01*
X0333206Y0393736D01*
X0333198Y0393793D01*
X0333194Y0393850D01*
X0333193Y0393908D01*
X0333197Y0393965D01*
X0333204Y0394022D01*
X0333216Y0394079D01*
X0333231Y0394134D01*
X0333249Y0394189D01*
X0333272Y0394242D01*
X0333298Y0394293D01*
X0333327Y0394342D01*
X0333360Y0394390D01*
X0333396Y0394435D01*
X0333434Y0394477D01*
X0333476Y0394517D01*
X0333520Y0394554D01*
X0333567Y0394588D01*
X0333615Y0394619D01*
X0333666Y0394646D01*
X0333718Y0394670D01*
X0333772Y0394690D01*
X0333827Y0394706D01*
X0333883Y0394719D01*
X0333940Y0394728D01*
X0333998Y0394733D01*
X0334055Y0394734D01*
X0333236Y0391128D02*
X0333370Y0391082D01*
X0333505Y0391039D01*
X0333641Y0391000D01*
X0333778Y0390964D01*
X0333915Y0390932D01*
X0334054Y0390903D01*
X0334193Y0390877D01*
X0334333Y0390856D01*
X0334474Y0390837D01*
X0334614Y0390823D01*
X0334756Y0390812D01*
X0334897Y0390804D01*
X0335039Y0390801D01*
X0335039Y0390800D02*
X0335096Y0390801D01*
X0335154Y0390806D01*
X0335211Y0390815D01*
X0335267Y0390828D01*
X0335322Y0390844D01*
X0335376Y0390864D01*
X0335428Y0390888D01*
X0335479Y0390915D01*
X0335527Y0390946D01*
X0335574Y0390980D01*
X0335618Y0391017D01*
X0335660Y0391057D01*
X0335698Y0391099D01*
X0335734Y0391144D01*
X0335767Y0391192D01*
X0335796Y0391241D01*
X0335822Y0391292D01*
X0335845Y0391345D01*
X0335863Y0391400D01*
X0335878Y0391455D01*
X0335890Y0391512D01*
X0335897Y0391569D01*
X0335901Y0391626D01*
X0335900Y0391684D01*
X0335896Y0391741D01*
X0335888Y0391798D01*
X0335876Y0391854D01*
X0335860Y0391910D01*
X0335841Y0391964D01*
X0335818Y0392016D01*
X0335791Y0392067D01*
X0335761Y0392117D01*
X0335728Y0392164D01*
X0335692Y0392208D01*
X0335653Y0392250D01*
X0335611Y0392290D01*
X0335566Y0392326D01*
X0335519Y0392359D01*
X0335470Y0392389D01*
X0335419Y0392416D01*
X0335367Y0392439D01*
X0335530Y0394405D02*
X0335423Y0394451D01*
X0335314Y0394494D01*
X0335204Y0394534D01*
X0335092Y0394570D01*
X0334980Y0394602D01*
X0334866Y0394631D01*
X0334752Y0394657D01*
X0334637Y0394678D01*
X0334522Y0394697D01*
X0334405Y0394711D01*
X0334289Y0394722D01*
X0334172Y0394729D01*
X0334055Y0394733D01*
X0330359Y0393094D02*
X0326426Y0393094D01*
X0323755Y0394733D02*
X0322444Y0390800D01*
X0321133Y0394733D01*
X0253551Y0393422D02*
X0253551Y0392767D01*
X0250929Y0392767D01*
X0250929Y0393422D02*
X0250929Y0391783D01*
X0250931Y0391721D01*
X0250937Y0391660D01*
X0250946Y0391599D01*
X0250960Y0391539D01*
X0250977Y0391479D01*
X0250998Y0391421D01*
X0251023Y0391364D01*
X0251051Y0391309D01*
X0251082Y0391256D01*
X0251117Y0391205D01*
X0251155Y0391156D01*
X0251195Y0391110D01*
X0251239Y0391066D01*
X0251285Y0391026D01*
X0251334Y0390988D01*
X0251385Y0390953D01*
X0251438Y0390922D01*
X0251493Y0390894D01*
X0251550Y0390869D01*
X0251608Y0390848D01*
X0251668Y0390831D01*
X0251728Y0390817D01*
X0251789Y0390808D01*
X0251850Y0390802D01*
X0251912Y0390800D01*
X0253551Y0390800D01*
X0253551Y0393422D02*
X0253549Y0393493D01*
X0253543Y0393564D01*
X0253534Y0393634D01*
X0253520Y0393704D01*
X0253503Y0393773D01*
X0253482Y0393841D01*
X0253458Y0393907D01*
X0253430Y0393972D01*
X0253398Y0394036D01*
X0253363Y0394098D01*
X0253325Y0394158D01*
X0253284Y0394215D01*
X0253239Y0394271D01*
X0253192Y0394324D01*
X0253142Y0394374D01*
X0253089Y0394421D01*
X0253033Y0394466D01*
X0252976Y0394507D01*
X0252916Y0394545D01*
X0252854Y0394580D01*
X0252790Y0394612D01*
X0252725Y0394640D01*
X0252659Y0394664D01*
X0252591Y0394685D01*
X0252522Y0394702D01*
X0252452Y0394716D01*
X0252382Y0394725D01*
X0252311Y0394731D01*
X0252240Y0394733D01*
X0252169Y0394731D01*
X0252098Y0394725D01*
X0252028Y0394716D01*
X0251958Y0394702D01*
X0251889Y0394685D01*
X0251821Y0394664D01*
X0251755Y0394640D01*
X0251690Y0394612D01*
X0251626Y0394580D01*
X0251564Y0394545D01*
X0251504Y0394507D01*
X0251447Y0394466D01*
X0251391Y0394421D01*
X0251338Y0394374D01*
X0251288Y0394324D01*
X0251241Y0394271D01*
X0251196Y0394215D01*
X0251155Y0394158D01*
X0251117Y0394098D01*
X0251082Y0394036D01*
X0251050Y0393972D01*
X0251022Y0393907D01*
X0250998Y0393841D01*
X0250977Y0393773D01*
X0250960Y0393704D01*
X0250946Y0393634D01*
X0250937Y0393564D01*
X0250931Y0393493D01*
X0250929Y0393422D01*
X0248843Y0394078D02*
X0248843Y0394733D01*
X0246876Y0394733D01*
X0246876Y0390800D01*
X0243910Y0392111D02*
X0243910Y0393422D01*
X0243909Y0393422D02*
X0243907Y0393493D01*
X0243901Y0393564D01*
X0243892Y0393634D01*
X0243878Y0393704D01*
X0243861Y0393773D01*
X0243840Y0393841D01*
X0243816Y0393907D01*
X0243788Y0393972D01*
X0243756Y0394036D01*
X0243721Y0394098D01*
X0243683Y0394158D01*
X0243642Y0394215D01*
X0243597Y0394271D01*
X0243550Y0394324D01*
X0243500Y0394374D01*
X0243447Y0394421D01*
X0243391Y0394466D01*
X0243334Y0394507D01*
X0243274Y0394545D01*
X0243212Y0394580D01*
X0243148Y0394612D01*
X0243083Y0394640D01*
X0243017Y0394664D01*
X0242949Y0394685D01*
X0242880Y0394702D01*
X0242810Y0394716D01*
X0242740Y0394725D01*
X0242669Y0394731D01*
X0242598Y0394733D01*
X0242527Y0394731D01*
X0242456Y0394725D01*
X0242386Y0394716D01*
X0242316Y0394702D01*
X0242247Y0394685D01*
X0242179Y0394664D01*
X0242113Y0394640D01*
X0242048Y0394612D01*
X0241984Y0394580D01*
X0241922Y0394545D01*
X0241862Y0394507D01*
X0241805Y0394466D01*
X0241749Y0394421D01*
X0241696Y0394374D01*
X0241646Y0394324D01*
X0241599Y0394271D01*
X0241554Y0394215D01*
X0241513Y0394158D01*
X0241475Y0394098D01*
X0241440Y0394036D01*
X0241408Y0393972D01*
X0241380Y0393907D01*
X0241356Y0393841D01*
X0241335Y0393773D01*
X0241318Y0393704D01*
X0241304Y0393634D01*
X0241295Y0393564D01*
X0241289Y0393493D01*
X0241287Y0393422D01*
X0241287Y0392111D01*
X0241289Y0392040D01*
X0241295Y0391969D01*
X0241304Y0391899D01*
X0241318Y0391829D01*
X0241335Y0391760D01*
X0241356Y0391692D01*
X0241380Y0391626D01*
X0241408Y0391561D01*
X0241440Y0391497D01*
X0241475Y0391435D01*
X0241513Y0391375D01*
X0241554Y0391318D01*
X0241599Y0391262D01*
X0241646Y0391209D01*
X0241696Y0391159D01*
X0241749Y0391112D01*
X0241805Y0391067D01*
X0241862Y0391026D01*
X0241922Y0390988D01*
X0241984Y0390953D01*
X0242048Y0390921D01*
X0242113Y0390893D01*
X0242179Y0390869D01*
X0242247Y0390848D01*
X0242316Y0390831D01*
X0242386Y0390817D01*
X0242456Y0390808D01*
X0242527Y0390802D01*
X0242598Y0390800D01*
X0242669Y0390802D01*
X0242740Y0390808D01*
X0242810Y0390817D01*
X0242880Y0390831D01*
X0242949Y0390848D01*
X0243017Y0390869D01*
X0243083Y0390893D01*
X0243148Y0390921D01*
X0243212Y0390953D01*
X0243274Y0390988D01*
X0243334Y0391026D01*
X0243391Y0391067D01*
X0243447Y0391112D01*
X0243500Y0391159D01*
X0243550Y0391209D01*
X0243597Y0391262D01*
X0243642Y0391318D01*
X0243683Y0391375D01*
X0243721Y0391435D01*
X0243756Y0391497D01*
X0243788Y0391561D01*
X0243816Y0391626D01*
X0243840Y0391692D01*
X0243861Y0391760D01*
X0243878Y0391829D01*
X0243892Y0391899D01*
X0243901Y0391969D01*
X0243907Y0392040D01*
X0243909Y0392111D01*
X0238874Y0390800D02*
X0237563Y0390800D01*
X0237501Y0390802D01*
X0237440Y0390808D01*
X0237379Y0390817D01*
X0237319Y0390831D01*
X0237259Y0390848D01*
X0237201Y0390869D01*
X0237144Y0390894D01*
X0237089Y0390922D01*
X0237036Y0390953D01*
X0236985Y0390988D01*
X0236936Y0391026D01*
X0236890Y0391066D01*
X0236846Y0391110D01*
X0236806Y0391156D01*
X0236768Y0391205D01*
X0236733Y0391256D01*
X0236702Y0391309D01*
X0236674Y0391364D01*
X0236649Y0391421D01*
X0236628Y0391479D01*
X0236611Y0391539D01*
X0236597Y0391599D01*
X0236588Y0391660D01*
X0236582Y0391721D01*
X0236580Y0391783D01*
X0236580Y0393750D01*
X0236582Y0393812D01*
X0236588Y0393873D01*
X0236597Y0393934D01*
X0236611Y0393994D01*
X0236628Y0394054D01*
X0236649Y0394112D01*
X0236674Y0394169D01*
X0236702Y0394224D01*
X0236733Y0394277D01*
X0236768Y0394328D01*
X0236806Y0394377D01*
X0236846Y0394423D01*
X0236890Y0394467D01*
X0236936Y0394507D01*
X0236985Y0394545D01*
X0237036Y0394580D01*
X0237089Y0394611D01*
X0237144Y0394639D01*
X0237201Y0394664D01*
X0237259Y0394685D01*
X0237319Y0394702D01*
X0237379Y0394716D01*
X0237440Y0394725D01*
X0237501Y0394731D01*
X0237563Y0394733D01*
X0238874Y0394733D01*
X0233366Y0392439D02*
X0231727Y0393094D01*
X0231727Y0393095D02*
X0231675Y0393118D01*
X0231624Y0393145D01*
X0231575Y0393175D01*
X0231528Y0393208D01*
X0231483Y0393244D01*
X0231441Y0393284D01*
X0231402Y0393326D01*
X0231366Y0393370D01*
X0231333Y0393417D01*
X0231303Y0393467D01*
X0231276Y0393518D01*
X0231253Y0393570D01*
X0231234Y0393624D01*
X0231218Y0393680D01*
X0231206Y0393736D01*
X0231198Y0393793D01*
X0231194Y0393850D01*
X0231193Y0393908D01*
X0231197Y0393965D01*
X0231204Y0394022D01*
X0231216Y0394079D01*
X0231231Y0394134D01*
X0231249Y0394189D01*
X0231272Y0394242D01*
X0231298Y0394293D01*
X0231327Y0394342D01*
X0231360Y0394390D01*
X0231396Y0394435D01*
X0231434Y0394477D01*
X0231476Y0394517D01*
X0231520Y0394554D01*
X0231567Y0394588D01*
X0231615Y0394619D01*
X0231666Y0394646D01*
X0231718Y0394670D01*
X0231772Y0394690D01*
X0231827Y0394706D01*
X0231883Y0394719D01*
X0231940Y0394728D01*
X0231998Y0394733D01*
X0232055Y0394734D01*
X0231236Y0391128D02*
X0231370Y0391082D01*
X0231505Y0391039D01*
X0231641Y0391000D01*
X0231778Y0390964D01*
X0231915Y0390932D01*
X0232054Y0390903D01*
X0232193Y0390877D01*
X0232333Y0390856D01*
X0232474Y0390837D01*
X0232614Y0390823D01*
X0232756Y0390812D01*
X0232897Y0390804D01*
X0233039Y0390801D01*
X0233039Y0390800D02*
X0233096Y0390801D01*
X0233154Y0390806D01*
X0233211Y0390815D01*
X0233267Y0390828D01*
X0233322Y0390844D01*
X0233376Y0390864D01*
X0233428Y0390888D01*
X0233479Y0390915D01*
X0233527Y0390946D01*
X0233574Y0390980D01*
X0233618Y0391017D01*
X0233660Y0391057D01*
X0233698Y0391099D01*
X0233734Y0391144D01*
X0233767Y0391192D01*
X0233796Y0391241D01*
X0233822Y0391292D01*
X0233845Y0391345D01*
X0233863Y0391400D01*
X0233878Y0391455D01*
X0233890Y0391512D01*
X0233897Y0391569D01*
X0233901Y0391626D01*
X0233900Y0391684D01*
X0233896Y0391741D01*
X0233888Y0391798D01*
X0233876Y0391854D01*
X0233860Y0391910D01*
X0233841Y0391964D01*
X0233818Y0392016D01*
X0233791Y0392067D01*
X0233761Y0392117D01*
X0233728Y0392164D01*
X0233692Y0392208D01*
X0233653Y0392250D01*
X0233611Y0392290D01*
X0233566Y0392326D01*
X0233519Y0392359D01*
X0233470Y0392389D01*
X0233419Y0392416D01*
X0233367Y0392439D01*
X0233530Y0394405D02*
X0233423Y0394451D01*
X0233314Y0394494D01*
X0233204Y0394534D01*
X0233092Y0394570D01*
X0232980Y0394602D01*
X0232866Y0394631D01*
X0232752Y0394657D01*
X0232637Y0394678D01*
X0232522Y0394697D01*
X0232405Y0394711D01*
X0232289Y0394722D01*
X0232172Y0394729D01*
X0232055Y0394733D01*
X0228359Y0393094D02*
X0224426Y0393094D01*
X0221755Y0394733D02*
X0220444Y0390800D01*
X0219133Y0394733D01*
X0151551Y0393422D02*
X0151551Y0392767D01*
X0148929Y0392767D01*
X0148929Y0393422D02*
X0148929Y0391783D01*
X0148931Y0391721D01*
X0148937Y0391660D01*
X0148946Y0391599D01*
X0148960Y0391539D01*
X0148977Y0391479D01*
X0148998Y0391421D01*
X0149023Y0391364D01*
X0149051Y0391309D01*
X0149082Y0391256D01*
X0149117Y0391205D01*
X0149155Y0391156D01*
X0149195Y0391110D01*
X0149239Y0391066D01*
X0149285Y0391026D01*
X0149334Y0390988D01*
X0149385Y0390953D01*
X0149438Y0390922D01*
X0149493Y0390894D01*
X0149550Y0390869D01*
X0149608Y0390848D01*
X0149668Y0390831D01*
X0149728Y0390817D01*
X0149789Y0390808D01*
X0149850Y0390802D01*
X0149912Y0390800D01*
X0151551Y0390800D01*
X0151551Y0393422D02*
X0151549Y0393493D01*
X0151543Y0393564D01*
X0151534Y0393634D01*
X0151520Y0393704D01*
X0151503Y0393773D01*
X0151482Y0393841D01*
X0151458Y0393907D01*
X0151430Y0393972D01*
X0151398Y0394036D01*
X0151363Y0394098D01*
X0151325Y0394158D01*
X0151284Y0394215D01*
X0151239Y0394271D01*
X0151192Y0394324D01*
X0151142Y0394374D01*
X0151089Y0394421D01*
X0151033Y0394466D01*
X0150976Y0394507D01*
X0150916Y0394545D01*
X0150854Y0394580D01*
X0150790Y0394612D01*
X0150725Y0394640D01*
X0150659Y0394664D01*
X0150591Y0394685D01*
X0150522Y0394702D01*
X0150452Y0394716D01*
X0150382Y0394725D01*
X0150311Y0394731D01*
X0150240Y0394733D01*
X0150169Y0394731D01*
X0150098Y0394725D01*
X0150028Y0394716D01*
X0149958Y0394702D01*
X0149889Y0394685D01*
X0149821Y0394664D01*
X0149755Y0394640D01*
X0149690Y0394612D01*
X0149626Y0394580D01*
X0149564Y0394545D01*
X0149504Y0394507D01*
X0149447Y0394466D01*
X0149391Y0394421D01*
X0149338Y0394374D01*
X0149288Y0394324D01*
X0149241Y0394271D01*
X0149196Y0394215D01*
X0149155Y0394158D01*
X0149117Y0394098D01*
X0149082Y0394036D01*
X0149050Y0393972D01*
X0149022Y0393907D01*
X0148998Y0393841D01*
X0148977Y0393773D01*
X0148960Y0393704D01*
X0148946Y0393634D01*
X0148937Y0393564D01*
X0148931Y0393493D01*
X0148929Y0393422D01*
X0146843Y0394078D02*
X0146843Y0394733D01*
X0144876Y0394733D01*
X0144876Y0390800D01*
X0141910Y0392111D02*
X0141910Y0393422D01*
X0141909Y0393422D02*
X0141907Y0393493D01*
X0141901Y0393564D01*
X0141892Y0393634D01*
X0141878Y0393704D01*
X0141861Y0393773D01*
X0141840Y0393841D01*
X0141816Y0393907D01*
X0141788Y0393972D01*
X0141756Y0394036D01*
X0141721Y0394098D01*
X0141683Y0394158D01*
X0141642Y0394215D01*
X0141597Y0394271D01*
X0141550Y0394324D01*
X0141500Y0394374D01*
X0141447Y0394421D01*
X0141391Y0394466D01*
X0141334Y0394507D01*
X0141274Y0394545D01*
X0141212Y0394580D01*
X0141148Y0394612D01*
X0141083Y0394640D01*
X0141017Y0394664D01*
X0140949Y0394685D01*
X0140880Y0394702D01*
X0140810Y0394716D01*
X0140740Y0394725D01*
X0140669Y0394731D01*
X0140598Y0394733D01*
X0140527Y0394731D01*
X0140456Y0394725D01*
X0140386Y0394716D01*
X0140316Y0394702D01*
X0140247Y0394685D01*
X0140179Y0394664D01*
X0140113Y0394640D01*
X0140048Y0394612D01*
X0139984Y0394580D01*
X0139922Y0394545D01*
X0139862Y0394507D01*
X0139805Y0394466D01*
X0139749Y0394421D01*
X0139696Y0394374D01*
X0139646Y0394324D01*
X0139599Y0394271D01*
X0139554Y0394215D01*
X0139513Y0394158D01*
X0139475Y0394098D01*
X0139440Y0394036D01*
X0139408Y0393972D01*
X0139380Y0393907D01*
X0139356Y0393841D01*
X0139335Y0393773D01*
X0139318Y0393704D01*
X0139304Y0393634D01*
X0139295Y0393564D01*
X0139289Y0393493D01*
X0139287Y0393422D01*
X0139287Y0392111D01*
X0139289Y0392040D01*
X0139295Y0391969D01*
X0139304Y0391899D01*
X0139318Y0391829D01*
X0139335Y0391760D01*
X0139356Y0391692D01*
X0139380Y0391626D01*
X0139408Y0391561D01*
X0139440Y0391497D01*
X0139475Y0391435D01*
X0139513Y0391375D01*
X0139554Y0391318D01*
X0139599Y0391262D01*
X0139646Y0391209D01*
X0139696Y0391159D01*
X0139749Y0391112D01*
X0139805Y0391067D01*
X0139862Y0391026D01*
X0139922Y0390988D01*
X0139984Y0390953D01*
X0140048Y0390921D01*
X0140113Y0390893D01*
X0140179Y0390869D01*
X0140247Y0390848D01*
X0140316Y0390831D01*
X0140386Y0390817D01*
X0140456Y0390808D01*
X0140527Y0390802D01*
X0140598Y0390800D01*
X0140669Y0390802D01*
X0140740Y0390808D01*
X0140810Y0390817D01*
X0140880Y0390831D01*
X0140949Y0390848D01*
X0141017Y0390869D01*
X0141083Y0390893D01*
X0141148Y0390921D01*
X0141212Y0390953D01*
X0141274Y0390988D01*
X0141334Y0391026D01*
X0141391Y0391067D01*
X0141447Y0391112D01*
X0141500Y0391159D01*
X0141550Y0391209D01*
X0141597Y0391262D01*
X0141642Y0391318D01*
X0141683Y0391375D01*
X0141721Y0391435D01*
X0141756Y0391497D01*
X0141788Y0391561D01*
X0141816Y0391626D01*
X0141840Y0391692D01*
X0141861Y0391760D01*
X0141878Y0391829D01*
X0141892Y0391899D01*
X0141901Y0391969D01*
X0141907Y0392040D01*
X0141909Y0392111D01*
X0136874Y0390800D02*
X0135563Y0390800D01*
X0135501Y0390802D01*
X0135440Y0390808D01*
X0135379Y0390817D01*
X0135319Y0390831D01*
X0135259Y0390848D01*
X0135201Y0390869D01*
X0135144Y0390894D01*
X0135089Y0390922D01*
X0135036Y0390953D01*
X0134985Y0390988D01*
X0134936Y0391026D01*
X0134890Y0391066D01*
X0134846Y0391110D01*
X0134806Y0391156D01*
X0134768Y0391205D01*
X0134733Y0391256D01*
X0134702Y0391309D01*
X0134674Y0391364D01*
X0134649Y0391421D01*
X0134628Y0391479D01*
X0134611Y0391539D01*
X0134597Y0391599D01*
X0134588Y0391660D01*
X0134582Y0391721D01*
X0134580Y0391783D01*
X0134580Y0393750D01*
X0134582Y0393812D01*
X0134588Y0393873D01*
X0134597Y0393934D01*
X0134611Y0393994D01*
X0134628Y0394054D01*
X0134649Y0394112D01*
X0134674Y0394169D01*
X0134702Y0394224D01*
X0134733Y0394277D01*
X0134768Y0394328D01*
X0134806Y0394377D01*
X0134846Y0394423D01*
X0134890Y0394467D01*
X0134936Y0394507D01*
X0134985Y0394545D01*
X0135036Y0394580D01*
X0135089Y0394611D01*
X0135144Y0394639D01*
X0135201Y0394664D01*
X0135259Y0394685D01*
X0135319Y0394702D01*
X0135379Y0394716D01*
X0135440Y0394725D01*
X0135501Y0394731D01*
X0135563Y0394733D01*
X0136874Y0394733D01*
X0131366Y0392439D02*
X0129727Y0393094D01*
X0129727Y0393095D02*
X0129675Y0393118D01*
X0129624Y0393145D01*
X0129575Y0393175D01*
X0129528Y0393208D01*
X0129483Y0393244D01*
X0129441Y0393284D01*
X0129402Y0393326D01*
X0129366Y0393370D01*
X0129333Y0393417D01*
X0129303Y0393467D01*
X0129276Y0393518D01*
X0129253Y0393570D01*
X0129234Y0393624D01*
X0129218Y0393680D01*
X0129206Y0393736D01*
X0129198Y0393793D01*
X0129194Y0393850D01*
X0129193Y0393908D01*
X0129197Y0393965D01*
X0129204Y0394022D01*
X0129216Y0394079D01*
X0129231Y0394134D01*
X0129249Y0394189D01*
X0129272Y0394242D01*
X0129298Y0394293D01*
X0129327Y0394342D01*
X0129360Y0394390D01*
X0129396Y0394435D01*
X0129434Y0394477D01*
X0129476Y0394517D01*
X0129520Y0394554D01*
X0129567Y0394588D01*
X0129615Y0394619D01*
X0129666Y0394646D01*
X0129718Y0394670D01*
X0129772Y0394690D01*
X0129827Y0394706D01*
X0129883Y0394719D01*
X0129940Y0394728D01*
X0129998Y0394733D01*
X0130055Y0394734D01*
X0129236Y0391128D02*
X0129370Y0391082D01*
X0129505Y0391039D01*
X0129641Y0391000D01*
X0129778Y0390964D01*
X0129915Y0390932D01*
X0130054Y0390903D01*
X0130193Y0390877D01*
X0130333Y0390856D01*
X0130474Y0390837D01*
X0130614Y0390823D01*
X0130756Y0390812D01*
X0130897Y0390804D01*
X0131039Y0390801D01*
X0131039Y0390800D02*
X0131096Y0390801D01*
X0131154Y0390806D01*
X0131211Y0390815D01*
X0131267Y0390828D01*
X0131322Y0390844D01*
X0131376Y0390864D01*
X0131428Y0390888D01*
X0131479Y0390915D01*
X0131527Y0390946D01*
X0131574Y0390980D01*
X0131618Y0391017D01*
X0131660Y0391057D01*
X0131698Y0391099D01*
X0131734Y0391144D01*
X0131767Y0391192D01*
X0131796Y0391241D01*
X0131822Y0391292D01*
X0131845Y0391345D01*
X0131863Y0391400D01*
X0131878Y0391455D01*
X0131890Y0391512D01*
X0131897Y0391569D01*
X0131901Y0391626D01*
X0131900Y0391684D01*
X0131896Y0391741D01*
X0131888Y0391798D01*
X0131876Y0391854D01*
X0131860Y0391910D01*
X0131841Y0391964D01*
X0131818Y0392016D01*
X0131791Y0392067D01*
X0131761Y0392117D01*
X0131728Y0392164D01*
X0131692Y0392208D01*
X0131653Y0392250D01*
X0131611Y0392290D01*
X0131566Y0392326D01*
X0131519Y0392359D01*
X0131470Y0392389D01*
X0131419Y0392416D01*
X0131367Y0392439D01*
X0131530Y0394405D02*
X0131423Y0394451D01*
X0131314Y0394494D01*
X0131204Y0394534D01*
X0131092Y0394570D01*
X0130980Y0394602D01*
X0130866Y0394631D01*
X0130752Y0394657D01*
X0130637Y0394678D01*
X0130522Y0394697D01*
X0130405Y0394711D01*
X0130289Y0394722D01*
X0130172Y0394729D01*
X0130055Y0394733D01*
X0126359Y0393094D02*
X0122426Y0393094D01*
X0119755Y0394733D02*
X0118444Y0390800D01*
X0117133Y0394733D01*
X0049551Y0393422D02*
X0049551Y0392767D01*
X0046929Y0392767D01*
X0046929Y0393422D02*
X0046929Y0391783D01*
X0046931Y0391721D01*
X0046937Y0391660D01*
X0046946Y0391599D01*
X0046960Y0391539D01*
X0046977Y0391479D01*
X0046998Y0391421D01*
X0047023Y0391364D01*
X0047051Y0391309D01*
X0047082Y0391256D01*
X0047117Y0391205D01*
X0047155Y0391156D01*
X0047195Y0391110D01*
X0047239Y0391066D01*
X0047285Y0391026D01*
X0047334Y0390988D01*
X0047385Y0390953D01*
X0047438Y0390922D01*
X0047493Y0390894D01*
X0047550Y0390869D01*
X0047608Y0390848D01*
X0047668Y0390831D01*
X0047728Y0390817D01*
X0047789Y0390808D01*
X0047850Y0390802D01*
X0047912Y0390800D01*
X0049551Y0390800D01*
X0049551Y0393422D02*
X0049549Y0393493D01*
X0049543Y0393564D01*
X0049534Y0393634D01*
X0049520Y0393704D01*
X0049503Y0393773D01*
X0049482Y0393841D01*
X0049458Y0393907D01*
X0049430Y0393972D01*
X0049398Y0394036D01*
X0049363Y0394098D01*
X0049325Y0394158D01*
X0049284Y0394215D01*
X0049239Y0394271D01*
X0049192Y0394324D01*
X0049142Y0394374D01*
X0049089Y0394421D01*
X0049033Y0394466D01*
X0048976Y0394507D01*
X0048916Y0394545D01*
X0048854Y0394580D01*
X0048790Y0394612D01*
X0048725Y0394640D01*
X0048659Y0394664D01*
X0048591Y0394685D01*
X0048522Y0394702D01*
X0048452Y0394716D01*
X0048382Y0394725D01*
X0048311Y0394731D01*
X0048240Y0394733D01*
X0048169Y0394731D01*
X0048098Y0394725D01*
X0048028Y0394716D01*
X0047958Y0394702D01*
X0047889Y0394685D01*
X0047821Y0394664D01*
X0047755Y0394640D01*
X0047690Y0394612D01*
X0047626Y0394580D01*
X0047564Y0394545D01*
X0047504Y0394507D01*
X0047447Y0394466D01*
X0047391Y0394421D01*
X0047338Y0394374D01*
X0047288Y0394324D01*
X0047241Y0394271D01*
X0047196Y0394215D01*
X0047155Y0394158D01*
X0047117Y0394098D01*
X0047082Y0394036D01*
X0047050Y0393972D01*
X0047022Y0393907D01*
X0046998Y0393841D01*
X0046977Y0393773D01*
X0046960Y0393704D01*
X0046946Y0393634D01*
X0046937Y0393564D01*
X0046931Y0393493D01*
X0046929Y0393422D01*
X0044843Y0394078D02*
X0044843Y0394733D01*
X0042876Y0394733D01*
X0042876Y0390800D01*
X0039910Y0392111D02*
X0039910Y0393422D01*
X0039909Y0393422D02*
X0039907Y0393493D01*
X0039901Y0393564D01*
X0039892Y0393634D01*
X0039878Y0393704D01*
X0039861Y0393773D01*
X0039840Y0393841D01*
X0039816Y0393907D01*
X0039788Y0393972D01*
X0039756Y0394036D01*
X0039721Y0394098D01*
X0039683Y0394158D01*
X0039642Y0394215D01*
X0039597Y0394271D01*
X0039550Y0394324D01*
X0039500Y0394374D01*
X0039447Y0394421D01*
X0039391Y0394466D01*
X0039334Y0394507D01*
X0039274Y0394545D01*
X0039212Y0394580D01*
X0039148Y0394612D01*
X0039083Y0394640D01*
X0039017Y0394664D01*
X0038949Y0394685D01*
X0038880Y0394702D01*
X0038810Y0394716D01*
X0038740Y0394725D01*
X0038669Y0394731D01*
X0038598Y0394733D01*
X0038527Y0394731D01*
X0038456Y0394725D01*
X0038386Y0394716D01*
X0038316Y0394702D01*
X0038247Y0394685D01*
X0038179Y0394664D01*
X0038113Y0394640D01*
X0038048Y0394612D01*
X0037984Y0394580D01*
X0037922Y0394545D01*
X0037862Y0394507D01*
X0037805Y0394466D01*
X0037749Y0394421D01*
X0037696Y0394374D01*
X0037646Y0394324D01*
X0037599Y0394271D01*
X0037554Y0394215D01*
X0037513Y0394158D01*
X0037475Y0394098D01*
X0037440Y0394036D01*
X0037408Y0393972D01*
X0037380Y0393907D01*
X0037356Y0393841D01*
X0037335Y0393773D01*
X0037318Y0393704D01*
X0037304Y0393634D01*
X0037295Y0393564D01*
X0037289Y0393493D01*
X0037287Y0393422D01*
X0037287Y0392111D01*
X0037289Y0392040D01*
X0037295Y0391969D01*
X0037304Y0391899D01*
X0037318Y0391829D01*
X0037335Y0391760D01*
X0037356Y0391692D01*
X0037380Y0391626D01*
X0037408Y0391561D01*
X0037440Y0391497D01*
X0037475Y0391435D01*
X0037513Y0391375D01*
X0037554Y0391318D01*
X0037599Y0391262D01*
X0037646Y0391209D01*
X0037696Y0391159D01*
X0037749Y0391112D01*
X0037805Y0391067D01*
X0037862Y0391026D01*
X0037922Y0390988D01*
X0037984Y0390953D01*
X0038048Y0390921D01*
X0038113Y0390893D01*
X0038179Y0390869D01*
X0038247Y0390848D01*
X0038316Y0390831D01*
X0038386Y0390817D01*
X0038456Y0390808D01*
X0038527Y0390802D01*
X0038598Y0390800D01*
X0038669Y0390802D01*
X0038740Y0390808D01*
X0038810Y0390817D01*
X0038880Y0390831D01*
X0038949Y0390848D01*
X0039017Y0390869D01*
X0039083Y0390893D01*
X0039148Y0390921D01*
X0039212Y0390953D01*
X0039274Y0390988D01*
X0039334Y0391026D01*
X0039391Y0391067D01*
X0039447Y0391112D01*
X0039500Y0391159D01*
X0039550Y0391209D01*
X0039597Y0391262D01*
X0039642Y0391318D01*
X0039683Y0391375D01*
X0039721Y0391435D01*
X0039756Y0391497D01*
X0039788Y0391561D01*
X0039816Y0391626D01*
X0039840Y0391692D01*
X0039861Y0391760D01*
X0039878Y0391829D01*
X0039892Y0391899D01*
X0039901Y0391969D01*
X0039907Y0392040D01*
X0039909Y0392111D01*
X0034874Y0390800D02*
X0033563Y0390800D01*
X0033501Y0390802D01*
X0033440Y0390808D01*
X0033379Y0390817D01*
X0033319Y0390831D01*
X0033259Y0390848D01*
X0033201Y0390869D01*
X0033144Y0390894D01*
X0033089Y0390922D01*
X0033036Y0390953D01*
X0032985Y0390988D01*
X0032936Y0391026D01*
X0032890Y0391066D01*
X0032846Y0391110D01*
X0032806Y0391156D01*
X0032768Y0391205D01*
X0032733Y0391256D01*
X0032702Y0391309D01*
X0032674Y0391364D01*
X0032649Y0391421D01*
X0032628Y0391479D01*
X0032611Y0391539D01*
X0032597Y0391599D01*
X0032588Y0391660D01*
X0032582Y0391721D01*
X0032580Y0391783D01*
X0032580Y0393750D01*
X0032582Y0393812D01*
X0032588Y0393873D01*
X0032597Y0393934D01*
X0032611Y0393994D01*
X0032628Y0394054D01*
X0032649Y0394112D01*
X0032674Y0394169D01*
X0032702Y0394224D01*
X0032733Y0394277D01*
X0032768Y0394328D01*
X0032806Y0394377D01*
X0032846Y0394423D01*
X0032890Y0394467D01*
X0032936Y0394507D01*
X0032985Y0394545D01*
X0033036Y0394580D01*
X0033089Y0394611D01*
X0033144Y0394639D01*
X0033201Y0394664D01*
X0033259Y0394685D01*
X0033319Y0394702D01*
X0033379Y0394716D01*
X0033440Y0394725D01*
X0033501Y0394731D01*
X0033563Y0394733D01*
X0034874Y0394733D01*
X0029366Y0392439D02*
X0027727Y0393094D01*
X0027727Y0393095D02*
X0027675Y0393118D01*
X0027624Y0393145D01*
X0027575Y0393175D01*
X0027528Y0393208D01*
X0027483Y0393244D01*
X0027441Y0393284D01*
X0027402Y0393326D01*
X0027366Y0393370D01*
X0027333Y0393417D01*
X0027303Y0393467D01*
X0027276Y0393518D01*
X0027253Y0393570D01*
X0027234Y0393624D01*
X0027218Y0393680D01*
X0027206Y0393736D01*
X0027198Y0393793D01*
X0027194Y0393850D01*
X0027193Y0393908D01*
X0027197Y0393965D01*
X0027204Y0394022D01*
X0027216Y0394079D01*
X0027231Y0394134D01*
X0027249Y0394189D01*
X0027272Y0394242D01*
X0027298Y0394293D01*
X0027327Y0394342D01*
X0027360Y0394390D01*
X0027396Y0394435D01*
X0027434Y0394477D01*
X0027476Y0394517D01*
X0027520Y0394554D01*
X0027567Y0394588D01*
X0027615Y0394619D01*
X0027666Y0394646D01*
X0027718Y0394670D01*
X0027772Y0394690D01*
X0027827Y0394706D01*
X0027883Y0394719D01*
X0027940Y0394728D01*
X0027998Y0394733D01*
X0028055Y0394734D01*
X0027236Y0391128D02*
X0027370Y0391082D01*
X0027505Y0391039D01*
X0027641Y0391000D01*
X0027778Y0390964D01*
X0027915Y0390932D01*
X0028054Y0390903D01*
X0028193Y0390877D01*
X0028333Y0390856D01*
X0028474Y0390837D01*
X0028614Y0390823D01*
X0028756Y0390812D01*
X0028897Y0390804D01*
X0029039Y0390801D01*
X0029039Y0390800D02*
X0029096Y0390801D01*
X0029154Y0390806D01*
X0029211Y0390815D01*
X0029267Y0390828D01*
X0029322Y0390844D01*
X0029376Y0390864D01*
X0029428Y0390888D01*
X0029479Y0390915D01*
X0029527Y0390946D01*
X0029574Y0390980D01*
X0029618Y0391017D01*
X0029660Y0391057D01*
X0029698Y0391099D01*
X0029734Y0391144D01*
X0029767Y0391192D01*
X0029796Y0391241D01*
X0029822Y0391292D01*
X0029845Y0391345D01*
X0029863Y0391400D01*
X0029878Y0391455D01*
X0029890Y0391512D01*
X0029897Y0391569D01*
X0029901Y0391626D01*
X0029900Y0391684D01*
X0029896Y0391741D01*
X0029888Y0391798D01*
X0029876Y0391854D01*
X0029860Y0391910D01*
X0029841Y0391964D01*
X0029818Y0392016D01*
X0029791Y0392067D01*
X0029761Y0392117D01*
X0029728Y0392164D01*
X0029692Y0392208D01*
X0029653Y0392250D01*
X0029611Y0392290D01*
X0029566Y0392326D01*
X0029519Y0392359D01*
X0029470Y0392389D01*
X0029419Y0392416D01*
X0029367Y0392439D01*
X0029530Y0394405D02*
X0029423Y0394451D01*
X0029314Y0394494D01*
X0029204Y0394534D01*
X0029092Y0394570D01*
X0028980Y0394602D01*
X0028866Y0394631D01*
X0028752Y0394657D01*
X0028637Y0394678D01*
X0028522Y0394697D01*
X0028405Y0394711D01*
X0028289Y0394722D01*
X0028172Y0394729D01*
X0028055Y0394733D01*
X0024359Y0393094D02*
X0020426Y0393094D01*
X0017755Y0394733D02*
X0016444Y0390800D01*
X0015133Y0394733D01*
D14*
X0006342Y0026750D02*
X0006342Y0001750D01*
X0364342Y0001750D01*
X0364342Y0026750D01*
X0006342Y0026750D01*
X0006342Y0028750D02*
X0006342Y0332750D01*
X0031342Y0332750D01*
X0031342Y0028750D01*
X0006342Y0028750D01*
X0006342Y0334750D02*
X0006342Y0359750D01*
X0364342Y0359750D01*
X0364342Y0334750D01*
X0006342Y0334750D01*
X0339342Y0332750D02*
X0339342Y0028750D01*
X0364342Y0028750D01*
X0364342Y0332750D01*
X0339342Y0332750D01*
D15*
X0320842Y0322750D02*
X0320844Y0322911D01*
X0320850Y0323071D01*
X0320860Y0323232D01*
X0320874Y0323392D01*
X0320892Y0323552D01*
X0320913Y0323711D01*
X0320939Y0323870D01*
X0320969Y0324028D01*
X0321002Y0324185D01*
X0321040Y0324342D01*
X0321081Y0324497D01*
X0321126Y0324651D01*
X0321175Y0324804D01*
X0321228Y0324956D01*
X0321284Y0325107D01*
X0321345Y0325256D01*
X0321408Y0325404D01*
X0321476Y0325550D01*
X0321547Y0325694D01*
X0321621Y0325836D01*
X0321699Y0325977D01*
X0321781Y0326115D01*
X0321866Y0326252D01*
X0321954Y0326386D01*
X0322046Y0326518D01*
X0322141Y0326648D01*
X0322239Y0326776D01*
X0322340Y0326901D01*
X0322444Y0327023D01*
X0322551Y0327143D01*
X0322661Y0327260D01*
X0322774Y0327375D01*
X0322890Y0327486D01*
X0323009Y0327595D01*
X0323130Y0327700D01*
X0323254Y0327803D01*
X0323380Y0327903D01*
X0323508Y0327999D01*
X0323639Y0328092D01*
X0323773Y0328182D01*
X0323908Y0328269D01*
X0324046Y0328352D01*
X0324185Y0328432D01*
X0324327Y0328508D01*
X0324470Y0328581D01*
X0324615Y0328650D01*
X0324762Y0328716D01*
X0324910Y0328778D01*
X0325060Y0328836D01*
X0325211Y0328891D01*
X0325364Y0328942D01*
X0325518Y0328989D01*
X0325673Y0329032D01*
X0325829Y0329071D01*
X0325985Y0329107D01*
X0326143Y0329138D01*
X0326301Y0329166D01*
X0326460Y0329190D01*
X0326620Y0329210D01*
X0326780Y0329226D01*
X0326940Y0329238D01*
X0327101Y0329246D01*
X0327262Y0329250D01*
X0327422Y0329250D01*
X0327583Y0329246D01*
X0327744Y0329238D01*
X0327904Y0329226D01*
X0328064Y0329210D01*
X0328224Y0329190D01*
X0328383Y0329166D01*
X0328541Y0329138D01*
X0328699Y0329107D01*
X0328855Y0329071D01*
X0329011Y0329032D01*
X0329166Y0328989D01*
X0329320Y0328942D01*
X0329473Y0328891D01*
X0329624Y0328836D01*
X0329774Y0328778D01*
X0329922Y0328716D01*
X0330069Y0328650D01*
X0330214Y0328581D01*
X0330357Y0328508D01*
X0330499Y0328432D01*
X0330638Y0328352D01*
X0330776Y0328269D01*
X0330911Y0328182D01*
X0331045Y0328092D01*
X0331176Y0327999D01*
X0331304Y0327903D01*
X0331430Y0327803D01*
X0331554Y0327700D01*
X0331675Y0327595D01*
X0331794Y0327486D01*
X0331910Y0327375D01*
X0332023Y0327260D01*
X0332133Y0327143D01*
X0332240Y0327023D01*
X0332344Y0326901D01*
X0332445Y0326776D01*
X0332543Y0326648D01*
X0332638Y0326518D01*
X0332730Y0326386D01*
X0332818Y0326252D01*
X0332903Y0326115D01*
X0332985Y0325977D01*
X0333063Y0325836D01*
X0333137Y0325694D01*
X0333208Y0325550D01*
X0333276Y0325404D01*
X0333339Y0325256D01*
X0333400Y0325107D01*
X0333456Y0324956D01*
X0333509Y0324804D01*
X0333558Y0324651D01*
X0333603Y0324497D01*
X0333644Y0324342D01*
X0333682Y0324185D01*
X0333715Y0324028D01*
X0333745Y0323870D01*
X0333771Y0323711D01*
X0333792Y0323552D01*
X0333810Y0323392D01*
X0333824Y0323232D01*
X0333834Y0323071D01*
X0333840Y0322911D01*
X0333842Y0322750D01*
X0333840Y0322589D01*
X0333834Y0322429D01*
X0333824Y0322268D01*
X0333810Y0322108D01*
X0333792Y0321948D01*
X0333771Y0321789D01*
X0333745Y0321630D01*
X0333715Y0321472D01*
X0333682Y0321315D01*
X0333644Y0321158D01*
X0333603Y0321003D01*
X0333558Y0320849D01*
X0333509Y0320696D01*
X0333456Y0320544D01*
X0333400Y0320393D01*
X0333339Y0320244D01*
X0333276Y0320096D01*
X0333208Y0319950D01*
X0333137Y0319806D01*
X0333063Y0319664D01*
X0332985Y0319523D01*
X0332903Y0319385D01*
X0332818Y0319248D01*
X0332730Y0319114D01*
X0332638Y0318982D01*
X0332543Y0318852D01*
X0332445Y0318724D01*
X0332344Y0318599D01*
X0332240Y0318477D01*
X0332133Y0318357D01*
X0332023Y0318240D01*
X0331910Y0318125D01*
X0331794Y0318014D01*
X0331675Y0317905D01*
X0331554Y0317800D01*
X0331430Y0317697D01*
X0331304Y0317597D01*
X0331176Y0317501D01*
X0331045Y0317408D01*
X0330911Y0317318D01*
X0330776Y0317231D01*
X0330638Y0317148D01*
X0330499Y0317068D01*
X0330357Y0316992D01*
X0330214Y0316919D01*
X0330069Y0316850D01*
X0329922Y0316784D01*
X0329774Y0316722D01*
X0329624Y0316664D01*
X0329473Y0316609D01*
X0329320Y0316558D01*
X0329166Y0316511D01*
X0329011Y0316468D01*
X0328855Y0316429D01*
X0328699Y0316393D01*
X0328541Y0316362D01*
X0328383Y0316334D01*
X0328224Y0316310D01*
X0328064Y0316290D01*
X0327904Y0316274D01*
X0327744Y0316262D01*
X0327583Y0316254D01*
X0327422Y0316250D01*
X0327262Y0316250D01*
X0327101Y0316254D01*
X0326940Y0316262D01*
X0326780Y0316274D01*
X0326620Y0316290D01*
X0326460Y0316310D01*
X0326301Y0316334D01*
X0326143Y0316362D01*
X0325985Y0316393D01*
X0325829Y0316429D01*
X0325673Y0316468D01*
X0325518Y0316511D01*
X0325364Y0316558D01*
X0325211Y0316609D01*
X0325060Y0316664D01*
X0324910Y0316722D01*
X0324762Y0316784D01*
X0324615Y0316850D01*
X0324470Y0316919D01*
X0324327Y0316992D01*
X0324185Y0317068D01*
X0324046Y0317148D01*
X0323908Y0317231D01*
X0323773Y0317318D01*
X0323639Y0317408D01*
X0323508Y0317501D01*
X0323380Y0317597D01*
X0323254Y0317697D01*
X0323130Y0317800D01*
X0323009Y0317905D01*
X0322890Y0318014D01*
X0322774Y0318125D01*
X0322661Y0318240D01*
X0322551Y0318357D01*
X0322444Y0318477D01*
X0322340Y0318599D01*
X0322239Y0318724D01*
X0322141Y0318852D01*
X0322046Y0318982D01*
X0321954Y0319114D01*
X0321866Y0319248D01*
X0321781Y0319385D01*
X0321699Y0319523D01*
X0321621Y0319664D01*
X0321547Y0319806D01*
X0321476Y0319950D01*
X0321408Y0320096D01*
X0321345Y0320244D01*
X0321284Y0320393D01*
X0321228Y0320544D01*
X0321175Y0320696D01*
X0321126Y0320849D01*
X0321081Y0321003D01*
X0321040Y0321158D01*
X0321002Y0321315D01*
X0320969Y0321472D01*
X0320939Y0321630D01*
X0320913Y0321789D01*
X0320892Y0321948D01*
X0320874Y0322108D01*
X0320860Y0322268D01*
X0320850Y0322429D01*
X0320844Y0322589D01*
X0320842Y0322750D01*
X0240842Y0322750D02*
X0240844Y0322911D01*
X0240850Y0323071D01*
X0240860Y0323232D01*
X0240874Y0323392D01*
X0240892Y0323552D01*
X0240913Y0323711D01*
X0240939Y0323870D01*
X0240969Y0324028D01*
X0241002Y0324185D01*
X0241040Y0324342D01*
X0241081Y0324497D01*
X0241126Y0324651D01*
X0241175Y0324804D01*
X0241228Y0324956D01*
X0241284Y0325107D01*
X0241345Y0325256D01*
X0241408Y0325404D01*
X0241476Y0325550D01*
X0241547Y0325694D01*
X0241621Y0325836D01*
X0241699Y0325977D01*
X0241781Y0326115D01*
X0241866Y0326252D01*
X0241954Y0326386D01*
X0242046Y0326518D01*
X0242141Y0326648D01*
X0242239Y0326776D01*
X0242340Y0326901D01*
X0242444Y0327023D01*
X0242551Y0327143D01*
X0242661Y0327260D01*
X0242774Y0327375D01*
X0242890Y0327486D01*
X0243009Y0327595D01*
X0243130Y0327700D01*
X0243254Y0327803D01*
X0243380Y0327903D01*
X0243508Y0327999D01*
X0243639Y0328092D01*
X0243773Y0328182D01*
X0243908Y0328269D01*
X0244046Y0328352D01*
X0244185Y0328432D01*
X0244327Y0328508D01*
X0244470Y0328581D01*
X0244615Y0328650D01*
X0244762Y0328716D01*
X0244910Y0328778D01*
X0245060Y0328836D01*
X0245211Y0328891D01*
X0245364Y0328942D01*
X0245518Y0328989D01*
X0245673Y0329032D01*
X0245829Y0329071D01*
X0245985Y0329107D01*
X0246143Y0329138D01*
X0246301Y0329166D01*
X0246460Y0329190D01*
X0246620Y0329210D01*
X0246780Y0329226D01*
X0246940Y0329238D01*
X0247101Y0329246D01*
X0247262Y0329250D01*
X0247422Y0329250D01*
X0247583Y0329246D01*
X0247744Y0329238D01*
X0247904Y0329226D01*
X0248064Y0329210D01*
X0248224Y0329190D01*
X0248383Y0329166D01*
X0248541Y0329138D01*
X0248699Y0329107D01*
X0248855Y0329071D01*
X0249011Y0329032D01*
X0249166Y0328989D01*
X0249320Y0328942D01*
X0249473Y0328891D01*
X0249624Y0328836D01*
X0249774Y0328778D01*
X0249922Y0328716D01*
X0250069Y0328650D01*
X0250214Y0328581D01*
X0250357Y0328508D01*
X0250499Y0328432D01*
X0250638Y0328352D01*
X0250776Y0328269D01*
X0250911Y0328182D01*
X0251045Y0328092D01*
X0251176Y0327999D01*
X0251304Y0327903D01*
X0251430Y0327803D01*
X0251554Y0327700D01*
X0251675Y0327595D01*
X0251794Y0327486D01*
X0251910Y0327375D01*
X0252023Y0327260D01*
X0252133Y0327143D01*
X0252240Y0327023D01*
X0252344Y0326901D01*
X0252445Y0326776D01*
X0252543Y0326648D01*
X0252638Y0326518D01*
X0252730Y0326386D01*
X0252818Y0326252D01*
X0252903Y0326115D01*
X0252985Y0325977D01*
X0253063Y0325836D01*
X0253137Y0325694D01*
X0253208Y0325550D01*
X0253276Y0325404D01*
X0253339Y0325256D01*
X0253400Y0325107D01*
X0253456Y0324956D01*
X0253509Y0324804D01*
X0253558Y0324651D01*
X0253603Y0324497D01*
X0253644Y0324342D01*
X0253682Y0324185D01*
X0253715Y0324028D01*
X0253745Y0323870D01*
X0253771Y0323711D01*
X0253792Y0323552D01*
X0253810Y0323392D01*
X0253824Y0323232D01*
X0253834Y0323071D01*
X0253840Y0322911D01*
X0253842Y0322750D01*
X0253840Y0322589D01*
X0253834Y0322429D01*
X0253824Y0322268D01*
X0253810Y0322108D01*
X0253792Y0321948D01*
X0253771Y0321789D01*
X0253745Y0321630D01*
X0253715Y0321472D01*
X0253682Y0321315D01*
X0253644Y0321158D01*
X0253603Y0321003D01*
X0253558Y0320849D01*
X0253509Y0320696D01*
X0253456Y0320544D01*
X0253400Y0320393D01*
X0253339Y0320244D01*
X0253276Y0320096D01*
X0253208Y0319950D01*
X0253137Y0319806D01*
X0253063Y0319664D01*
X0252985Y0319523D01*
X0252903Y0319385D01*
X0252818Y0319248D01*
X0252730Y0319114D01*
X0252638Y0318982D01*
X0252543Y0318852D01*
X0252445Y0318724D01*
X0252344Y0318599D01*
X0252240Y0318477D01*
X0252133Y0318357D01*
X0252023Y0318240D01*
X0251910Y0318125D01*
X0251794Y0318014D01*
X0251675Y0317905D01*
X0251554Y0317800D01*
X0251430Y0317697D01*
X0251304Y0317597D01*
X0251176Y0317501D01*
X0251045Y0317408D01*
X0250911Y0317318D01*
X0250776Y0317231D01*
X0250638Y0317148D01*
X0250499Y0317068D01*
X0250357Y0316992D01*
X0250214Y0316919D01*
X0250069Y0316850D01*
X0249922Y0316784D01*
X0249774Y0316722D01*
X0249624Y0316664D01*
X0249473Y0316609D01*
X0249320Y0316558D01*
X0249166Y0316511D01*
X0249011Y0316468D01*
X0248855Y0316429D01*
X0248699Y0316393D01*
X0248541Y0316362D01*
X0248383Y0316334D01*
X0248224Y0316310D01*
X0248064Y0316290D01*
X0247904Y0316274D01*
X0247744Y0316262D01*
X0247583Y0316254D01*
X0247422Y0316250D01*
X0247262Y0316250D01*
X0247101Y0316254D01*
X0246940Y0316262D01*
X0246780Y0316274D01*
X0246620Y0316290D01*
X0246460Y0316310D01*
X0246301Y0316334D01*
X0246143Y0316362D01*
X0245985Y0316393D01*
X0245829Y0316429D01*
X0245673Y0316468D01*
X0245518Y0316511D01*
X0245364Y0316558D01*
X0245211Y0316609D01*
X0245060Y0316664D01*
X0244910Y0316722D01*
X0244762Y0316784D01*
X0244615Y0316850D01*
X0244470Y0316919D01*
X0244327Y0316992D01*
X0244185Y0317068D01*
X0244046Y0317148D01*
X0243908Y0317231D01*
X0243773Y0317318D01*
X0243639Y0317408D01*
X0243508Y0317501D01*
X0243380Y0317597D01*
X0243254Y0317697D01*
X0243130Y0317800D01*
X0243009Y0317905D01*
X0242890Y0318014D01*
X0242774Y0318125D01*
X0242661Y0318240D01*
X0242551Y0318357D01*
X0242444Y0318477D01*
X0242340Y0318599D01*
X0242239Y0318724D01*
X0242141Y0318852D01*
X0242046Y0318982D01*
X0241954Y0319114D01*
X0241866Y0319248D01*
X0241781Y0319385D01*
X0241699Y0319523D01*
X0241621Y0319664D01*
X0241547Y0319806D01*
X0241476Y0319950D01*
X0241408Y0320096D01*
X0241345Y0320244D01*
X0241284Y0320393D01*
X0241228Y0320544D01*
X0241175Y0320696D01*
X0241126Y0320849D01*
X0241081Y0321003D01*
X0241040Y0321158D01*
X0241002Y0321315D01*
X0240969Y0321472D01*
X0240939Y0321630D01*
X0240913Y0321789D01*
X0240892Y0321948D01*
X0240874Y0322108D01*
X0240860Y0322268D01*
X0240850Y0322429D01*
X0240844Y0322589D01*
X0240842Y0322750D01*
X0218842Y0322750D02*
X0218844Y0322911D01*
X0218850Y0323071D01*
X0218860Y0323232D01*
X0218874Y0323392D01*
X0218892Y0323552D01*
X0218913Y0323711D01*
X0218939Y0323870D01*
X0218969Y0324028D01*
X0219002Y0324185D01*
X0219040Y0324342D01*
X0219081Y0324497D01*
X0219126Y0324651D01*
X0219175Y0324804D01*
X0219228Y0324956D01*
X0219284Y0325107D01*
X0219345Y0325256D01*
X0219408Y0325404D01*
X0219476Y0325550D01*
X0219547Y0325694D01*
X0219621Y0325836D01*
X0219699Y0325977D01*
X0219781Y0326115D01*
X0219866Y0326252D01*
X0219954Y0326386D01*
X0220046Y0326518D01*
X0220141Y0326648D01*
X0220239Y0326776D01*
X0220340Y0326901D01*
X0220444Y0327023D01*
X0220551Y0327143D01*
X0220661Y0327260D01*
X0220774Y0327375D01*
X0220890Y0327486D01*
X0221009Y0327595D01*
X0221130Y0327700D01*
X0221254Y0327803D01*
X0221380Y0327903D01*
X0221508Y0327999D01*
X0221639Y0328092D01*
X0221773Y0328182D01*
X0221908Y0328269D01*
X0222046Y0328352D01*
X0222185Y0328432D01*
X0222327Y0328508D01*
X0222470Y0328581D01*
X0222615Y0328650D01*
X0222762Y0328716D01*
X0222910Y0328778D01*
X0223060Y0328836D01*
X0223211Y0328891D01*
X0223364Y0328942D01*
X0223518Y0328989D01*
X0223673Y0329032D01*
X0223829Y0329071D01*
X0223985Y0329107D01*
X0224143Y0329138D01*
X0224301Y0329166D01*
X0224460Y0329190D01*
X0224620Y0329210D01*
X0224780Y0329226D01*
X0224940Y0329238D01*
X0225101Y0329246D01*
X0225262Y0329250D01*
X0225422Y0329250D01*
X0225583Y0329246D01*
X0225744Y0329238D01*
X0225904Y0329226D01*
X0226064Y0329210D01*
X0226224Y0329190D01*
X0226383Y0329166D01*
X0226541Y0329138D01*
X0226699Y0329107D01*
X0226855Y0329071D01*
X0227011Y0329032D01*
X0227166Y0328989D01*
X0227320Y0328942D01*
X0227473Y0328891D01*
X0227624Y0328836D01*
X0227774Y0328778D01*
X0227922Y0328716D01*
X0228069Y0328650D01*
X0228214Y0328581D01*
X0228357Y0328508D01*
X0228499Y0328432D01*
X0228638Y0328352D01*
X0228776Y0328269D01*
X0228911Y0328182D01*
X0229045Y0328092D01*
X0229176Y0327999D01*
X0229304Y0327903D01*
X0229430Y0327803D01*
X0229554Y0327700D01*
X0229675Y0327595D01*
X0229794Y0327486D01*
X0229910Y0327375D01*
X0230023Y0327260D01*
X0230133Y0327143D01*
X0230240Y0327023D01*
X0230344Y0326901D01*
X0230445Y0326776D01*
X0230543Y0326648D01*
X0230638Y0326518D01*
X0230730Y0326386D01*
X0230818Y0326252D01*
X0230903Y0326115D01*
X0230985Y0325977D01*
X0231063Y0325836D01*
X0231137Y0325694D01*
X0231208Y0325550D01*
X0231276Y0325404D01*
X0231339Y0325256D01*
X0231400Y0325107D01*
X0231456Y0324956D01*
X0231509Y0324804D01*
X0231558Y0324651D01*
X0231603Y0324497D01*
X0231644Y0324342D01*
X0231682Y0324185D01*
X0231715Y0324028D01*
X0231745Y0323870D01*
X0231771Y0323711D01*
X0231792Y0323552D01*
X0231810Y0323392D01*
X0231824Y0323232D01*
X0231834Y0323071D01*
X0231840Y0322911D01*
X0231842Y0322750D01*
X0231840Y0322589D01*
X0231834Y0322429D01*
X0231824Y0322268D01*
X0231810Y0322108D01*
X0231792Y0321948D01*
X0231771Y0321789D01*
X0231745Y0321630D01*
X0231715Y0321472D01*
X0231682Y0321315D01*
X0231644Y0321158D01*
X0231603Y0321003D01*
X0231558Y0320849D01*
X0231509Y0320696D01*
X0231456Y0320544D01*
X0231400Y0320393D01*
X0231339Y0320244D01*
X0231276Y0320096D01*
X0231208Y0319950D01*
X0231137Y0319806D01*
X0231063Y0319664D01*
X0230985Y0319523D01*
X0230903Y0319385D01*
X0230818Y0319248D01*
X0230730Y0319114D01*
X0230638Y0318982D01*
X0230543Y0318852D01*
X0230445Y0318724D01*
X0230344Y0318599D01*
X0230240Y0318477D01*
X0230133Y0318357D01*
X0230023Y0318240D01*
X0229910Y0318125D01*
X0229794Y0318014D01*
X0229675Y0317905D01*
X0229554Y0317800D01*
X0229430Y0317697D01*
X0229304Y0317597D01*
X0229176Y0317501D01*
X0229045Y0317408D01*
X0228911Y0317318D01*
X0228776Y0317231D01*
X0228638Y0317148D01*
X0228499Y0317068D01*
X0228357Y0316992D01*
X0228214Y0316919D01*
X0228069Y0316850D01*
X0227922Y0316784D01*
X0227774Y0316722D01*
X0227624Y0316664D01*
X0227473Y0316609D01*
X0227320Y0316558D01*
X0227166Y0316511D01*
X0227011Y0316468D01*
X0226855Y0316429D01*
X0226699Y0316393D01*
X0226541Y0316362D01*
X0226383Y0316334D01*
X0226224Y0316310D01*
X0226064Y0316290D01*
X0225904Y0316274D01*
X0225744Y0316262D01*
X0225583Y0316254D01*
X0225422Y0316250D01*
X0225262Y0316250D01*
X0225101Y0316254D01*
X0224940Y0316262D01*
X0224780Y0316274D01*
X0224620Y0316290D01*
X0224460Y0316310D01*
X0224301Y0316334D01*
X0224143Y0316362D01*
X0223985Y0316393D01*
X0223829Y0316429D01*
X0223673Y0316468D01*
X0223518Y0316511D01*
X0223364Y0316558D01*
X0223211Y0316609D01*
X0223060Y0316664D01*
X0222910Y0316722D01*
X0222762Y0316784D01*
X0222615Y0316850D01*
X0222470Y0316919D01*
X0222327Y0316992D01*
X0222185Y0317068D01*
X0222046Y0317148D01*
X0221908Y0317231D01*
X0221773Y0317318D01*
X0221639Y0317408D01*
X0221508Y0317501D01*
X0221380Y0317597D01*
X0221254Y0317697D01*
X0221130Y0317800D01*
X0221009Y0317905D01*
X0220890Y0318014D01*
X0220774Y0318125D01*
X0220661Y0318240D01*
X0220551Y0318357D01*
X0220444Y0318477D01*
X0220340Y0318599D01*
X0220239Y0318724D01*
X0220141Y0318852D01*
X0220046Y0318982D01*
X0219954Y0319114D01*
X0219866Y0319248D01*
X0219781Y0319385D01*
X0219699Y0319523D01*
X0219621Y0319664D01*
X0219547Y0319806D01*
X0219476Y0319950D01*
X0219408Y0320096D01*
X0219345Y0320244D01*
X0219284Y0320393D01*
X0219228Y0320544D01*
X0219175Y0320696D01*
X0219126Y0320849D01*
X0219081Y0321003D01*
X0219040Y0321158D01*
X0219002Y0321315D01*
X0218969Y0321472D01*
X0218939Y0321630D01*
X0218913Y0321789D01*
X0218892Y0321948D01*
X0218874Y0322108D01*
X0218860Y0322268D01*
X0218850Y0322429D01*
X0218844Y0322589D01*
X0218842Y0322750D01*
X0138842Y0322750D02*
X0138844Y0322911D01*
X0138850Y0323071D01*
X0138860Y0323232D01*
X0138874Y0323392D01*
X0138892Y0323552D01*
X0138913Y0323711D01*
X0138939Y0323870D01*
X0138969Y0324028D01*
X0139002Y0324185D01*
X0139040Y0324342D01*
X0139081Y0324497D01*
X0139126Y0324651D01*
X0139175Y0324804D01*
X0139228Y0324956D01*
X0139284Y0325107D01*
X0139345Y0325256D01*
X0139408Y0325404D01*
X0139476Y0325550D01*
X0139547Y0325694D01*
X0139621Y0325836D01*
X0139699Y0325977D01*
X0139781Y0326115D01*
X0139866Y0326252D01*
X0139954Y0326386D01*
X0140046Y0326518D01*
X0140141Y0326648D01*
X0140239Y0326776D01*
X0140340Y0326901D01*
X0140444Y0327023D01*
X0140551Y0327143D01*
X0140661Y0327260D01*
X0140774Y0327375D01*
X0140890Y0327486D01*
X0141009Y0327595D01*
X0141130Y0327700D01*
X0141254Y0327803D01*
X0141380Y0327903D01*
X0141508Y0327999D01*
X0141639Y0328092D01*
X0141773Y0328182D01*
X0141908Y0328269D01*
X0142046Y0328352D01*
X0142185Y0328432D01*
X0142327Y0328508D01*
X0142470Y0328581D01*
X0142615Y0328650D01*
X0142762Y0328716D01*
X0142910Y0328778D01*
X0143060Y0328836D01*
X0143211Y0328891D01*
X0143364Y0328942D01*
X0143518Y0328989D01*
X0143673Y0329032D01*
X0143829Y0329071D01*
X0143985Y0329107D01*
X0144143Y0329138D01*
X0144301Y0329166D01*
X0144460Y0329190D01*
X0144620Y0329210D01*
X0144780Y0329226D01*
X0144940Y0329238D01*
X0145101Y0329246D01*
X0145262Y0329250D01*
X0145422Y0329250D01*
X0145583Y0329246D01*
X0145744Y0329238D01*
X0145904Y0329226D01*
X0146064Y0329210D01*
X0146224Y0329190D01*
X0146383Y0329166D01*
X0146541Y0329138D01*
X0146699Y0329107D01*
X0146855Y0329071D01*
X0147011Y0329032D01*
X0147166Y0328989D01*
X0147320Y0328942D01*
X0147473Y0328891D01*
X0147624Y0328836D01*
X0147774Y0328778D01*
X0147922Y0328716D01*
X0148069Y0328650D01*
X0148214Y0328581D01*
X0148357Y0328508D01*
X0148499Y0328432D01*
X0148638Y0328352D01*
X0148776Y0328269D01*
X0148911Y0328182D01*
X0149045Y0328092D01*
X0149176Y0327999D01*
X0149304Y0327903D01*
X0149430Y0327803D01*
X0149554Y0327700D01*
X0149675Y0327595D01*
X0149794Y0327486D01*
X0149910Y0327375D01*
X0150023Y0327260D01*
X0150133Y0327143D01*
X0150240Y0327023D01*
X0150344Y0326901D01*
X0150445Y0326776D01*
X0150543Y0326648D01*
X0150638Y0326518D01*
X0150730Y0326386D01*
X0150818Y0326252D01*
X0150903Y0326115D01*
X0150985Y0325977D01*
X0151063Y0325836D01*
X0151137Y0325694D01*
X0151208Y0325550D01*
X0151276Y0325404D01*
X0151339Y0325256D01*
X0151400Y0325107D01*
X0151456Y0324956D01*
X0151509Y0324804D01*
X0151558Y0324651D01*
X0151603Y0324497D01*
X0151644Y0324342D01*
X0151682Y0324185D01*
X0151715Y0324028D01*
X0151745Y0323870D01*
X0151771Y0323711D01*
X0151792Y0323552D01*
X0151810Y0323392D01*
X0151824Y0323232D01*
X0151834Y0323071D01*
X0151840Y0322911D01*
X0151842Y0322750D01*
X0151840Y0322589D01*
X0151834Y0322429D01*
X0151824Y0322268D01*
X0151810Y0322108D01*
X0151792Y0321948D01*
X0151771Y0321789D01*
X0151745Y0321630D01*
X0151715Y0321472D01*
X0151682Y0321315D01*
X0151644Y0321158D01*
X0151603Y0321003D01*
X0151558Y0320849D01*
X0151509Y0320696D01*
X0151456Y0320544D01*
X0151400Y0320393D01*
X0151339Y0320244D01*
X0151276Y0320096D01*
X0151208Y0319950D01*
X0151137Y0319806D01*
X0151063Y0319664D01*
X0150985Y0319523D01*
X0150903Y0319385D01*
X0150818Y0319248D01*
X0150730Y0319114D01*
X0150638Y0318982D01*
X0150543Y0318852D01*
X0150445Y0318724D01*
X0150344Y0318599D01*
X0150240Y0318477D01*
X0150133Y0318357D01*
X0150023Y0318240D01*
X0149910Y0318125D01*
X0149794Y0318014D01*
X0149675Y0317905D01*
X0149554Y0317800D01*
X0149430Y0317697D01*
X0149304Y0317597D01*
X0149176Y0317501D01*
X0149045Y0317408D01*
X0148911Y0317318D01*
X0148776Y0317231D01*
X0148638Y0317148D01*
X0148499Y0317068D01*
X0148357Y0316992D01*
X0148214Y0316919D01*
X0148069Y0316850D01*
X0147922Y0316784D01*
X0147774Y0316722D01*
X0147624Y0316664D01*
X0147473Y0316609D01*
X0147320Y0316558D01*
X0147166Y0316511D01*
X0147011Y0316468D01*
X0146855Y0316429D01*
X0146699Y0316393D01*
X0146541Y0316362D01*
X0146383Y0316334D01*
X0146224Y0316310D01*
X0146064Y0316290D01*
X0145904Y0316274D01*
X0145744Y0316262D01*
X0145583Y0316254D01*
X0145422Y0316250D01*
X0145262Y0316250D01*
X0145101Y0316254D01*
X0144940Y0316262D01*
X0144780Y0316274D01*
X0144620Y0316290D01*
X0144460Y0316310D01*
X0144301Y0316334D01*
X0144143Y0316362D01*
X0143985Y0316393D01*
X0143829Y0316429D01*
X0143673Y0316468D01*
X0143518Y0316511D01*
X0143364Y0316558D01*
X0143211Y0316609D01*
X0143060Y0316664D01*
X0142910Y0316722D01*
X0142762Y0316784D01*
X0142615Y0316850D01*
X0142470Y0316919D01*
X0142327Y0316992D01*
X0142185Y0317068D01*
X0142046Y0317148D01*
X0141908Y0317231D01*
X0141773Y0317318D01*
X0141639Y0317408D01*
X0141508Y0317501D01*
X0141380Y0317597D01*
X0141254Y0317697D01*
X0141130Y0317800D01*
X0141009Y0317905D01*
X0140890Y0318014D01*
X0140774Y0318125D01*
X0140661Y0318240D01*
X0140551Y0318357D01*
X0140444Y0318477D01*
X0140340Y0318599D01*
X0140239Y0318724D01*
X0140141Y0318852D01*
X0140046Y0318982D01*
X0139954Y0319114D01*
X0139866Y0319248D01*
X0139781Y0319385D01*
X0139699Y0319523D01*
X0139621Y0319664D01*
X0139547Y0319806D01*
X0139476Y0319950D01*
X0139408Y0320096D01*
X0139345Y0320244D01*
X0139284Y0320393D01*
X0139228Y0320544D01*
X0139175Y0320696D01*
X0139126Y0320849D01*
X0139081Y0321003D01*
X0139040Y0321158D01*
X0139002Y0321315D01*
X0138969Y0321472D01*
X0138939Y0321630D01*
X0138913Y0321789D01*
X0138892Y0321948D01*
X0138874Y0322108D01*
X0138860Y0322268D01*
X0138850Y0322429D01*
X0138844Y0322589D01*
X0138842Y0322750D01*
X0116842Y0322750D02*
X0116844Y0322911D01*
X0116850Y0323071D01*
X0116860Y0323232D01*
X0116874Y0323392D01*
X0116892Y0323552D01*
X0116913Y0323711D01*
X0116939Y0323870D01*
X0116969Y0324028D01*
X0117002Y0324185D01*
X0117040Y0324342D01*
X0117081Y0324497D01*
X0117126Y0324651D01*
X0117175Y0324804D01*
X0117228Y0324956D01*
X0117284Y0325107D01*
X0117345Y0325256D01*
X0117408Y0325404D01*
X0117476Y0325550D01*
X0117547Y0325694D01*
X0117621Y0325836D01*
X0117699Y0325977D01*
X0117781Y0326115D01*
X0117866Y0326252D01*
X0117954Y0326386D01*
X0118046Y0326518D01*
X0118141Y0326648D01*
X0118239Y0326776D01*
X0118340Y0326901D01*
X0118444Y0327023D01*
X0118551Y0327143D01*
X0118661Y0327260D01*
X0118774Y0327375D01*
X0118890Y0327486D01*
X0119009Y0327595D01*
X0119130Y0327700D01*
X0119254Y0327803D01*
X0119380Y0327903D01*
X0119508Y0327999D01*
X0119639Y0328092D01*
X0119773Y0328182D01*
X0119908Y0328269D01*
X0120046Y0328352D01*
X0120185Y0328432D01*
X0120327Y0328508D01*
X0120470Y0328581D01*
X0120615Y0328650D01*
X0120762Y0328716D01*
X0120910Y0328778D01*
X0121060Y0328836D01*
X0121211Y0328891D01*
X0121364Y0328942D01*
X0121518Y0328989D01*
X0121673Y0329032D01*
X0121829Y0329071D01*
X0121985Y0329107D01*
X0122143Y0329138D01*
X0122301Y0329166D01*
X0122460Y0329190D01*
X0122620Y0329210D01*
X0122780Y0329226D01*
X0122940Y0329238D01*
X0123101Y0329246D01*
X0123262Y0329250D01*
X0123422Y0329250D01*
X0123583Y0329246D01*
X0123744Y0329238D01*
X0123904Y0329226D01*
X0124064Y0329210D01*
X0124224Y0329190D01*
X0124383Y0329166D01*
X0124541Y0329138D01*
X0124699Y0329107D01*
X0124855Y0329071D01*
X0125011Y0329032D01*
X0125166Y0328989D01*
X0125320Y0328942D01*
X0125473Y0328891D01*
X0125624Y0328836D01*
X0125774Y0328778D01*
X0125922Y0328716D01*
X0126069Y0328650D01*
X0126214Y0328581D01*
X0126357Y0328508D01*
X0126499Y0328432D01*
X0126638Y0328352D01*
X0126776Y0328269D01*
X0126911Y0328182D01*
X0127045Y0328092D01*
X0127176Y0327999D01*
X0127304Y0327903D01*
X0127430Y0327803D01*
X0127554Y0327700D01*
X0127675Y0327595D01*
X0127794Y0327486D01*
X0127910Y0327375D01*
X0128023Y0327260D01*
X0128133Y0327143D01*
X0128240Y0327023D01*
X0128344Y0326901D01*
X0128445Y0326776D01*
X0128543Y0326648D01*
X0128638Y0326518D01*
X0128730Y0326386D01*
X0128818Y0326252D01*
X0128903Y0326115D01*
X0128985Y0325977D01*
X0129063Y0325836D01*
X0129137Y0325694D01*
X0129208Y0325550D01*
X0129276Y0325404D01*
X0129339Y0325256D01*
X0129400Y0325107D01*
X0129456Y0324956D01*
X0129509Y0324804D01*
X0129558Y0324651D01*
X0129603Y0324497D01*
X0129644Y0324342D01*
X0129682Y0324185D01*
X0129715Y0324028D01*
X0129745Y0323870D01*
X0129771Y0323711D01*
X0129792Y0323552D01*
X0129810Y0323392D01*
X0129824Y0323232D01*
X0129834Y0323071D01*
X0129840Y0322911D01*
X0129842Y0322750D01*
X0129840Y0322589D01*
X0129834Y0322429D01*
X0129824Y0322268D01*
X0129810Y0322108D01*
X0129792Y0321948D01*
X0129771Y0321789D01*
X0129745Y0321630D01*
X0129715Y0321472D01*
X0129682Y0321315D01*
X0129644Y0321158D01*
X0129603Y0321003D01*
X0129558Y0320849D01*
X0129509Y0320696D01*
X0129456Y0320544D01*
X0129400Y0320393D01*
X0129339Y0320244D01*
X0129276Y0320096D01*
X0129208Y0319950D01*
X0129137Y0319806D01*
X0129063Y0319664D01*
X0128985Y0319523D01*
X0128903Y0319385D01*
X0128818Y0319248D01*
X0128730Y0319114D01*
X0128638Y0318982D01*
X0128543Y0318852D01*
X0128445Y0318724D01*
X0128344Y0318599D01*
X0128240Y0318477D01*
X0128133Y0318357D01*
X0128023Y0318240D01*
X0127910Y0318125D01*
X0127794Y0318014D01*
X0127675Y0317905D01*
X0127554Y0317800D01*
X0127430Y0317697D01*
X0127304Y0317597D01*
X0127176Y0317501D01*
X0127045Y0317408D01*
X0126911Y0317318D01*
X0126776Y0317231D01*
X0126638Y0317148D01*
X0126499Y0317068D01*
X0126357Y0316992D01*
X0126214Y0316919D01*
X0126069Y0316850D01*
X0125922Y0316784D01*
X0125774Y0316722D01*
X0125624Y0316664D01*
X0125473Y0316609D01*
X0125320Y0316558D01*
X0125166Y0316511D01*
X0125011Y0316468D01*
X0124855Y0316429D01*
X0124699Y0316393D01*
X0124541Y0316362D01*
X0124383Y0316334D01*
X0124224Y0316310D01*
X0124064Y0316290D01*
X0123904Y0316274D01*
X0123744Y0316262D01*
X0123583Y0316254D01*
X0123422Y0316250D01*
X0123262Y0316250D01*
X0123101Y0316254D01*
X0122940Y0316262D01*
X0122780Y0316274D01*
X0122620Y0316290D01*
X0122460Y0316310D01*
X0122301Y0316334D01*
X0122143Y0316362D01*
X0121985Y0316393D01*
X0121829Y0316429D01*
X0121673Y0316468D01*
X0121518Y0316511D01*
X0121364Y0316558D01*
X0121211Y0316609D01*
X0121060Y0316664D01*
X0120910Y0316722D01*
X0120762Y0316784D01*
X0120615Y0316850D01*
X0120470Y0316919D01*
X0120327Y0316992D01*
X0120185Y0317068D01*
X0120046Y0317148D01*
X0119908Y0317231D01*
X0119773Y0317318D01*
X0119639Y0317408D01*
X0119508Y0317501D01*
X0119380Y0317597D01*
X0119254Y0317697D01*
X0119130Y0317800D01*
X0119009Y0317905D01*
X0118890Y0318014D01*
X0118774Y0318125D01*
X0118661Y0318240D01*
X0118551Y0318357D01*
X0118444Y0318477D01*
X0118340Y0318599D01*
X0118239Y0318724D01*
X0118141Y0318852D01*
X0118046Y0318982D01*
X0117954Y0319114D01*
X0117866Y0319248D01*
X0117781Y0319385D01*
X0117699Y0319523D01*
X0117621Y0319664D01*
X0117547Y0319806D01*
X0117476Y0319950D01*
X0117408Y0320096D01*
X0117345Y0320244D01*
X0117284Y0320393D01*
X0117228Y0320544D01*
X0117175Y0320696D01*
X0117126Y0320849D01*
X0117081Y0321003D01*
X0117040Y0321158D01*
X0117002Y0321315D01*
X0116969Y0321472D01*
X0116939Y0321630D01*
X0116913Y0321789D01*
X0116892Y0321948D01*
X0116874Y0322108D01*
X0116860Y0322268D01*
X0116850Y0322429D01*
X0116844Y0322589D01*
X0116842Y0322750D01*
X0036842Y0322750D02*
X0036844Y0322911D01*
X0036850Y0323071D01*
X0036860Y0323232D01*
X0036874Y0323392D01*
X0036892Y0323552D01*
X0036913Y0323711D01*
X0036939Y0323870D01*
X0036969Y0324028D01*
X0037002Y0324185D01*
X0037040Y0324342D01*
X0037081Y0324497D01*
X0037126Y0324651D01*
X0037175Y0324804D01*
X0037228Y0324956D01*
X0037284Y0325107D01*
X0037345Y0325256D01*
X0037408Y0325404D01*
X0037476Y0325550D01*
X0037547Y0325694D01*
X0037621Y0325836D01*
X0037699Y0325977D01*
X0037781Y0326115D01*
X0037866Y0326252D01*
X0037954Y0326386D01*
X0038046Y0326518D01*
X0038141Y0326648D01*
X0038239Y0326776D01*
X0038340Y0326901D01*
X0038444Y0327023D01*
X0038551Y0327143D01*
X0038661Y0327260D01*
X0038774Y0327375D01*
X0038890Y0327486D01*
X0039009Y0327595D01*
X0039130Y0327700D01*
X0039254Y0327803D01*
X0039380Y0327903D01*
X0039508Y0327999D01*
X0039639Y0328092D01*
X0039773Y0328182D01*
X0039908Y0328269D01*
X0040046Y0328352D01*
X0040185Y0328432D01*
X0040327Y0328508D01*
X0040470Y0328581D01*
X0040615Y0328650D01*
X0040762Y0328716D01*
X0040910Y0328778D01*
X0041060Y0328836D01*
X0041211Y0328891D01*
X0041364Y0328942D01*
X0041518Y0328989D01*
X0041673Y0329032D01*
X0041829Y0329071D01*
X0041985Y0329107D01*
X0042143Y0329138D01*
X0042301Y0329166D01*
X0042460Y0329190D01*
X0042620Y0329210D01*
X0042780Y0329226D01*
X0042940Y0329238D01*
X0043101Y0329246D01*
X0043262Y0329250D01*
X0043422Y0329250D01*
X0043583Y0329246D01*
X0043744Y0329238D01*
X0043904Y0329226D01*
X0044064Y0329210D01*
X0044224Y0329190D01*
X0044383Y0329166D01*
X0044541Y0329138D01*
X0044699Y0329107D01*
X0044855Y0329071D01*
X0045011Y0329032D01*
X0045166Y0328989D01*
X0045320Y0328942D01*
X0045473Y0328891D01*
X0045624Y0328836D01*
X0045774Y0328778D01*
X0045922Y0328716D01*
X0046069Y0328650D01*
X0046214Y0328581D01*
X0046357Y0328508D01*
X0046499Y0328432D01*
X0046638Y0328352D01*
X0046776Y0328269D01*
X0046911Y0328182D01*
X0047045Y0328092D01*
X0047176Y0327999D01*
X0047304Y0327903D01*
X0047430Y0327803D01*
X0047554Y0327700D01*
X0047675Y0327595D01*
X0047794Y0327486D01*
X0047910Y0327375D01*
X0048023Y0327260D01*
X0048133Y0327143D01*
X0048240Y0327023D01*
X0048344Y0326901D01*
X0048445Y0326776D01*
X0048543Y0326648D01*
X0048638Y0326518D01*
X0048730Y0326386D01*
X0048818Y0326252D01*
X0048903Y0326115D01*
X0048985Y0325977D01*
X0049063Y0325836D01*
X0049137Y0325694D01*
X0049208Y0325550D01*
X0049276Y0325404D01*
X0049339Y0325256D01*
X0049400Y0325107D01*
X0049456Y0324956D01*
X0049509Y0324804D01*
X0049558Y0324651D01*
X0049603Y0324497D01*
X0049644Y0324342D01*
X0049682Y0324185D01*
X0049715Y0324028D01*
X0049745Y0323870D01*
X0049771Y0323711D01*
X0049792Y0323552D01*
X0049810Y0323392D01*
X0049824Y0323232D01*
X0049834Y0323071D01*
X0049840Y0322911D01*
X0049842Y0322750D01*
X0049840Y0322589D01*
X0049834Y0322429D01*
X0049824Y0322268D01*
X0049810Y0322108D01*
X0049792Y0321948D01*
X0049771Y0321789D01*
X0049745Y0321630D01*
X0049715Y0321472D01*
X0049682Y0321315D01*
X0049644Y0321158D01*
X0049603Y0321003D01*
X0049558Y0320849D01*
X0049509Y0320696D01*
X0049456Y0320544D01*
X0049400Y0320393D01*
X0049339Y0320244D01*
X0049276Y0320096D01*
X0049208Y0319950D01*
X0049137Y0319806D01*
X0049063Y0319664D01*
X0048985Y0319523D01*
X0048903Y0319385D01*
X0048818Y0319248D01*
X0048730Y0319114D01*
X0048638Y0318982D01*
X0048543Y0318852D01*
X0048445Y0318724D01*
X0048344Y0318599D01*
X0048240Y0318477D01*
X0048133Y0318357D01*
X0048023Y0318240D01*
X0047910Y0318125D01*
X0047794Y0318014D01*
X0047675Y0317905D01*
X0047554Y0317800D01*
X0047430Y0317697D01*
X0047304Y0317597D01*
X0047176Y0317501D01*
X0047045Y0317408D01*
X0046911Y0317318D01*
X0046776Y0317231D01*
X0046638Y0317148D01*
X0046499Y0317068D01*
X0046357Y0316992D01*
X0046214Y0316919D01*
X0046069Y0316850D01*
X0045922Y0316784D01*
X0045774Y0316722D01*
X0045624Y0316664D01*
X0045473Y0316609D01*
X0045320Y0316558D01*
X0045166Y0316511D01*
X0045011Y0316468D01*
X0044855Y0316429D01*
X0044699Y0316393D01*
X0044541Y0316362D01*
X0044383Y0316334D01*
X0044224Y0316310D01*
X0044064Y0316290D01*
X0043904Y0316274D01*
X0043744Y0316262D01*
X0043583Y0316254D01*
X0043422Y0316250D01*
X0043262Y0316250D01*
X0043101Y0316254D01*
X0042940Y0316262D01*
X0042780Y0316274D01*
X0042620Y0316290D01*
X0042460Y0316310D01*
X0042301Y0316334D01*
X0042143Y0316362D01*
X0041985Y0316393D01*
X0041829Y0316429D01*
X0041673Y0316468D01*
X0041518Y0316511D01*
X0041364Y0316558D01*
X0041211Y0316609D01*
X0041060Y0316664D01*
X0040910Y0316722D01*
X0040762Y0316784D01*
X0040615Y0316850D01*
X0040470Y0316919D01*
X0040327Y0316992D01*
X0040185Y0317068D01*
X0040046Y0317148D01*
X0039908Y0317231D01*
X0039773Y0317318D01*
X0039639Y0317408D01*
X0039508Y0317501D01*
X0039380Y0317597D01*
X0039254Y0317697D01*
X0039130Y0317800D01*
X0039009Y0317905D01*
X0038890Y0318014D01*
X0038774Y0318125D01*
X0038661Y0318240D01*
X0038551Y0318357D01*
X0038444Y0318477D01*
X0038340Y0318599D01*
X0038239Y0318724D01*
X0038141Y0318852D01*
X0038046Y0318982D01*
X0037954Y0319114D01*
X0037866Y0319248D01*
X0037781Y0319385D01*
X0037699Y0319523D01*
X0037621Y0319664D01*
X0037547Y0319806D01*
X0037476Y0319950D01*
X0037408Y0320096D01*
X0037345Y0320244D01*
X0037284Y0320393D01*
X0037228Y0320544D01*
X0037175Y0320696D01*
X0037126Y0320849D01*
X0037081Y0321003D01*
X0037040Y0321158D01*
X0037002Y0321315D01*
X0036969Y0321472D01*
X0036939Y0321630D01*
X0036913Y0321789D01*
X0036892Y0321948D01*
X0036874Y0322108D01*
X0036860Y0322268D01*
X0036850Y0322429D01*
X0036844Y0322589D01*
X0036842Y0322750D01*
X0036842Y0220750D02*
X0036844Y0220911D01*
X0036850Y0221071D01*
X0036860Y0221232D01*
X0036874Y0221392D01*
X0036892Y0221552D01*
X0036913Y0221711D01*
X0036939Y0221870D01*
X0036969Y0222028D01*
X0037002Y0222185D01*
X0037040Y0222342D01*
X0037081Y0222497D01*
X0037126Y0222651D01*
X0037175Y0222804D01*
X0037228Y0222956D01*
X0037284Y0223107D01*
X0037345Y0223256D01*
X0037408Y0223404D01*
X0037476Y0223550D01*
X0037547Y0223694D01*
X0037621Y0223836D01*
X0037699Y0223977D01*
X0037781Y0224115D01*
X0037866Y0224252D01*
X0037954Y0224386D01*
X0038046Y0224518D01*
X0038141Y0224648D01*
X0038239Y0224776D01*
X0038340Y0224901D01*
X0038444Y0225023D01*
X0038551Y0225143D01*
X0038661Y0225260D01*
X0038774Y0225375D01*
X0038890Y0225486D01*
X0039009Y0225595D01*
X0039130Y0225700D01*
X0039254Y0225803D01*
X0039380Y0225903D01*
X0039508Y0225999D01*
X0039639Y0226092D01*
X0039773Y0226182D01*
X0039908Y0226269D01*
X0040046Y0226352D01*
X0040185Y0226432D01*
X0040327Y0226508D01*
X0040470Y0226581D01*
X0040615Y0226650D01*
X0040762Y0226716D01*
X0040910Y0226778D01*
X0041060Y0226836D01*
X0041211Y0226891D01*
X0041364Y0226942D01*
X0041518Y0226989D01*
X0041673Y0227032D01*
X0041829Y0227071D01*
X0041985Y0227107D01*
X0042143Y0227138D01*
X0042301Y0227166D01*
X0042460Y0227190D01*
X0042620Y0227210D01*
X0042780Y0227226D01*
X0042940Y0227238D01*
X0043101Y0227246D01*
X0043262Y0227250D01*
X0043422Y0227250D01*
X0043583Y0227246D01*
X0043744Y0227238D01*
X0043904Y0227226D01*
X0044064Y0227210D01*
X0044224Y0227190D01*
X0044383Y0227166D01*
X0044541Y0227138D01*
X0044699Y0227107D01*
X0044855Y0227071D01*
X0045011Y0227032D01*
X0045166Y0226989D01*
X0045320Y0226942D01*
X0045473Y0226891D01*
X0045624Y0226836D01*
X0045774Y0226778D01*
X0045922Y0226716D01*
X0046069Y0226650D01*
X0046214Y0226581D01*
X0046357Y0226508D01*
X0046499Y0226432D01*
X0046638Y0226352D01*
X0046776Y0226269D01*
X0046911Y0226182D01*
X0047045Y0226092D01*
X0047176Y0225999D01*
X0047304Y0225903D01*
X0047430Y0225803D01*
X0047554Y0225700D01*
X0047675Y0225595D01*
X0047794Y0225486D01*
X0047910Y0225375D01*
X0048023Y0225260D01*
X0048133Y0225143D01*
X0048240Y0225023D01*
X0048344Y0224901D01*
X0048445Y0224776D01*
X0048543Y0224648D01*
X0048638Y0224518D01*
X0048730Y0224386D01*
X0048818Y0224252D01*
X0048903Y0224115D01*
X0048985Y0223977D01*
X0049063Y0223836D01*
X0049137Y0223694D01*
X0049208Y0223550D01*
X0049276Y0223404D01*
X0049339Y0223256D01*
X0049400Y0223107D01*
X0049456Y0222956D01*
X0049509Y0222804D01*
X0049558Y0222651D01*
X0049603Y0222497D01*
X0049644Y0222342D01*
X0049682Y0222185D01*
X0049715Y0222028D01*
X0049745Y0221870D01*
X0049771Y0221711D01*
X0049792Y0221552D01*
X0049810Y0221392D01*
X0049824Y0221232D01*
X0049834Y0221071D01*
X0049840Y0220911D01*
X0049842Y0220750D01*
X0049840Y0220589D01*
X0049834Y0220429D01*
X0049824Y0220268D01*
X0049810Y0220108D01*
X0049792Y0219948D01*
X0049771Y0219789D01*
X0049745Y0219630D01*
X0049715Y0219472D01*
X0049682Y0219315D01*
X0049644Y0219158D01*
X0049603Y0219003D01*
X0049558Y0218849D01*
X0049509Y0218696D01*
X0049456Y0218544D01*
X0049400Y0218393D01*
X0049339Y0218244D01*
X0049276Y0218096D01*
X0049208Y0217950D01*
X0049137Y0217806D01*
X0049063Y0217664D01*
X0048985Y0217523D01*
X0048903Y0217385D01*
X0048818Y0217248D01*
X0048730Y0217114D01*
X0048638Y0216982D01*
X0048543Y0216852D01*
X0048445Y0216724D01*
X0048344Y0216599D01*
X0048240Y0216477D01*
X0048133Y0216357D01*
X0048023Y0216240D01*
X0047910Y0216125D01*
X0047794Y0216014D01*
X0047675Y0215905D01*
X0047554Y0215800D01*
X0047430Y0215697D01*
X0047304Y0215597D01*
X0047176Y0215501D01*
X0047045Y0215408D01*
X0046911Y0215318D01*
X0046776Y0215231D01*
X0046638Y0215148D01*
X0046499Y0215068D01*
X0046357Y0214992D01*
X0046214Y0214919D01*
X0046069Y0214850D01*
X0045922Y0214784D01*
X0045774Y0214722D01*
X0045624Y0214664D01*
X0045473Y0214609D01*
X0045320Y0214558D01*
X0045166Y0214511D01*
X0045011Y0214468D01*
X0044855Y0214429D01*
X0044699Y0214393D01*
X0044541Y0214362D01*
X0044383Y0214334D01*
X0044224Y0214310D01*
X0044064Y0214290D01*
X0043904Y0214274D01*
X0043744Y0214262D01*
X0043583Y0214254D01*
X0043422Y0214250D01*
X0043262Y0214250D01*
X0043101Y0214254D01*
X0042940Y0214262D01*
X0042780Y0214274D01*
X0042620Y0214290D01*
X0042460Y0214310D01*
X0042301Y0214334D01*
X0042143Y0214362D01*
X0041985Y0214393D01*
X0041829Y0214429D01*
X0041673Y0214468D01*
X0041518Y0214511D01*
X0041364Y0214558D01*
X0041211Y0214609D01*
X0041060Y0214664D01*
X0040910Y0214722D01*
X0040762Y0214784D01*
X0040615Y0214850D01*
X0040470Y0214919D01*
X0040327Y0214992D01*
X0040185Y0215068D01*
X0040046Y0215148D01*
X0039908Y0215231D01*
X0039773Y0215318D01*
X0039639Y0215408D01*
X0039508Y0215501D01*
X0039380Y0215597D01*
X0039254Y0215697D01*
X0039130Y0215800D01*
X0039009Y0215905D01*
X0038890Y0216014D01*
X0038774Y0216125D01*
X0038661Y0216240D01*
X0038551Y0216357D01*
X0038444Y0216477D01*
X0038340Y0216599D01*
X0038239Y0216724D01*
X0038141Y0216852D01*
X0038046Y0216982D01*
X0037954Y0217114D01*
X0037866Y0217248D01*
X0037781Y0217385D01*
X0037699Y0217523D01*
X0037621Y0217664D01*
X0037547Y0217806D01*
X0037476Y0217950D01*
X0037408Y0218096D01*
X0037345Y0218244D01*
X0037284Y0218393D01*
X0037228Y0218544D01*
X0037175Y0218696D01*
X0037126Y0218849D01*
X0037081Y0219003D01*
X0037040Y0219158D01*
X0037002Y0219315D01*
X0036969Y0219472D01*
X0036939Y0219630D01*
X0036913Y0219789D01*
X0036892Y0219948D01*
X0036874Y0220108D01*
X0036860Y0220268D01*
X0036850Y0220429D01*
X0036844Y0220589D01*
X0036842Y0220750D01*
X0116842Y0220750D02*
X0116844Y0220911D01*
X0116850Y0221071D01*
X0116860Y0221232D01*
X0116874Y0221392D01*
X0116892Y0221552D01*
X0116913Y0221711D01*
X0116939Y0221870D01*
X0116969Y0222028D01*
X0117002Y0222185D01*
X0117040Y0222342D01*
X0117081Y0222497D01*
X0117126Y0222651D01*
X0117175Y0222804D01*
X0117228Y0222956D01*
X0117284Y0223107D01*
X0117345Y0223256D01*
X0117408Y0223404D01*
X0117476Y0223550D01*
X0117547Y0223694D01*
X0117621Y0223836D01*
X0117699Y0223977D01*
X0117781Y0224115D01*
X0117866Y0224252D01*
X0117954Y0224386D01*
X0118046Y0224518D01*
X0118141Y0224648D01*
X0118239Y0224776D01*
X0118340Y0224901D01*
X0118444Y0225023D01*
X0118551Y0225143D01*
X0118661Y0225260D01*
X0118774Y0225375D01*
X0118890Y0225486D01*
X0119009Y0225595D01*
X0119130Y0225700D01*
X0119254Y0225803D01*
X0119380Y0225903D01*
X0119508Y0225999D01*
X0119639Y0226092D01*
X0119773Y0226182D01*
X0119908Y0226269D01*
X0120046Y0226352D01*
X0120185Y0226432D01*
X0120327Y0226508D01*
X0120470Y0226581D01*
X0120615Y0226650D01*
X0120762Y0226716D01*
X0120910Y0226778D01*
X0121060Y0226836D01*
X0121211Y0226891D01*
X0121364Y0226942D01*
X0121518Y0226989D01*
X0121673Y0227032D01*
X0121829Y0227071D01*
X0121985Y0227107D01*
X0122143Y0227138D01*
X0122301Y0227166D01*
X0122460Y0227190D01*
X0122620Y0227210D01*
X0122780Y0227226D01*
X0122940Y0227238D01*
X0123101Y0227246D01*
X0123262Y0227250D01*
X0123422Y0227250D01*
X0123583Y0227246D01*
X0123744Y0227238D01*
X0123904Y0227226D01*
X0124064Y0227210D01*
X0124224Y0227190D01*
X0124383Y0227166D01*
X0124541Y0227138D01*
X0124699Y0227107D01*
X0124855Y0227071D01*
X0125011Y0227032D01*
X0125166Y0226989D01*
X0125320Y0226942D01*
X0125473Y0226891D01*
X0125624Y0226836D01*
X0125774Y0226778D01*
X0125922Y0226716D01*
X0126069Y0226650D01*
X0126214Y0226581D01*
X0126357Y0226508D01*
X0126499Y0226432D01*
X0126638Y0226352D01*
X0126776Y0226269D01*
X0126911Y0226182D01*
X0127045Y0226092D01*
X0127176Y0225999D01*
X0127304Y0225903D01*
X0127430Y0225803D01*
X0127554Y0225700D01*
X0127675Y0225595D01*
X0127794Y0225486D01*
X0127910Y0225375D01*
X0128023Y0225260D01*
X0128133Y0225143D01*
X0128240Y0225023D01*
X0128344Y0224901D01*
X0128445Y0224776D01*
X0128543Y0224648D01*
X0128638Y0224518D01*
X0128730Y0224386D01*
X0128818Y0224252D01*
X0128903Y0224115D01*
X0128985Y0223977D01*
X0129063Y0223836D01*
X0129137Y0223694D01*
X0129208Y0223550D01*
X0129276Y0223404D01*
X0129339Y0223256D01*
X0129400Y0223107D01*
X0129456Y0222956D01*
X0129509Y0222804D01*
X0129558Y0222651D01*
X0129603Y0222497D01*
X0129644Y0222342D01*
X0129682Y0222185D01*
X0129715Y0222028D01*
X0129745Y0221870D01*
X0129771Y0221711D01*
X0129792Y0221552D01*
X0129810Y0221392D01*
X0129824Y0221232D01*
X0129834Y0221071D01*
X0129840Y0220911D01*
X0129842Y0220750D01*
X0129840Y0220589D01*
X0129834Y0220429D01*
X0129824Y0220268D01*
X0129810Y0220108D01*
X0129792Y0219948D01*
X0129771Y0219789D01*
X0129745Y0219630D01*
X0129715Y0219472D01*
X0129682Y0219315D01*
X0129644Y0219158D01*
X0129603Y0219003D01*
X0129558Y0218849D01*
X0129509Y0218696D01*
X0129456Y0218544D01*
X0129400Y0218393D01*
X0129339Y0218244D01*
X0129276Y0218096D01*
X0129208Y0217950D01*
X0129137Y0217806D01*
X0129063Y0217664D01*
X0128985Y0217523D01*
X0128903Y0217385D01*
X0128818Y0217248D01*
X0128730Y0217114D01*
X0128638Y0216982D01*
X0128543Y0216852D01*
X0128445Y0216724D01*
X0128344Y0216599D01*
X0128240Y0216477D01*
X0128133Y0216357D01*
X0128023Y0216240D01*
X0127910Y0216125D01*
X0127794Y0216014D01*
X0127675Y0215905D01*
X0127554Y0215800D01*
X0127430Y0215697D01*
X0127304Y0215597D01*
X0127176Y0215501D01*
X0127045Y0215408D01*
X0126911Y0215318D01*
X0126776Y0215231D01*
X0126638Y0215148D01*
X0126499Y0215068D01*
X0126357Y0214992D01*
X0126214Y0214919D01*
X0126069Y0214850D01*
X0125922Y0214784D01*
X0125774Y0214722D01*
X0125624Y0214664D01*
X0125473Y0214609D01*
X0125320Y0214558D01*
X0125166Y0214511D01*
X0125011Y0214468D01*
X0124855Y0214429D01*
X0124699Y0214393D01*
X0124541Y0214362D01*
X0124383Y0214334D01*
X0124224Y0214310D01*
X0124064Y0214290D01*
X0123904Y0214274D01*
X0123744Y0214262D01*
X0123583Y0214254D01*
X0123422Y0214250D01*
X0123262Y0214250D01*
X0123101Y0214254D01*
X0122940Y0214262D01*
X0122780Y0214274D01*
X0122620Y0214290D01*
X0122460Y0214310D01*
X0122301Y0214334D01*
X0122143Y0214362D01*
X0121985Y0214393D01*
X0121829Y0214429D01*
X0121673Y0214468D01*
X0121518Y0214511D01*
X0121364Y0214558D01*
X0121211Y0214609D01*
X0121060Y0214664D01*
X0120910Y0214722D01*
X0120762Y0214784D01*
X0120615Y0214850D01*
X0120470Y0214919D01*
X0120327Y0214992D01*
X0120185Y0215068D01*
X0120046Y0215148D01*
X0119908Y0215231D01*
X0119773Y0215318D01*
X0119639Y0215408D01*
X0119508Y0215501D01*
X0119380Y0215597D01*
X0119254Y0215697D01*
X0119130Y0215800D01*
X0119009Y0215905D01*
X0118890Y0216014D01*
X0118774Y0216125D01*
X0118661Y0216240D01*
X0118551Y0216357D01*
X0118444Y0216477D01*
X0118340Y0216599D01*
X0118239Y0216724D01*
X0118141Y0216852D01*
X0118046Y0216982D01*
X0117954Y0217114D01*
X0117866Y0217248D01*
X0117781Y0217385D01*
X0117699Y0217523D01*
X0117621Y0217664D01*
X0117547Y0217806D01*
X0117476Y0217950D01*
X0117408Y0218096D01*
X0117345Y0218244D01*
X0117284Y0218393D01*
X0117228Y0218544D01*
X0117175Y0218696D01*
X0117126Y0218849D01*
X0117081Y0219003D01*
X0117040Y0219158D01*
X0117002Y0219315D01*
X0116969Y0219472D01*
X0116939Y0219630D01*
X0116913Y0219789D01*
X0116892Y0219948D01*
X0116874Y0220108D01*
X0116860Y0220268D01*
X0116850Y0220429D01*
X0116844Y0220589D01*
X0116842Y0220750D01*
X0138842Y0220750D02*
X0138844Y0220911D01*
X0138850Y0221071D01*
X0138860Y0221232D01*
X0138874Y0221392D01*
X0138892Y0221552D01*
X0138913Y0221711D01*
X0138939Y0221870D01*
X0138969Y0222028D01*
X0139002Y0222185D01*
X0139040Y0222342D01*
X0139081Y0222497D01*
X0139126Y0222651D01*
X0139175Y0222804D01*
X0139228Y0222956D01*
X0139284Y0223107D01*
X0139345Y0223256D01*
X0139408Y0223404D01*
X0139476Y0223550D01*
X0139547Y0223694D01*
X0139621Y0223836D01*
X0139699Y0223977D01*
X0139781Y0224115D01*
X0139866Y0224252D01*
X0139954Y0224386D01*
X0140046Y0224518D01*
X0140141Y0224648D01*
X0140239Y0224776D01*
X0140340Y0224901D01*
X0140444Y0225023D01*
X0140551Y0225143D01*
X0140661Y0225260D01*
X0140774Y0225375D01*
X0140890Y0225486D01*
X0141009Y0225595D01*
X0141130Y0225700D01*
X0141254Y0225803D01*
X0141380Y0225903D01*
X0141508Y0225999D01*
X0141639Y0226092D01*
X0141773Y0226182D01*
X0141908Y0226269D01*
X0142046Y0226352D01*
X0142185Y0226432D01*
X0142327Y0226508D01*
X0142470Y0226581D01*
X0142615Y0226650D01*
X0142762Y0226716D01*
X0142910Y0226778D01*
X0143060Y0226836D01*
X0143211Y0226891D01*
X0143364Y0226942D01*
X0143518Y0226989D01*
X0143673Y0227032D01*
X0143829Y0227071D01*
X0143985Y0227107D01*
X0144143Y0227138D01*
X0144301Y0227166D01*
X0144460Y0227190D01*
X0144620Y0227210D01*
X0144780Y0227226D01*
X0144940Y0227238D01*
X0145101Y0227246D01*
X0145262Y0227250D01*
X0145422Y0227250D01*
X0145583Y0227246D01*
X0145744Y0227238D01*
X0145904Y0227226D01*
X0146064Y0227210D01*
X0146224Y0227190D01*
X0146383Y0227166D01*
X0146541Y0227138D01*
X0146699Y0227107D01*
X0146855Y0227071D01*
X0147011Y0227032D01*
X0147166Y0226989D01*
X0147320Y0226942D01*
X0147473Y0226891D01*
X0147624Y0226836D01*
X0147774Y0226778D01*
X0147922Y0226716D01*
X0148069Y0226650D01*
X0148214Y0226581D01*
X0148357Y0226508D01*
X0148499Y0226432D01*
X0148638Y0226352D01*
X0148776Y0226269D01*
X0148911Y0226182D01*
X0149045Y0226092D01*
X0149176Y0225999D01*
X0149304Y0225903D01*
X0149430Y0225803D01*
X0149554Y0225700D01*
X0149675Y0225595D01*
X0149794Y0225486D01*
X0149910Y0225375D01*
X0150023Y0225260D01*
X0150133Y0225143D01*
X0150240Y0225023D01*
X0150344Y0224901D01*
X0150445Y0224776D01*
X0150543Y0224648D01*
X0150638Y0224518D01*
X0150730Y0224386D01*
X0150818Y0224252D01*
X0150903Y0224115D01*
X0150985Y0223977D01*
X0151063Y0223836D01*
X0151137Y0223694D01*
X0151208Y0223550D01*
X0151276Y0223404D01*
X0151339Y0223256D01*
X0151400Y0223107D01*
X0151456Y0222956D01*
X0151509Y0222804D01*
X0151558Y0222651D01*
X0151603Y0222497D01*
X0151644Y0222342D01*
X0151682Y0222185D01*
X0151715Y0222028D01*
X0151745Y0221870D01*
X0151771Y0221711D01*
X0151792Y0221552D01*
X0151810Y0221392D01*
X0151824Y0221232D01*
X0151834Y0221071D01*
X0151840Y0220911D01*
X0151842Y0220750D01*
X0151840Y0220589D01*
X0151834Y0220429D01*
X0151824Y0220268D01*
X0151810Y0220108D01*
X0151792Y0219948D01*
X0151771Y0219789D01*
X0151745Y0219630D01*
X0151715Y0219472D01*
X0151682Y0219315D01*
X0151644Y0219158D01*
X0151603Y0219003D01*
X0151558Y0218849D01*
X0151509Y0218696D01*
X0151456Y0218544D01*
X0151400Y0218393D01*
X0151339Y0218244D01*
X0151276Y0218096D01*
X0151208Y0217950D01*
X0151137Y0217806D01*
X0151063Y0217664D01*
X0150985Y0217523D01*
X0150903Y0217385D01*
X0150818Y0217248D01*
X0150730Y0217114D01*
X0150638Y0216982D01*
X0150543Y0216852D01*
X0150445Y0216724D01*
X0150344Y0216599D01*
X0150240Y0216477D01*
X0150133Y0216357D01*
X0150023Y0216240D01*
X0149910Y0216125D01*
X0149794Y0216014D01*
X0149675Y0215905D01*
X0149554Y0215800D01*
X0149430Y0215697D01*
X0149304Y0215597D01*
X0149176Y0215501D01*
X0149045Y0215408D01*
X0148911Y0215318D01*
X0148776Y0215231D01*
X0148638Y0215148D01*
X0148499Y0215068D01*
X0148357Y0214992D01*
X0148214Y0214919D01*
X0148069Y0214850D01*
X0147922Y0214784D01*
X0147774Y0214722D01*
X0147624Y0214664D01*
X0147473Y0214609D01*
X0147320Y0214558D01*
X0147166Y0214511D01*
X0147011Y0214468D01*
X0146855Y0214429D01*
X0146699Y0214393D01*
X0146541Y0214362D01*
X0146383Y0214334D01*
X0146224Y0214310D01*
X0146064Y0214290D01*
X0145904Y0214274D01*
X0145744Y0214262D01*
X0145583Y0214254D01*
X0145422Y0214250D01*
X0145262Y0214250D01*
X0145101Y0214254D01*
X0144940Y0214262D01*
X0144780Y0214274D01*
X0144620Y0214290D01*
X0144460Y0214310D01*
X0144301Y0214334D01*
X0144143Y0214362D01*
X0143985Y0214393D01*
X0143829Y0214429D01*
X0143673Y0214468D01*
X0143518Y0214511D01*
X0143364Y0214558D01*
X0143211Y0214609D01*
X0143060Y0214664D01*
X0142910Y0214722D01*
X0142762Y0214784D01*
X0142615Y0214850D01*
X0142470Y0214919D01*
X0142327Y0214992D01*
X0142185Y0215068D01*
X0142046Y0215148D01*
X0141908Y0215231D01*
X0141773Y0215318D01*
X0141639Y0215408D01*
X0141508Y0215501D01*
X0141380Y0215597D01*
X0141254Y0215697D01*
X0141130Y0215800D01*
X0141009Y0215905D01*
X0140890Y0216014D01*
X0140774Y0216125D01*
X0140661Y0216240D01*
X0140551Y0216357D01*
X0140444Y0216477D01*
X0140340Y0216599D01*
X0140239Y0216724D01*
X0140141Y0216852D01*
X0140046Y0216982D01*
X0139954Y0217114D01*
X0139866Y0217248D01*
X0139781Y0217385D01*
X0139699Y0217523D01*
X0139621Y0217664D01*
X0139547Y0217806D01*
X0139476Y0217950D01*
X0139408Y0218096D01*
X0139345Y0218244D01*
X0139284Y0218393D01*
X0139228Y0218544D01*
X0139175Y0218696D01*
X0139126Y0218849D01*
X0139081Y0219003D01*
X0139040Y0219158D01*
X0139002Y0219315D01*
X0138969Y0219472D01*
X0138939Y0219630D01*
X0138913Y0219789D01*
X0138892Y0219948D01*
X0138874Y0220108D01*
X0138860Y0220268D01*
X0138850Y0220429D01*
X0138844Y0220589D01*
X0138842Y0220750D01*
X0218842Y0220750D02*
X0218844Y0220911D01*
X0218850Y0221071D01*
X0218860Y0221232D01*
X0218874Y0221392D01*
X0218892Y0221552D01*
X0218913Y0221711D01*
X0218939Y0221870D01*
X0218969Y0222028D01*
X0219002Y0222185D01*
X0219040Y0222342D01*
X0219081Y0222497D01*
X0219126Y0222651D01*
X0219175Y0222804D01*
X0219228Y0222956D01*
X0219284Y0223107D01*
X0219345Y0223256D01*
X0219408Y0223404D01*
X0219476Y0223550D01*
X0219547Y0223694D01*
X0219621Y0223836D01*
X0219699Y0223977D01*
X0219781Y0224115D01*
X0219866Y0224252D01*
X0219954Y0224386D01*
X0220046Y0224518D01*
X0220141Y0224648D01*
X0220239Y0224776D01*
X0220340Y0224901D01*
X0220444Y0225023D01*
X0220551Y0225143D01*
X0220661Y0225260D01*
X0220774Y0225375D01*
X0220890Y0225486D01*
X0221009Y0225595D01*
X0221130Y0225700D01*
X0221254Y0225803D01*
X0221380Y0225903D01*
X0221508Y0225999D01*
X0221639Y0226092D01*
X0221773Y0226182D01*
X0221908Y0226269D01*
X0222046Y0226352D01*
X0222185Y0226432D01*
X0222327Y0226508D01*
X0222470Y0226581D01*
X0222615Y0226650D01*
X0222762Y0226716D01*
X0222910Y0226778D01*
X0223060Y0226836D01*
X0223211Y0226891D01*
X0223364Y0226942D01*
X0223518Y0226989D01*
X0223673Y0227032D01*
X0223829Y0227071D01*
X0223985Y0227107D01*
X0224143Y0227138D01*
X0224301Y0227166D01*
X0224460Y0227190D01*
X0224620Y0227210D01*
X0224780Y0227226D01*
X0224940Y0227238D01*
X0225101Y0227246D01*
X0225262Y0227250D01*
X0225422Y0227250D01*
X0225583Y0227246D01*
X0225744Y0227238D01*
X0225904Y0227226D01*
X0226064Y0227210D01*
X0226224Y0227190D01*
X0226383Y0227166D01*
X0226541Y0227138D01*
X0226699Y0227107D01*
X0226855Y0227071D01*
X0227011Y0227032D01*
X0227166Y0226989D01*
X0227320Y0226942D01*
X0227473Y0226891D01*
X0227624Y0226836D01*
X0227774Y0226778D01*
X0227922Y0226716D01*
X0228069Y0226650D01*
X0228214Y0226581D01*
X0228357Y0226508D01*
X0228499Y0226432D01*
X0228638Y0226352D01*
X0228776Y0226269D01*
X0228911Y0226182D01*
X0229045Y0226092D01*
X0229176Y0225999D01*
X0229304Y0225903D01*
X0229430Y0225803D01*
X0229554Y0225700D01*
X0229675Y0225595D01*
X0229794Y0225486D01*
X0229910Y0225375D01*
X0230023Y0225260D01*
X0230133Y0225143D01*
X0230240Y0225023D01*
X0230344Y0224901D01*
X0230445Y0224776D01*
X0230543Y0224648D01*
X0230638Y0224518D01*
X0230730Y0224386D01*
X0230818Y0224252D01*
X0230903Y0224115D01*
X0230985Y0223977D01*
X0231063Y0223836D01*
X0231137Y0223694D01*
X0231208Y0223550D01*
X0231276Y0223404D01*
X0231339Y0223256D01*
X0231400Y0223107D01*
X0231456Y0222956D01*
X0231509Y0222804D01*
X0231558Y0222651D01*
X0231603Y0222497D01*
X0231644Y0222342D01*
X0231682Y0222185D01*
X0231715Y0222028D01*
X0231745Y0221870D01*
X0231771Y0221711D01*
X0231792Y0221552D01*
X0231810Y0221392D01*
X0231824Y0221232D01*
X0231834Y0221071D01*
X0231840Y0220911D01*
X0231842Y0220750D01*
X0231840Y0220589D01*
X0231834Y0220429D01*
X0231824Y0220268D01*
X0231810Y0220108D01*
X0231792Y0219948D01*
X0231771Y0219789D01*
X0231745Y0219630D01*
X0231715Y0219472D01*
X0231682Y0219315D01*
X0231644Y0219158D01*
X0231603Y0219003D01*
X0231558Y0218849D01*
X0231509Y0218696D01*
X0231456Y0218544D01*
X0231400Y0218393D01*
X0231339Y0218244D01*
X0231276Y0218096D01*
X0231208Y0217950D01*
X0231137Y0217806D01*
X0231063Y0217664D01*
X0230985Y0217523D01*
X0230903Y0217385D01*
X0230818Y0217248D01*
X0230730Y0217114D01*
X0230638Y0216982D01*
X0230543Y0216852D01*
X0230445Y0216724D01*
X0230344Y0216599D01*
X0230240Y0216477D01*
X0230133Y0216357D01*
X0230023Y0216240D01*
X0229910Y0216125D01*
X0229794Y0216014D01*
X0229675Y0215905D01*
X0229554Y0215800D01*
X0229430Y0215697D01*
X0229304Y0215597D01*
X0229176Y0215501D01*
X0229045Y0215408D01*
X0228911Y0215318D01*
X0228776Y0215231D01*
X0228638Y0215148D01*
X0228499Y0215068D01*
X0228357Y0214992D01*
X0228214Y0214919D01*
X0228069Y0214850D01*
X0227922Y0214784D01*
X0227774Y0214722D01*
X0227624Y0214664D01*
X0227473Y0214609D01*
X0227320Y0214558D01*
X0227166Y0214511D01*
X0227011Y0214468D01*
X0226855Y0214429D01*
X0226699Y0214393D01*
X0226541Y0214362D01*
X0226383Y0214334D01*
X0226224Y0214310D01*
X0226064Y0214290D01*
X0225904Y0214274D01*
X0225744Y0214262D01*
X0225583Y0214254D01*
X0225422Y0214250D01*
X0225262Y0214250D01*
X0225101Y0214254D01*
X0224940Y0214262D01*
X0224780Y0214274D01*
X0224620Y0214290D01*
X0224460Y0214310D01*
X0224301Y0214334D01*
X0224143Y0214362D01*
X0223985Y0214393D01*
X0223829Y0214429D01*
X0223673Y0214468D01*
X0223518Y0214511D01*
X0223364Y0214558D01*
X0223211Y0214609D01*
X0223060Y0214664D01*
X0222910Y0214722D01*
X0222762Y0214784D01*
X0222615Y0214850D01*
X0222470Y0214919D01*
X0222327Y0214992D01*
X0222185Y0215068D01*
X0222046Y0215148D01*
X0221908Y0215231D01*
X0221773Y0215318D01*
X0221639Y0215408D01*
X0221508Y0215501D01*
X0221380Y0215597D01*
X0221254Y0215697D01*
X0221130Y0215800D01*
X0221009Y0215905D01*
X0220890Y0216014D01*
X0220774Y0216125D01*
X0220661Y0216240D01*
X0220551Y0216357D01*
X0220444Y0216477D01*
X0220340Y0216599D01*
X0220239Y0216724D01*
X0220141Y0216852D01*
X0220046Y0216982D01*
X0219954Y0217114D01*
X0219866Y0217248D01*
X0219781Y0217385D01*
X0219699Y0217523D01*
X0219621Y0217664D01*
X0219547Y0217806D01*
X0219476Y0217950D01*
X0219408Y0218096D01*
X0219345Y0218244D01*
X0219284Y0218393D01*
X0219228Y0218544D01*
X0219175Y0218696D01*
X0219126Y0218849D01*
X0219081Y0219003D01*
X0219040Y0219158D01*
X0219002Y0219315D01*
X0218969Y0219472D01*
X0218939Y0219630D01*
X0218913Y0219789D01*
X0218892Y0219948D01*
X0218874Y0220108D01*
X0218860Y0220268D01*
X0218850Y0220429D01*
X0218844Y0220589D01*
X0218842Y0220750D01*
X0240842Y0220750D02*
X0240844Y0220911D01*
X0240850Y0221071D01*
X0240860Y0221232D01*
X0240874Y0221392D01*
X0240892Y0221552D01*
X0240913Y0221711D01*
X0240939Y0221870D01*
X0240969Y0222028D01*
X0241002Y0222185D01*
X0241040Y0222342D01*
X0241081Y0222497D01*
X0241126Y0222651D01*
X0241175Y0222804D01*
X0241228Y0222956D01*
X0241284Y0223107D01*
X0241345Y0223256D01*
X0241408Y0223404D01*
X0241476Y0223550D01*
X0241547Y0223694D01*
X0241621Y0223836D01*
X0241699Y0223977D01*
X0241781Y0224115D01*
X0241866Y0224252D01*
X0241954Y0224386D01*
X0242046Y0224518D01*
X0242141Y0224648D01*
X0242239Y0224776D01*
X0242340Y0224901D01*
X0242444Y0225023D01*
X0242551Y0225143D01*
X0242661Y0225260D01*
X0242774Y0225375D01*
X0242890Y0225486D01*
X0243009Y0225595D01*
X0243130Y0225700D01*
X0243254Y0225803D01*
X0243380Y0225903D01*
X0243508Y0225999D01*
X0243639Y0226092D01*
X0243773Y0226182D01*
X0243908Y0226269D01*
X0244046Y0226352D01*
X0244185Y0226432D01*
X0244327Y0226508D01*
X0244470Y0226581D01*
X0244615Y0226650D01*
X0244762Y0226716D01*
X0244910Y0226778D01*
X0245060Y0226836D01*
X0245211Y0226891D01*
X0245364Y0226942D01*
X0245518Y0226989D01*
X0245673Y0227032D01*
X0245829Y0227071D01*
X0245985Y0227107D01*
X0246143Y0227138D01*
X0246301Y0227166D01*
X0246460Y0227190D01*
X0246620Y0227210D01*
X0246780Y0227226D01*
X0246940Y0227238D01*
X0247101Y0227246D01*
X0247262Y0227250D01*
X0247422Y0227250D01*
X0247583Y0227246D01*
X0247744Y0227238D01*
X0247904Y0227226D01*
X0248064Y0227210D01*
X0248224Y0227190D01*
X0248383Y0227166D01*
X0248541Y0227138D01*
X0248699Y0227107D01*
X0248855Y0227071D01*
X0249011Y0227032D01*
X0249166Y0226989D01*
X0249320Y0226942D01*
X0249473Y0226891D01*
X0249624Y0226836D01*
X0249774Y0226778D01*
X0249922Y0226716D01*
X0250069Y0226650D01*
X0250214Y0226581D01*
X0250357Y0226508D01*
X0250499Y0226432D01*
X0250638Y0226352D01*
X0250776Y0226269D01*
X0250911Y0226182D01*
X0251045Y0226092D01*
X0251176Y0225999D01*
X0251304Y0225903D01*
X0251430Y0225803D01*
X0251554Y0225700D01*
X0251675Y0225595D01*
X0251794Y0225486D01*
X0251910Y0225375D01*
X0252023Y0225260D01*
X0252133Y0225143D01*
X0252240Y0225023D01*
X0252344Y0224901D01*
X0252445Y0224776D01*
X0252543Y0224648D01*
X0252638Y0224518D01*
X0252730Y0224386D01*
X0252818Y0224252D01*
X0252903Y0224115D01*
X0252985Y0223977D01*
X0253063Y0223836D01*
X0253137Y0223694D01*
X0253208Y0223550D01*
X0253276Y0223404D01*
X0253339Y0223256D01*
X0253400Y0223107D01*
X0253456Y0222956D01*
X0253509Y0222804D01*
X0253558Y0222651D01*
X0253603Y0222497D01*
X0253644Y0222342D01*
X0253682Y0222185D01*
X0253715Y0222028D01*
X0253745Y0221870D01*
X0253771Y0221711D01*
X0253792Y0221552D01*
X0253810Y0221392D01*
X0253824Y0221232D01*
X0253834Y0221071D01*
X0253840Y0220911D01*
X0253842Y0220750D01*
X0253840Y0220589D01*
X0253834Y0220429D01*
X0253824Y0220268D01*
X0253810Y0220108D01*
X0253792Y0219948D01*
X0253771Y0219789D01*
X0253745Y0219630D01*
X0253715Y0219472D01*
X0253682Y0219315D01*
X0253644Y0219158D01*
X0253603Y0219003D01*
X0253558Y0218849D01*
X0253509Y0218696D01*
X0253456Y0218544D01*
X0253400Y0218393D01*
X0253339Y0218244D01*
X0253276Y0218096D01*
X0253208Y0217950D01*
X0253137Y0217806D01*
X0253063Y0217664D01*
X0252985Y0217523D01*
X0252903Y0217385D01*
X0252818Y0217248D01*
X0252730Y0217114D01*
X0252638Y0216982D01*
X0252543Y0216852D01*
X0252445Y0216724D01*
X0252344Y0216599D01*
X0252240Y0216477D01*
X0252133Y0216357D01*
X0252023Y0216240D01*
X0251910Y0216125D01*
X0251794Y0216014D01*
X0251675Y0215905D01*
X0251554Y0215800D01*
X0251430Y0215697D01*
X0251304Y0215597D01*
X0251176Y0215501D01*
X0251045Y0215408D01*
X0250911Y0215318D01*
X0250776Y0215231D01*
X0250638Y0215148D01*
X0250499Y0215068D01*
X0250357Y0214992D01*
X0250214Y0214919D01*
X0250069Y0214850D01*
X0249922Y0214784D01*
X0249774Y0214722D01*
X0249624Y0214664D01*
X0249473Y0214609D01*
X0249320Y0214558D01*
X0249166Y0214511D01*
X0249011Y0214468D01*
X0248855Y0214429D01*
X0248699Y0214393D01*
X0248541Y0214362D01*
X0248383Y0214334D01*
X0248224Y0214310D01*
X0248064Y0214290D01*
X0247904Y0214274D01*
X0247744Y0214262D01*
X0247583Y0214254D01*
X0247422Y0214250D01*
X0247262Y0214250D01*
X0247101Y0214254D01*
X0246940Y0214262D01*
X0246780Y0214274D01*
X0246620Y0214290D01*
X0246460Y0214310D01*
X0246301Y0214334D01*
X0246143Y0214362D01*
X0245985Y0214393D01*
X0245829Y0214429D01*
X0245673Y0214468D01*
X0245518Y0214511D01*
X0245364Y0214558D01*
X0245211Y0214609D01*
X0245060Y0214664D01*
X0244910Y0214722D01*
X0244762Y0214784D01*
X0244615Y0214850D01*
X0244470Y0214919D01*
X0244327Y0214992D01*
X0244185Y0215068D01*
X0244046Y0215148D01*
X0243908Y0215231D01*
X0243773Y0215318D01*
X0243639Y0215408D01*
X0243508Y0215501D01*
X0243380Y0215597D01*
X0243254Y0215697D01*
X0243130Y0215800D01*
X0243009Y0215905D01*
X0242890Y0216014D01*
X0242774Y0216125D01*
X0242661Y0216240D01*
X0242551Y0216357D01*
X0242444Y0216477D01*
X0242340Y0216599D01*
X0242239Y0216724D01*
X0242141Y0216852D01*
X0242046Y0216982D01*
X0241954Y0217114D01*
X0241866Y0217248D01*
X0241781Y0217385D01*
X0241699Y0217523D01*
X0241621Y0217664D01*
X0241547Y0217806D01*
X0241476Y0217950D01*
X0241408Y0218096D01*
X0241345Y0218244D01*
X0241284Y0218393D01*
X0241228Y0218544D01*
X0241175Y0218696D01*
X0241126Y0218849D01*
X0241081Y0219003D01*
X0241040Y0219158D01*
X0241002Y0219315D01*
X0240969Y0219472D01*
X0240939Y0219630D01*
X0240913Y0219789D01*
X0240892Y0219948D01*
X0240874Y0220108D01*
X0240860Y0220268D01*
X0240850Y0220429D01*
X0240844Y0220589D01*
X0240842Y0220750D01*
X0320842Y0220750D02*
X0320844Y0220911D01*
X0320850Y0221071D01*
X0320860Y0221232D01*
X0320874Y0221392D01*
X0320892Y0221552D01*
X0320913Y0221711D01*
X0320939Y0221870D01*
X0320969Y0222028D01*
X0321002Y0222185D01*
X0321040Y0222342D01*
X0321081Y0222497D01*
X0321126Y0222651D01*
X0321175Y0222804D01*
X0321228Y0222956D01*
X0321284Y0223107D01*
X0321345Y0223256D01*
X0321408Y0223404D01*
X0321476Y0223550D01*
X0321547Y0223694D01*
X0321621Y0223836D01*
X0321699Y0223977D01*
X0321781Y0224115D01*
X0321866Y0224252D01*
X0321954Y0224386D01*
X0322046Y0224518D01*
X0322141Y0224648D01*
X0322239Y0224776D01*
X0322340Y0224901D01*
X0322444Y0225023D01*
X0322551Y0225143D01*
X0322661Y0225260D01*
X0322774Y0225375D01*
X0322890Y0225486D01*
X0323009Y0225595D01*
X0323130Y0225700D01*
X0323254Y0225803D01*
X0323380Y0225903D01*
X0323508Y0225999D01*
X0323639Y0226092D01*
X0323773Y0226182D01*
X0323908Y0226269D01*
X0324046Y0226352D01*
X0324185Y0226432D01*
X0324327Y0226508D01*
X0324470Y0226581D01*
X0324615Y0226650D01*
X0324762Y0226716D01*
X0324910Y0226778D01*
X0325060Y0226836D01*
X0325211Y0226891D01*
X0325364Y0226942D01*
X0325518Y0226989D01*
X0325673Y0227032D01*
X0325829Y0227071D01*
X0325985Y0227107D01*
X0326143Y0227138D01*
X0326301Y0227166D01*
X0326460Y0227190D01*
X0326620Y0227210D01*
X0326780Y0227226D01*
X0326940Y0227238D01*
X0327101Y0227246D01*
X0327262Y0227250D01*
X0327422Y0227250D01*
X0327583Y0227246D01*
X0327744Y0227238D01*
X0327904Y0227226D01*
X0328064Y0227210D01*
X0328224Y0227190D01*
X0328383Y0227166D01*
X0328541Y0227138D01*
X0328699Y0227107D01*
X0328855Y0227071D01*
X0329011Y0227032D01*
X0329166Y0226989D01*
X0329320Y0226942D01*
X0329473Y0226891D01*
X0329624Y0226836D01*
X0329774Y0226778D01*
X0329922Y0226716D01*
X0330069Y0226650D01*
X0330214Y0226581D01*
X0330357Y0226508D01*
X0330499Y0226432D01*
X0330638Y0226352D01*
X0330776Y0226269D01*
X0330911Y0226182D01*
X0331045Y0226092D01*
X0331176Y0225999D01*
X0331304Y0225903D01*
X0331430Y0225803D01*
X0331554Y0225700D01*
X0331675Y0225595D01*
X0331794Y0225486D01*
X0331910Y0225375D01*
X0332023Y0225260D01*
X0332133Y0225143D01*
X0332240Y0225023D01*
X0332344Y0224901D01*
X0332445Y0224776D01*
X0332543Y0224648D01*
X0332638Y0224518D01*
X0332730Y0224386D01*
X0332818Y0224252D01*
X0332903Y0224115D01*
X0332985Y0223977D01*
X0333063Y0223836D01*
X0333137Y0223694D01*
X0333208Y0223550D01*
X0333276Y0223404D01*
X0333339Y0223256D01*
X0333400Y0223107D01*
X0333456Y0222956D01*
X0333509Y0222804D01*
X0333558Y0222651D01*
X0333603Y0222497D01*
X0333644Y0222342D01*
X0333682Y0222185D01*
X0333715Y0222028D01*
X0333745Y0221870D01*
X0333771Y0221711D01*
X0333792Y0221552D01*
X0333810Y0221392D01*
X0333824Y0221232D01*
X0333834Y0221071D01*
X0333840Y0220911D01*
X0333842Y0220750D01*
X0333840Y0220589D01*
X0333834Y0220429D01*
X0333824Y0220268D01*
X0333810Y0220108D01*
X0333792Y0219948D01*
X0333771Y0219789D01*
X0333745Y0219630D01*
X0333715Y0219472D01*
X0333682Y0219315D01*
X0333644Y0219158D01*
X0333603Y0219003D01*
X0333558Y0218849D01*
X0333509Y0218696D01*
X0333456Y0218544D01*
X0333400Y0218393D01*
X0333339Y0218244D01*
X0333276Y0218096D01*
X0333208Y0217950D01*
X0333137Y0217806D01*
X0333063Y0217664D01*
X0332985Y0217523D01*
X0332903Y0217385D01*
X0332818Y0217248D01*
X0332730Y0217114D01*
X0332638Y0216982D01*
X0332543Y0216852D01*
X0332445Y0216724D01*
X0332344Y0216599D01*
X0332240Y0216477D01*
X0332133Y0216357D01*
X0332023Y0216240D01*
X0331910Y0216125D01*
X0331794Y0216014D01*
X0331675Y0215905D01*
X0331554Y0215800D01*
X0331430Y0215697D01*
X0331304Y0215597D01*
X0331176Y0215501D01*
X0331045Y0215408D01*
X0330911Y0215318D01*
X0330776Y0215231D01*
X0330638Y0215148D01*
X0330499Y0215068D01*
X0330357Y0214992D01*
X0330214Y0214919D01*
X0330069Y0214850D01*
X0329922Y0214784D01*
X0329774Y0214722D01*
X0329624Y0214664D01*
X0329473Y0214609D01*
X0329320Y0214558D01*
X0329166Y0214511D01*
X0329011Y0214468D01*
X0328855Y0214429D01*
X0328699Y0214393D01*
X0328541Y0214362D01*
X0328383Y0214334D01*
X0328224Y0214310D01*
X0328064Y0214290D01*
X0327904Y0214274D01*
X0327744Y0214262D01*
X0327583Y0214254D01*
X0327422Y0214250D01*
X0327262Y0214250D01*
X0327101Y0214254D01*
X0326940Y0214262D01*
X0326780Y0214274D01*
X0326620Y0214290D01*
X0326460Y0214310D01*
X0326301Y0214334D01*
X0326143Y0214362D01*
X0325985Y0214393D01*
X0325829Y0214429D01*
X0325673Y0214468D01*
X0325518Y0214511D01*
X0325364Y0214558D01*
X0325211Y0214609D01*
X0325060Y0214664D01*
X0324910Y0214722D01*
X0324762Y0214784D01*
X0324615Y0214850D01*
X0324470Y0214919D01*
X0324327Y0214992D01*
X0324185Y0215068D01*
X0324046Y0215148D01*
X0323908Y0215231D01*
X0323773Y0215318D01*
X0323639Y0215408D01*
X0323508Y0215501D01*
X0323380Y0215597D01*
X0323254Y0215697D01*
X0323130Y0215800D01*
X0323009Y0215905D01*
X0322890Y0216014D01*
X0322774Y0216125D01*
X0322661Y0216240D01*
X0322551Y0216357D01*
X0322444Y0216477D01*
X0322340Y0216599D01*
X0322239Y0216724D01*
X0322141Y0216852D01*
X0322046Y0216982D01*
X0321954Y0217114D01*
X0321866Y0217248D01*
X0321781Y0217385D01*
X0321699Y0217523D01*
X0321621Y0217664D01*
X0321547Y0217806D01*
X0321476Y0217950D01*
X0321408Y0218096D01*
X0321345Y0218244D01*
X0321284Y0218393D01*
X0321228Y0218544D01*
X0321175Y0218696D01*
X0321126Y0218849D01*
X0321081Y0219003D01*
X0321040Y0219158D01*
X0321002Y0219315D01*
X0320969Y0219472D01*
X0320939Y0219630D01*
X0320913Y0219789D01*
X0320892Y0219948D01*
X0320874Y0220108D01*
X0320860Y0220268D01*
X0320850Y0220429D01*
X0320844Y0220589D01*
X0320842Y0220750D01*
X0320842Y0118750D02*
X0320844Y0118911D01*
X0320850Y0119071D01*
X0320860Y0119232D01*
X0320874Y0119392D01*
X0320892Y0119552D01*
X0320913Y0119711D01*
X0320939Y0119870D01*
X0320969Y0120028D01*
X0321002Y0120185D01*
X0321040Y0120342D01*
X0321081Y0120497D01*
X0321126Y0120651D01*
X0321175Y0120804D01*
X0321228Y0120956D01*
X0321284Y0121107D01*
X0321345Y0121256D01*
X0321408Y0121404D01*
X0321476Y0121550D01*
X0321547Y0121694D01*
X0321621Y0121836D01*
X0321699Y0121977D01*
X0321781Y0122115D01*
X0321866Y0122252D01*
X0321954Y0122386D01*
X0322046Y0122518D01*
X0322141Y0122648D01*
X0322239Y0122776D01*
X0322340Y0122901D01*
X0322444Y0123023D01*
X0322551Y0123143D01*
X0322661Y0123260D01*
X0322774Y0123375D01*
X0322890Y0123486D01*
X0323009Y0123595D01*
X0323130Y0123700D01*
X0323254Y0123803D01*
X0323380Y0123903D01*
X0323508Y0123999D01*
X0323639Y0124092D01*
X0323773Y0124182D01*
X0323908Y0124269D01*
X0324046Y0124352D01*
X0324185Y0124432D01*
X0324327Y0124508D01*
X0324470Y0124581D01*
X0324615Y0124650D01*
X0324762Y0124716D01*
X0324910Y0124778D01*
X0325060Y0124836D01*
X0325211Y0124891D01*
X0325364Y0124942D01*
X0325518Y0124989D01*
X0325673Y0125032D01*
X0325829Y0125071D01*
X0325985Y0125107D01*
X0326143Y0125138D01*
X0326301Y0125166D01*
X0326460Y0125190D01*
X0326620Y0125210D01*
X0326780Y0125226D01*
X0326940Y0125238D01*
X0327101Y0125246D01*
X0327262Y0125250D01*
X0327422Y0125250D01*
X0327583Y0125246D01*
X0327744Y0125238D01*
X0327904Y0125226D01*
X0328064Y0125210D01*
X0328224Y0125190D01*
X0328383Y0125166D01*
X0328541Y0125138D01*
X0328699Y0125107D01*
X0328855Y0125071D01*
X0329011Y0125032D01*
X0329166Y0124989D01*
X0329320Y0124942D01*
X0329473Y0124891D01*
X0329624Y0124836D01*
X0329774Y0124778D01*
X0329922Y0124716D01*
X0330069Y0124650D01*
X0330214Y0124581D01*
X0330357Y0124508D01*
X0330499Y0124432D01*
X0330638Y0124352D01*
X0330776Y0124269D01*
X0330911Y0124182D01*
X0331045Y0124092D01*
X0331176Y0123999D01*
X0331304Y0123903D01*
X0331430Y0123803D01*
X0331554Y0123700D01*
X0331675Y0123595D01*
X0331794Y0123486D01*
X0331910Y0123375D01*
X0332023Y0123260D01*
X0332133Y0123143D01*
X0332240Y0123023D01*
X0332344Y0122901D01*
X0332445Y0122776D01*
X0332543Y0122648D01*
X0332638Y0122518D01*
X0332730Y0122386D01*
X0332818Y0122252D01*
X0332903Y0122115D01*
X0332985Y0121977D01*
X0333063Y0121836D01*
X0333137Y0121694D01*
X0333208Y0121550D01*
X0333276Y0121404D01*
X0333339Y0121256D01*
X0333400Y0121107D01*
X0333456Y0120956D01*
X0333509Y0120804D01*
X0333558Y0120651D01*
X0333603Y0120497D01*
X0333644Y0120342D01*
X0333682Y0120185D01*
X0333715Y0120028D01*
X0333745Y0119870D01*
X0333771Y0119711D01*
X0333792Y0119552D01*
X0333810Y0119392D01*
X0333824Y0119232D01*
X0333834Y0119071D01*
X0333840Y0118911D01*
X0333842Y0118750D01*
X0333840Y0118589D01*
X0333834Y0118429D01*
X0333824Y0118268D01*
X0333810Y0118108D01*
X0333792Y0117948D01*
X0333771Y0117789D01*
X0333745Y0117630D01*
X0333715Y0117472D01*
X0333682Y0117315D01*
X0333644Y0117158D01*
X0333603Y0117003D01*
X0333558Y0116849D01*
X0333509Y0116696D01*
X0333456Y0116544D01*
X0333400Y0116393D01*
X0333339Y0116244D01*
X0333276Y0116096D01*
X0333208Y0115950D01*
X0333137Y0115806D01*
X0333063Y0115664D01*
X0332985Y0115523D01*
X0332903Y0115385D01*
X0332818Y0115248D01*
X0332730Y0115114D01*
X0332638Y0114982D01*
X0332543Y0114852D01*
X0332445Y0114724D01*
X0332344Y0114599D01*
X0332240Y0114477D01*
X0332133Y0114357D01*
X0332023Y0114240D01*
X0331910Y0114125D01*
X0331794Y0114014D01*
X0331675Y0113905D01*
X0331554Y0113800D01*
X0331430Y0113697D01*
X0331304Y0113597D01*
X0331176Y0113501D01*
X0331045Y0113408D01*
X0330911Y0113318D01*
X0330776Y0113231D01*
X0330638Y0113148D01*
X0330499Y0113068D01*
X0330357Y0112992D01*
X0330214Y0112919D01*
X0330069Y0112850D01*
X0329922Y0112784D01*
X0329774Y0112722D01*
X0329624Y0112664D01*
X0329473Y0112609D01*
X0329320Y0112558D01*
X0329166Y0112511D01*
X0329011Y0112468D01*
X0328855Y0112429D01*
X0328699Y0112393D01*
X0328541Y0112362D01*
X0328383Y0112334D01*
X0328224Y0112310D01*
X0328064Y0112290D01*
X0327904Y0112274D01*
X0327744Y0112262D01*
X0327583Y0112254D01*
X0327422Y0112250D01*
X0327262Y0112250D01*
X0327101Y0112254D01*
X0326940Y0112262D01*
X0326780Y0112274D01*
X0326620Y0112290D01*
X0326460Y0112310D01*
X0326301Y0112334D01*
X0326143Y0112362D01*
X0325985Y0112393D01*
X0325829Y0112429D01*
X0325673Y0112468D01*
X0325518Y0112511D01*
X0325364Y0112558D01*
X0325211Y0112609D01*
X0325060Y0112664D01*
X0324910Y0112722D01*
X0324762Y0112784D01*
X0324615Y0112850D01*
X0324470Y0112919D01*
X0324327Y0112992D01*
X0324185Y0113068D01*
X0324046Y0113148D01*
X0323908Y0113231D01*
X0323773Y0113318D01*
X0323639Y0113408D01*
X0323508Y0113501D01*
X0323380Y0113597D01*
X0323254Y0113697D01*
X0323130Y0113800D01*
X0323009Y0113905D01*
X0322890Y0114014D01*
X0322774Y0114125D01*
X0322661Y0114240D01*
X0322551Y0114357D01*
X0322444Y0114477D01*
X0322340Y0114599D01*
X0322239Y0114724D01*
X0322141Y0114852D01*
X0322046Y0114982D01*
X0321954Y0115114D01*
X0321866Y0115248D01*
X0321781Y0115385D01*
X0321699Y0115523D01*
X0321621Y0115664D01*
X0321547Y0115806D01*
X0321476Y0115950D01*
X0321408Y0116096D01*
X0321345Y0116244D01*
X0321284Y0116393D01*
X0321228Y0116544D01*
X0321175Y0116696D01*
X0321126Y0116849D01*
X0321081Y0117003D01*
X0321040Y0117158D01*
X0321002Y0117315D01*
X0320969Y0117472D01*
X0320939Y0117630D01*
X0320913Y0117789D01*
X0320892Y0117948D01*
X0320874Y0118108D01*
X0320860Y0118268D01*
X0320850Y0118429D01*
X0320844Y0118589D01*
X0320842Y0118750D01*
X0240842Y0118750D02*
X0240844Y0118911D01*
X0240850Y0119071D01*
X0240860Y0119232D01*
X0240874Y0119392D01*
X0240892Y0119552D01*
X0240913Y0119711D01*
X0240939Y0119870D01*
X0240969Y0120028D01*
X0241002Y0120185D01*
X0241040Y0120342D01*
X0241081Y0120497D01*
X0241126Y0120651D01*
X0241175Y0120804D01*
X0241228Y0120956D01*
X0241284Y0121107D01*
X0241345Y0121256D01*
X0241408Y0121404D01*
X0241476Y0121550D01*
X0241547Y0121694D01*
X0241621Y0121836D01*
X0241699Y0121977D01*
X0241781Y0122115D01*
X0241866Y0122252D01*
X0241954Y0122386D01*
X0242046Y0122518D01*
X0242141Y0122648D01*
X0242239Y0122776D01*
X0242340Y0122901D01*
X0242444Y0123023D01*
X0242551Y0123143D01*
X0242661Y0123260D01*
X0242774Y0123375D01*
X0242890Y0123486D01*
X0243009Y0123595D01*
X0243130Y0123700D01*
X0243254Y0123803D01*
X0243380Y0123903D01*
X0243508Y0123999D01*
X0243639Y0124092D01*
X0243773Y0124182D01*
X0243908Y0124269D01*
X0244046Y0124352D01*
X0244185Y0124432D01*
X0244327Y0124508D01*
X0244470Y0124581D01*
X0244615Y0124650D01*
X0244762Y0124716D01*
X0244910Y0124778D01*
X0245060Y0124836D01*
X0245211Y0124891D01*
X0245364Y0124942D01*
X0245518Y0124989D01*
X0245673Y0125032D01*
X0245829Y0125071D01*
X0245985Y0125107D01*
X0246143Y0125138D01*
X0246301Y0125166D01*
X0246460Y0125190D01*
X0246620Y0125210D01*
X0246780Y0125226D01*
X0246940Y0125238D01*
X0247101Y0125246D01*
X0247262Y0125250D01*
X0247422Y0125250D01*
X0247583Y0125246D01*
X0247744Y0125238D01*
X0247904Y0125226D01*
X0248064Y0125210D01*
X0248224Y0125190D01*
X0248383Y0125166D01*
X0248541Y0125138D01*
X0248699Y0125107D01*
X0248855Y0125071D01*
X0249011Y0125032D01*
X0249166Y0124989D01*
X0249320Y0124942D01*
X0249473Y0124891D01*
X0249624Y0124836D01*
X0249774Y0124778D01*
X0249922Y0124716D01*
X0250069Y0124650D01*
X0250214Y0124581D01*
X0250357Y0124508D01*
X0250499Y0124432D01*
X0250638Y0124352D01*
X0250776Y0124269D01*
X0250911Y0124182D01*
X0251045Y0124092D01*
X0251176Y0123999D01*
X0251304Y0123903D01*
X0251430Y0123803D01*
X0251554Y0123700D01*
X0251675Y0123595D01*
X0251794Y0123486D01*
X0251910Y0123375D01*
X0252023Y0123260D01*
X0252133Y0123143D01*
X0252240Y0123023D01*
X0252344Y0122901D01*
X0252445Y0122776D01*
X0252543Y0122648D01*
X0252638Y0122518D01*
X0252730Y0122386D01*
X0252818Y0122252D01*
X0252903Y0122115D01*
X0252985Y0121977D01*
X0253063Y0121836D01*
X0253137Y0121694D01*
X0253208Y0121550D01*
X0253276Y0121404D01*
X0253339Y0121256D01*
X0253400Y0121107D01*
X0253456Y0120956D01*
X0253509Y0120804D01*
X0253558Y0120651D01*
X0253603Y0120497D01*
X0253644Y0120342D01*
X0253682Y0120185D01*
X0253715Y0120028D01*
X0253745Y0119870D01*
X0253771Y0119711D01*
X0253792Y0119552D01*
X0253810Y0119392D01*
X0253824Y0119232D01*
X0253834Y0119071D01*
X0253840Y0118911D01*
X0253842Y0118750D01*
X0253840Y0118589D01*
X0253834Y0118429D01*
X0253824Y0118268D01*
X0253810Y0118108D01*
X0253792Y0117948D01*
X0253771Y0117789D01*
X0253745Y0117630D01*
X0253715Y0117472D01*
X0253682Y0117315D01*
X0253644Y0117158D01*
X0253603Y0117003D01*
X0253558Y0116849D01*
X0253509Y0116696D01*
X0253456Y0116544D01*
X0253400Y0116393D01*
X0253339Y0116244D01*
X0253276Y0116096D01*
X0253208Y0115950D01*
X0253137Y0115806D01*
X0253063Y0115664D01*
X0252985Y0115523D01*
X0252903Y0115385D01*
X0252818Y0115248D01*
X0252730Y0115114D01*
X0252638Y0114982D01*
X0252543Y0114852D01*
X0252445Y0114724D01*
X0252344Y0114599D01*
X0252240Y0114477D01*
X0252133Y0114357D01*
X0252023Y0114240D01*
X0251910Y0114125D01*
X0251794Y0114014D01*
X0251675Y0113905D01*
X0251554Y0113800D01*
X0251430Y0113697D01*
X0251304Y0113597D01*
X0251176Y0113501D01*
X0251045Y0113408D01*
X0250911Y0113318D01*
X0250776Y0113231D01*
X0250638Y0113148D01*
X0250499Y0113068D01*
X0250357Y0112992D01*
X0250214Y0112919D01*
X0250069Y0112850D01*
X0249922Y0112784D01*
X0249774Y0112722D01*
X0249624Y0112664D01*
X0249473Y0112609D01*
X0249320Y0112558D01*
X0249166Y0112511D01*
X0249011Y0112468D01*
X0248855Y0112429D01*
X0248699Y0112393D01*
X0248541Y0112362D01*
X0248383Y0112334D01*
X0248224Y0112310D01*
X0248064Y0112290D01*
X0247904Y0112274D01*
X0247744Y0112262D01*
X0247583Y0112254D01*
X0247422Y0112250D01*
X0247262Y0112250D01*
X0247101Y0112254D01*
X0246940Y0112262D01*
X0246780Y0112274D01*
X0246620Y0112290D01*
X0246460Y0112310D01*
X0246301Y0112334D01*
X0246143Y0112362D01*
X0245985Y0112393D01*
X0245829Y0112429D01*
X0245673Y0112468D01*
X0245518Y0112511D01*
X0245364Y0112558D01*
X0245211Y0112609D01*
X0245060Y0112664D01*
X0244910Y0112722D01*
X0244762Y0112784D01*
X0244615Y0112850D01*
X0244470Y0112919D01*
X0244327Y0112992D01*
X0244185Y0113068D01*
X0244046Y0113148D01*
X0243908Y0113231D01*
X0243773Y0113318D01*
X0243639Y0113408D01*
X0243508Y0113501D01*
X0243380Y0113597D01*
X0243254Y0113697D01*
X0243130Y0113800D01*
X0243009Y0113905D01*
X0242890Y0114014D01*
X0242774Y0114125D01*
X0242661Y0114240D01*
X0242551Y0114357D01*
X0242444Y0114477D01*
X0242340Y0114599D01*
X0242239Y0114724D01*
X0242141Y0114852D01*
X0242046Y0114982D01*
X0241954Y0115114D01*
X0241866Y0115248D01*
X0241781Y0115385D01*
X0241699Y0115523D01*
X0241621Y0115664D01*
X0241547Y0115806D01*
X0241476Y0115950D01*
X0241408Y0116096D01*
X0241345Y0116244D01*
X0241284Y0116393D01*
X0241228Y0116544D01*
X0241175Y0116696D01*
X0241126Y0116849D01*
X0241081Y0117003D01*
X0241040Y0117158D01*
X0241002Y0117315D01*
X0240969Y0117472D01*
X0240939Y0117630D01*
X0240913Y0117789D01*
X0240892Y0117948D01*
X0240874Y0118108D01*
X0240860Y0118268D01*
X0240850Y0118429D01*
X0240844Y0118589D01*
X0240842Y0118750D01*
X0218842Y0118750D02*
X0218844Y0118911D01*
X0218850Y0119071D01*
X0218860Y0119232D01*
X0218874Y0119392D01*
X0218892Y0119552D01*
X0218913Y0119711D01*
X0218939Y0119870D01*
X0218969Y0120028D01*
X0219002Y0120185D01*
X0219040Y0120342D01*
X0219081Y0120497D01*
X0219126Y0120651D01*
X0219175Y0120804D01*
X0219228Y0120956D01*
X0219284Y0121107D01*
X0219345Y0121256D01*
X0219408Y0121404D01*
X0219476Y0121550D01*
X0219547Y0121694D01*
X0219621Y0121836D01*
X0219699Y0121977D01*
X0219781Y0122115D01*
X0219866Y0122252D01*
X0219954Y0122386D01*
X0220046Y0122518D01*
X0220141Y0122648D01*
X0220239Y0122776D01*
X0220340Y0122901D01*
X0220444Y0123023D01*
X0220551Y0123143D01*
X0220661Y0123260D01*
X0220774Y0123375D01*
X0220890Y0123486D01*
X0221009Y0123595D01*
X0221130Y0123700D01*
X0221254Y0123803D01*
X0221380Y0123903D01*
X0221508Y0123999D01*
X0221639Y0124092D01*
X0221773Y0124182D01*
X0221908Y0124269D01*
X0222046Y0124352D01*
X0222185Y0124432D01*
X0222327Y0124508D01*
X0222470Y0124581D01*
X0222615Y0124650D01*
X0222762Y0124716D01*
X0222910Y0124778D01*
X0223060Y0124836D01*
X0223211Y0124891D01*
X0223364Y0124942D01*
X0223518Y0124989D01*
X0223673Y0125032D01*
X0223829Y0125071D01*
X0223985Y0125107D01*
X0224143Y0125138D01*
X0224301Y0125166D01*
X0224460Y0125190D01*
X0224620Y0125210D01*
X0224780Y0125226D01*
X0224940Y0125238D01*
X0225101Y0125246D01*
X0225262Y0125250D01*
X0225422Y0125250D01*
X0225583Y0125246D01*
X0225744Y0125238D01*
X0225904Y0125226D01*
X0226064Y0125210D01*
X0226224Y0125190D01*
X0226383Y0125166D01*
X0226541Y0125138D01*
X0226699Y0125107D01*
X0226855Y0125071D01*
X0227011Y0125032D01*
X0227166Y0124989D01*
X0227320Y0124942D01*
X0227473Y0124891D01*
X0227624Y0124836D01*
X0227774Y0124778D01*
X0227922Y0124716D01*
X0228069Y0124650D01*
X0228214Y0124581D01*
X0228357Y0124508D01*
X0228499Y0124432D01*
X0228638Y0124352D01*
X0228776Y0124269D01*
X0228911Y0124182D01*
X0229045Y0124092D01*
X0229176Y0123999D01*
X0229304Y0123903D01*
X0229430Y0123803D01*
X0229554Y0123700D01*
X0229675Y0123595D01*
X0229794Y0123486D01*
X0229910Y0123375D01*
X0230023Y0123260D01*
X0230133Y0123143D01*
X0230240Y0123023D01*
X0230344Y0122901D01*
X0230445Y0122776D01*
X0230543Y0122648D01*
X0230638Y0122518D01*
X0230730Y0122386D01*
X0230818Y0122252D01*
X0230903Y0122115D01*
X0230985Y0121977D01*
X0231063Y0121836D01*
X0231137Y0121694D01*
X0231208Y0121550D01*
X0231276Y0121404D01*
X0231339Y0121256D01*
X0231400Y0121107D01*
X0231456Y0120956D01*
X0231509Y0120804D01*
X0231558Y0120651D01*
X0231603Y0120497D01*
X0231644Y0120342D01*
X0231682Y0120185D01*
X0231715Y0120028D01*
X0231745Y0119870D01*
X0231771Y0119711D01*
X0231792Y0119552D01*
X0231810Y0119392D01*
X0231824Y0119232D01*
X0231834Y0119071D01*
X0231840Y0118911D01*
X0231842Y0118750D01*
X0231840Y0118589D01*
X0231834Y0118429D01*
X0231824Y0118268D01*
X0231810Y0118108D01*
X0231792Y0117948D01*
X0231771Y0117789D01*
X0231745Y0117630D01*
X0231715Y0117472D01*
X0231682Y0117315D01*
X0231644Y0117158D01*
X0231603Y0117003D01*
X0231558Y0116849D01*
X0231509Y0116696D01*
X0231456Y0116544D01*
X0231400Y0116393D01*
X0231339Y0116244D01*
X0231276Y0116096D01*
X0231208Y0115950D01*
X0231137Y0115806D01*
X0231063Y0115664D01*
X0230985Y0115523D01*
X0230903Y0115385D01*
X0230818Y0115248D01*
X0230730Y0115114D01*
X0230638Y0114982D01*
X0230543Y0114852D01*
X0230445Y0114724D01*
X0230344Y0114599D01*
X0230240Y0114477D01*
X0230133Y0114357D01*
X0230023Y0114240D01*
X0229910Y0114125D01*
X0229794Y0114014D01*
X0229675Y0113905D01*
X0229554Y0113800D01*
X0229430Y0113697D01*
X0229304Y0113597D01*
X0229176Y0113501D01*
X0229045Y0113408D01*
X0228911Y0113318D01*
X0228776Y0113231D01*
X0228638Y0113148D01*
X0228499Y0113068D01*
X0228357Y0112992D01*
X0228214Y0112919D01*
X0228069Y0112850D01*
X0227922Y0112784D01*
X0227774Y0112722D01*
X0227624Y0112664D01*
X0227473Y0112609D01*
X0227320Y0112558D01*
X0227166Y0112511D01*
X0227011Y0112468D01*
X0226855Y0112429D01*
X0226699Y0112393D01*
X0226541Y0112362D01*
X0226383Y0112334D01*
X0226224Y0112310D01*
X0226064Y0112290D01*
X0225904Y0112274D01*
X0225744Y0112262D01*
X0225583Y0112254D01*
X0225422Y0112250D01*
X0225262Y0112250D01*
X0225101Y0112254D01*
X0224940Y0112262D01*
X0224780Y0112274D01*
X0224620Y0112290D01*
X0224460Y0112310D01*
X0224301Y0112334D01*
X0224143Y0112362D01*
X0223985Y0112393D01*
X0223829Y0112429D01*
X0223673Y0112468D01*
X0223518Y0112511D01*
X0223364Y0112558D01*
X0223211Y0112609D01*
X0223060Y0112664D01*
X0222910Y0112722D01*
X0222762Y0112784D01*
X0222615Y0112850D01*
X0222470Y0112919D01*
X0222327Y0112992D01*
X0222185Y0113068D01*
X0222046Y0113148D01*
X0221908Y0113231D01*
X0221773Y0113318D01*
X0221639Y0113408D01*
X0221508Y0113501D01*
X0221380Y0113597D01*
X0221254Y0113697D01*
X0221130Y0113800D01*
X0221009Y0113905D01*
X0220890Y0114014D01*
X0220774Y0114125D01*
X0220661Y0114240D01*
X0220551Y0114357D01*
X0220444Y0114477D01*
X0220340Y0114599D01*
X0220239Y0114724D01*
X0220141Y0114852D01*
X0220046Y0114982D01*
X0219954Y0115114D01*
X0219866Y0115248D01*
X0219781Y0115385D01*
X0219699Y0115523D01*
X0219621Y0115664D01*
X0219547Y0115806D01*
X0219476Y0115950D01*
X0219408Y0116096D01*
X0219345Y0116244D01*
X0219284Y0116393D01*
X0219228Y0116544D01*
X0219175Y0116696D01*
X0219126Y0116849D01*
X0219081Y0117003D01*
X0219040Y0117158D01*
X0219002Y0117315D01*
X0218969Y0117472D01*
X0218939Y0117630D01*
X0218913Y0117789D01*
X0218892Y0117948D01*
X0218874Y0118108D01*
X0218860Y0118268D01*
X0218850Y0118429D01*
X0218844Y0118589D01*
X0218842Y0118750D01*
X0138842Y0118750D02*
X0138844Y0118911D01*
X0138850Y0119071D01*
X0138860Y0119232D01*
X0138874Y0119392D01*
X0138892Y0119552D01*
X0138913Y0119711D01*
X0138939Y0119870D01*
X0138969Y0120028D01*
X0139002Y0120185D01*
X0139040Y0120342D01*
X0139081Y0120497D01*
X0139126Y0120651D01*
X0139175Y0120804D01*
X0139228Y0120956D01*
X0139284Y0121107D01*
X0139345Y0121256D01*
X0139408Y0121404D01*
X0139476Y0121550D01*
X0139547Y0121694D01*
X0139621Y0121836D01*
X0139699Y0121977D01*
X0139781Y0122115D01*
X0139866Y0122252D01*
X0139954Y0122386D01*
X0140046Y0122518D01*
X0140141Y0122648D01*
X0140239Y0122776D01*
X0140340Y0122901D01*
X0140444Y0123023D01*
X0140551Y0123143D01*
X0140661Y0123260D01*
X0140774Y0123375D01*
X0140890Y0123486D01*
X0141009Y0123595D01*
X0141130Y0123700D01*
X0141254Y0123803D01*
X0141380Y0123903D01*
X0141508Y0123999D01*
X0141639Y0124092D01*
X0141773Y0124182D01*
X0141908Y0124269D01*
X0142046Y0124352D01*
X0142185Y0124432D01*
X0142327Y0124508D01*
X0142470Y0124581D01*
X0142615Y0124650D01*
X0142762Y0124716D01*
X0142910Y0124778D01*
X0143060Y0124836D01*
X0143211Y0124891D01*
X0143364Y0124942D01*
X0143518Y0124989D01*
X0143673Y0125032D01*
X0143829Y0125071D01*
X0143985Y0125107D01*
X0144143Y0125138D01*
X0144301Y0125166D01*
X0144460Y0125190D01*
X0144620Y0125210D01*
X0144780Y0125226D01*
X0144940Y0125238D01*
X0145101Y0125246D01*
X0145262Y0125250D01*
X0145422Y0125250D01*
X0145583Y0125246D01*
X0145744Y0125238D01*
X0145904Y0125226D01*
X0146064Y0125210D01*
X0146224Y0125190D01*
X0146383Y0125166D01*
X0146541Y0125138D01*
X0146699Y0125107D01*
X0146855Y0125071D01*
X0147011Y0125032D01*
X0147166Y0124989D01*
X0147320Y0124942D01*
X0147473Y0124891D01*
X0147624Y0124836D01*
X0147774Y0124778D01*
X0147922Y0124716D01*
X0148069Y0124650D01*
X0148214Y0124581D01*
X0148357Y0124508D01*
X0148499Y0124432D01*
X0148638Y0124352D01*
X0148776Y0124269D01*
X0148911Y0124182D01*
X0149045Y0124092D01*
X0149176Y0123999D01*
X0149304Y0123903D01*
X0149430Y0123803D01*
X0149554Y0123700D01*
X0149675Y0123595D01*
X0149794Y0123486D01*
X0149910Y0123375D01*
X0150023Y0123260D01*
X0150133Y0123143D01*
X0150240Y0123023D01*
X0150344Y0122901D01*
X0150445Y0122776D01*
X0150543Y0122648D01*
X0150638Y0122518D01*
X0150730Y0122386D01*
X0150818Y0122252D01*
X0150903Y0122115D01*
X0150985Y0121977D01*
X0151063Y0121836D01*
X0151137Y0121694D01*
X0151208Y0121550D01*
X0151276Y0121404D01*
X0151339Y0121256D01*
X0151400Y0121107D01*
X0151456Y0120956D01*
X0151509Y0120804D01*
X0151558Y0120651D01*
X0151603Y0120497D01*
X0151644Y0120342D01*
X0151682Y0120185D01*
X0151715Y0120028D01*
X0151745Y0119870D01*
X0151771Y0119711D01*
X0151792Y0119552D01*
X0151810Y0119392D01*
X0151824Y0119232D01*
X0151834Y0119071D01*
X0151840Y0118911D01*
X0151842Y0118750D01*
X0151840Y0118589D01*
X0151834Y0118429D01*
X0151824Y0118268D01*
X0151810Y0118108D01*
X0151792Y0117948D01*
X0151771Y0117789D01*
X0151745Y0117630D01*
X0151715Y0117472D01*
X0151682Y0117315D01*
X0151644Y0117158D01*
X0151603Y0117003D01*
X0151558Y0116849D01*
X0151509Y0116696D01*
X0151456Y0116544D01*
X0151400Y0116393D01*
X0151339Y0116244D01*
X0151276Y0116096D01*
X0151208Y0115950D01*
X0151137Y0115806D01*
X0151063Y0115664D01*
X0150985Y0115523D01*
X0150903Y0115385D01*
X0150818Y0115248D01*
X0150730Y0115114D01*
X0150638Y0114982D01*
X0150543Y0114852D01*
X0150445Y0114724D01*
X0150344Y0114599D01*
X0150240Y0114477D01*
X0150133Y0114357D01*
X0150023Y0114240D01*
X0149910Y0114125D01*
X0149794Y0114014D01*
X0149675Y0113905D01*
X0149554Y0113800D01*
X0149430Y0113697D01*
X0149304Y0113597D01*
X0149176Y0113501D01*
X0149045Y0113408D01*
X0148911Y0113318D01*
X0148776Y0113231D01*
X0148638Y0113148D01*
X0148499Y0113068D01*
X0148357Y0112992D01*
X0148214Y0112919D01*
X0148069Y0112850D01*
X0147922Y0112784D01*
X0147774Y0112722D01*
X0147624Y0112664D01*
X0147473Y0112609D01*
X0147320Y0112558D01*
X0147166Y0112511D01*
X0147011Y0112468D01*
X0146855Y0112429D01*
X0146699Y0112393D01*
X0146541Y0112362D01*
X0146383Y0112334D01*
X0146224Y0112310D01*
X0146064Y0112290D01*
X0145904Y0112274D01*
X0145744Y0112262D01*
X0145583Y0112254D01*
X0145422Y0112250D01*
X0145262Y0112250D01*
X0145101Y0112254D01*
X0144940Y0112262D01*
X0144780Y0112274D01*
X0144620Y0112290D01*
X0144460Y0112310D01*
X0144301Y0112334D01*
X0144143Y0112362D01*
X0143985Y0112393D01*
X0143829Y0112429D01*
X0143673Y0112468D01*
X0143518Y0112511D01*
X0143364Y0112558D01*
X0143211Y0112609D01*
X0143060Y0112664D01*
X0142910Y0112722D01*
X0142762Y0112784D01*
X0142615Y0112850D01*
X0142470Y0112919D01*
X0142327Y0112992D01*
X0142185Y0113068D01*
X0142046Y0113148D01*
X0141908Y0113231D01*
X0141773Y0113318D01*
X0141639Y0113408D01*
X0141508Y0113501D01*
X0141380Y0113597D01*
X0141254Y0113697D01*
X0141130Y0113800D01*
X0141009Y0113905D01*
X0140890Y0114014D01*
X0140774Y0114125D01*
X0140661Y0114240D01*
X0140551Y0114357D01*
X0140444Y0114477D01*
X0140340Y0114599D01*
X0140239Y0114724D01*
X0140141Y0114852D01*
X0140046Y0114982D01*
X0139954Y0115114D01*
X0139866Y0115248D01*
X0139781Y0115385D01*
X0139699Y0115523D01*
X0139621Y0115664D01*
X0139547Y0115806D01*
X0139476Y0115950D01*
X0139408Y0116096D01*
X0139345Y0116244D01*
X0139284Y0116393D01*
X0139228Y0116544D01*
X0139175Y0116696D01*
X0139126Y0116849D01*
X0139081Y0117003D01*
X0139040Y0117158D01*
X0139002Y0117315D01*
X0138969Y0117472D01*
X0138939Y0117630D01*
X0138913Y0117789D01*
X0138892Y0117948D01*
X0138874Y0118108D01*
X0138860Y0118268D01*
X0138850Y0118429D01*
X0138844Y0118589D01*
X0138842Y0118750D01*
X0116842Y0118750D02*
X0116844Y0118911D01*
X0116850Y0119071D01*
X0116860Y0119232D01*
X0116874Y0119392D01*
X0116892Y0119552D01*
X0116913Y0119711D01*
X0116939Y0119870D01*
X0116969Y0120028D01*
X0117002Y0120185D01*
X0117040Y0120342D01*
X0117081Y0120497D01*
X0117126Y0120651D01*
X0117175Y0120804D01*
X0117228Y0120956D01*
X0117284Y0121107D01*
X0117345Y0121256D01*
X0117408Y0121404D01*
X0117476Y0121550D01*
X0117547Y0121694D01*
X0117621Y0121836D01*
X0117699Y0121977D01*
X0117781Y0122115D01*
X0117866Y0122252D01*
X0117954Y0122386D01*
X0118046Y0122518D01*
X0118141Y0122648D01*
X0118239Y0122776D01*
X0118340Y0122901D01*
X0118444Y0123023D01*
X0118551Y0123143D01*
X0118661Y0123260D01*
X0118774Y0123375D01*
X0118890Y0123486D01*
X0119009Y0123595D01*
X0119130Y0123700D01*
X0119254Y0123803D01*
X0119380Y0123903D01*
X0119508Y0123999D01*
X0119639Y0124092D01*
X0119773Y0124182D01*
X0119908Y0124269D01*
X0120046Y0124352D01*
X0120185Y0124432D01*
X0120327Y0124508D01*
X0120470Y0124581D01*
X0120615Y0124650D01*
X0120762Y0124716D01*
X0120910Y0124778D01*
X0121060Y0124836D01*
X0121211Y0124891D01*
X0121364Y0124942D01*
X0121518Y0124989D01*
X0121673Y0125032D01*
X0121829Y0125071D01*
X0121985Y0125107D01*
X0122143Y0125138D01*
X0122301Y0125166D01*
X0122460Y0125190D01*
X0122620Y0125210D01*
X0122780Y0125226D01*
X0122940Y0125238D01*
X0123101Y0125246D01*
X0123262Y0125250D01*
X0123422Y0125250D01*
X0123583Y0125246D01*
X0123744Y0125238D01*
X0123904Y0125226D01*
X0124064Y0125210D01*
X0124224Y0125190D01*
X0124383Y0125166D01*
X0124541Y0125138D01*
X0124699Y0125107D01*
X0124855Y0125071D01*
X0125011Y0125032D01*
X0125166Y0124989D01*
X0125320Y0124942D01*
X0125473Y0124891D01*
X0125624Y0124836D01*
X0125774Y0124778D01*
X0125922Y0124716D01*
X0126069Y0124650D01*
X0126214Y0124581D01*
X0126357Y0124508D01*
X0126499Y0124432D01*
X0126638Y0124352D01*
X0126776Y0124269D01*
X0126911Y0124182D01*
X0127045Y0124092D01*
X0127176Y0123999D01*
X0127304Y0123903D01*
X0127430Y0123803D01*
X0127554Y0123700D01*
X0127675Y0123595D01*
X0127794Y0123486D01*
X0127910Y0123375D01*
X0128023Y0123260D01*
X0128133Y0123143D01*
X0128240Y0123023D01*
X0128344Y0122901D01*
X0128445Y0122776D01*
X0128543Y0122648D01*
X0128638Y0122518D01*
X0128730Y0122386D01*
X0128818Y0122252D01*
X0128903Y0122115D01*
X0128985Y0121977D01*
X0129063Y0121836D01*
X0129137Y0121694D01*
X0129208Y0121550D01*
X0129276Y0121404D01*
X0129339Y0121256D01*
X0129400Y0121107D01*
X0129456Y0120956D01*
X0129509Y0120804D01*
X0129558Y0120651D01*
X0129603Y0120497D01*
X0129644Y0120342D01*
X0129682Y0120185D01*
X0129715Y0120028D01*
X0129745Y0119870D01*
X0129771Y0119711D01*
X0129792Y0119552D01*
X0129810Y0119392D01*
X0129824Y0119232D01*
X0129834Y0119071D01*
X0129840Y0118911D01*
X0129842Y0118750D01*
X0129840Y0118589D01*
X0129834Y0118429D01*
X0129824Y0118268D01*
X0129810Y0118108D01*
X0129792Y0117948D01*
X0129771Y0117789D01*
X0129745Y0117630D01*
X0129715Y0117472D01*
X0129682Y0117315D01*
X0129644Y0117158D01*
X0129603Y0117003D01*
X0129558Y0116849D01*
X0129509Y0116696D01*
X0129456Y0116544D01*
X0129400Y0116393D01*
X0129339Y0116244D01*
X0129276Y0116096D01*
X0129208Y0115950D01*
X0129137Y0115806D01*
X0129063Y0115664D01*
X0128985Y0115523D01*
X0128903Y0115385D01*
X0128818Y0115248D01*
X0128730Y0115114D01*
X0128638Y0114982D01*
X0128543Y0114852D01*
X0128445Y0114724D01*
X0128344Y0114599D01*
X0128240Y0114477D01*
X0128133Y0114357D01*
X0128023Y0114240D01*
X0127910Y0114125D01*
X0127794Y0114014D01*
X0127675Y0113905D01*
X0127554Y0113800D01*
X0127430Y0113697D01*
X0127304Y0113597D01*
X0127176Y0113501D01*
X0127045Y0113408D01*
X0126911Y0113318D01*
X0126776Y0113231D01*
X0126638Y0113148D01*
X0126499Y0113068D01*
X0126357Y0112992D01*
X0126214Y0112919D01*
X0126069Y0112850D01*
X0125922Y0112784D01*
X0125774Y0112722D01*
X0125624Y0112664D01*
X0125473Y0112609D01*
X0125320Y0112558D01*
X0125166Y0112511D01*
X0125011Y0112468D01*
X0124855Y0112429D01*
X0124699Y0112393D01*
X0124541Y0112362D01*
X0124383Y0112334D01*
X0124224Y0112310D01*
X0124064Y0112290D01*
X0123904Y0112274D01*
X0123744Y0112262D01*
X0123583Y0112254D01*
X0123422Y0112250D01*
X0123262Y0112250D01*
X0123101Y0112254D01*
X0122940Y0112262D01*
X0122780Y0112274D01*
X0122620Y0112290D01*
X0122460Y0112310D01*
X0122301Y0112334D01*
X0122143Y0112362D01*
X0121985Y0112393D01*
X0121829Y0112429D01*
X0121673Y0112468D01*
X0121518Y0112511D01*
X0121364Y0112558D01*
X0121211Y0112609D01*
X0121060Y0112664D01*
X0120910Y0112722D01*
X0120762Y0112784D01*
X0120615Y0112850D01*
X0120470Y0112919D01*
X0120327Y0112992D01*
X0120185Y0113068D01*
X0120046Y0113148D01*
X0119908Y0113231D01*
X0119773Y0113318D01*
X0119639Y0113408D01*
X0119508Y0113501D01*
X0119380Y0113597D01*
X0119254Y0113697D01*
X0119130Y0113800D01*
X0119009Y0113905D01*
X0118890Y0114014D01*
X0118774Y0114125D01*
X0118661Y0114240D01*
X0118551Y0114357D01*
X0118444Y0114477D01*
X0118340Y0114599D01*
X0118239Y0114724D01*
X0118141Y0114852D01*
X0118046Y0114982D01*
X0117954Y0115114D01*
X0117866Y0115248D01*
X0117781Y0115385D01*
X0117699Y0115523D01*
X0117621Y0115664D01*
X0117547Y0115806D01*
X0117476Y0115950D01*
X0117408Y0116096D01*
X0117345Y0116244D01*
X0117284Y0116393D01*
X0117228Y0116544D01*
X0117175Y0116696D01*
X0117126Y0116849D01*
X0117081Y0117003D01*
X0117040Y0117158D01*
X0117002Y0117315D01*
X0116969Y0117472D01*
X0116939Y0117630D01*
X0116913Y0117789D01*
X0116892Y0117948D01*
X0116874Y0118108D01*
X0116860Y0118268D01*
X0116850Y0118429D01*
X0116844Y0118589D01*
X0116842Y0118750D01*
X0036842Y0118750D02*
X0036844Y0118911D01*
X0036850Y0119071D01*
X0036860Y0119232D01*
X0036874Y0119392D01*
X0036892Y0119552D01*
X0036913Y0119711D01*
X0036939Y0119870D01*
X0036969Y0120028D01*
X0037002Y0120185D01*
X0037040Y0120342D01*
X0037081Y0120497D01*
X0037126Y0120651D01*
X0037175Y0120804D01*
X0037228Y0120956D01*
X0037284Y0121107D01*
X0037345Y0121256D01*
X0037408Y0121404D01*
X0037476Y0121550D01*
X0037547Y0121694D01*
X0037621Y0121836D01*
X0037699Y0121977D01*
X0037781Y0122115D01*
X0037866Y0122252D01*
X0037954Y0122386D01*
X0038046Y0122518D01*
X0038141Y0122648D01*
X0038239Y0122776D01*
X0038340Y0122901D01*
X0038444Y0123023D01*
X0038551Y0123143D01*
X0038661Y0123260D01*
X0038774Y0123375D01*
X0038890Y0123486D01*
X0039009Y0123595D01*
X0039130Y0123700D01*
X0039254Y0123803D01*
X0039380Y0123903D01*
X0039508Y0123999D01*
X0039639Y0124092D01*
X0039773Y0124182D01*
X0039908Y0124269D01*
X0040046Y0124352D01*
X0040185Y0124432D01*
X0040327Y0124508D01*
X0040470Y0124581D01*
X0040615Y0124650D01*
X0040762Y0124716D01*
X0040910Y0124778D01*
X0041060Y0124836D01*
X0041211Y0124891D01*
X0041364Y0124942D01*
X0041518Y0124989D01*
X0041673Y0125032D01*
X0041829Y0125071D01*
X0041985Y0125107D01*
X0042143Y0125138D01*
X0042301Y0125166D01*
X0042460Y0125190D01*
X0042620Y0125210D01*
X0042780Y0125226D01*
X0042940Y0125238D01*
X0043101Y0125246D01*
X0043262Y0125250D01*
X0043422Y0125250D01*
X0043583Y0125246D01*
X0043744Y0125238D01*
X0043904Y0125226D01*
X0044064Y0125210D01*
X0044224Y0125190D01*
X0044383Y0125166D01*
X0044541Y0125138D01*
X0044699Y0125107D01*
X0044855Y0125071D01*
X0045011Y0125032D01*
X0045166Y0124989D01*
X0045320Y0124942D01*
X0045473Y0124891D01*
X0045624Y0124836D01*
X0045774Y0124778D01*
X0045922Y0124716D01*
X0046069Y0124650D01*
X0046214Y0124581D01*
X0046357Y0124508D01*
X0046499Y0124432D01*
X0046638Y0124352D01*
X0046776Y0124269D01*
X0046911Y0124182D01*
X0047045Y0124092D01*
X0047176Y0123999D01*
X0047304Y0123903D01*
X0047430Y0123803D01*
X0047554Y0123700D01*
X0047675Y0123595D01*
X0047794Y0123486D01*
X0047910Y0123375D01*
X0048023Y0123260D01*
X0048133Y0123143D01*
X0048240Y0123023D01*
X0048344Y0122901D01*
X0048445Y0122776D01*
X0048543Y0122648D01*
X0048638Y0122518D01*
X0048730Y0122386D01*
X0048818Y0122252D01*
X0048903Y0122115D01*
X0048985Y0121977D01*
X0049063Y0121836D01*
X0049137Y0121694D01*
X0049208Y0121550D01*
X0049276Y0121404D01*
X0049339Y0121256D01*
X0049400Y0121107D01*
X0049456Y0120956D01*
X0049509Y0120804D01*
X0049558Y0120651D01*
X0049603Y0120497D01*
X0049644Y0120342D01*
X0049682Y0120185D01*
X0049715Y0120028D01*
X0049745Y0119870D01*
X0049771Y0119711D01*
X0049792Y0119552D01*
X0049810Y0119392D01*
X0049824Y0119232D01*
X0049834Y0119071D01*
X0049840Y0118911D01*
X0049842Y0118750D01*
X0049840Y0118589D01*
X0049834Y0118429D01*
X0049824Y0118268D01*
X0049810Y0118108D01*
X0049792Y0117948D01*
X0049771Y0117789D01*
X0049745Y0117630D01*
X0049715Y0117472D01*
X0049682Y0117315D01*
X0049644Y0117158D01*
X0049603Y0117003D01*
X0049558Y0116849D01*
X0049509Y0116696D01*
X0049456Y0116544D01*
X0049400Y0116393D01*
X0049339Y0116244D01*
X0049276Y0116096D01*
X0049208Y0115950D01*
X0049137Y0115806D01*
X0049063Y0115664D01*
X0048985Y0115523D01*
X0048903Y0115385D01*
X0048818Y0115248D01*
X0048730Y0115114D01*
X0048638Y0114982D01*
X0048543Y0114852D01*
X0048445Y0114724D01*
X0048344Y0114599D01*
X0048240Y0114477D01*
X0048133Y0114357D01*
X0048023Y0114240D01*
X0047910Y0114125D01*
X0047794Y0114014D01*
X0047675Y0113905D01*
X0047554Y0113800D01*
X0047430Y0113697D01*
X0047304Y0113597D01*
X0047176Y0113501D01*
X0047045Y0113408D01*
X0046911Y0113318D01*
X0046776Y0113231D01*
X0046638Y0113148D01*
X0046499Y0113068D01*
X0046357Y0112992D01*
X0046214Y0112919D01*
X0046069Y0112850D01*
X0045922Y0112784D01*
X0045774Y0112722D01*
X0045624Y0112664D01*
X0045473Y0112609D01*
X0045320Y0112558D01*
X0045166Y0112511D01*
X0045011Y0112468D01*
X0044855Y0112429D01*
X0044699Y0112393D01*
X0044541Y0112362D01*
X0044383Y0112334D01*
X0044224Y0112310D01*
X0044064Y0112290D01*
X0043904Y0112274D01*
X0043744Y0112262D01*
X0043583Y0112254D01*
X0043422Y0112250D01*
X0043262Y0112250D01*
X0043101Y0112254D01*
X0042940Y0112262D01*
X0042780Y0112274D01*
X0042620Y0112290D01*
X0042460Y0112310D01*
X0042301Y0112334D01*
X0042143Y0112362D01*
X0041985Y0112393D01*
X0041829Y0112429D01*
X0041673Y0112468D01*
X0041518Y0112511D01*
X0041364Y0112558D01*
X0041211Y0112609D01*
X0041060Y0112664D01*
X0040910Y0112722D01*
X0040762Y0112784D01*
X0040615Y0112850D01*
X0040470Y0112919D01*
X0040327Y0112992D01*
X0040185Y0113068D01*
X0040046Y0113148D01*
X0039908Y0113231D01*
X0039773Y0113318D01*
X0039639Y0113408D01*
X0039508Y0113501D01*
X0039380Y0113597D01*
X0039254Y0113697D01*
X0039130Y0113800D01*
X0039009Y0113905D01*
X0038890Y0114014D01*
X0038774Y0114125D01*
X0038661Y0114240D01*
X0038551Y0114357D01*
X0038444Y0114477D01*
X0038340Y0114599D01*
X0038239Y0114724D01*
X0038141Y0114852D01*
X0038046Y0114982D01*
X0037954Y0115114D01*
X0037866Y0115248D01*
X0037781Y0115385D01*
X0037699Y0115523D01*
X0037621Y0115664D01*
X0037547Y0115806D01*
X0037476Y0115950D01*
X0037408Y0116096D01*
X0037345Y0116244D01*
X0037284Y0116393D01*
X0037228Y0116544D01*
X0037175Y0116696D01*
X0037126Y0116849D01*
X0037081Y0117003D01*
X0037040Y0117158D01*
X0037002Y0117315D01*
X0036969Y0117472D01*
X0036939Y0117630D01*
X0036913Y0117789D01*
X0036892Y0117948D01*
X0036874Y0118108D01*
X0036860Y0118268D01*
X0036850Y0118429D01*
X0036844Y0118589D01*
X0036842Y0118750D01*
M02*
