%
M48
M72
T01C0.0150
T02C0.0400
T03C0.1300
%
T01
X5534Y4275
X5534Y4775
X6134Y6375
X5834Y7275
X4734Y8075
X4234Y7875
X6484Y9225
X7184Y9325
X6684Y10425
X7184Y10725
X9484Y10025
X9934Y8575
X9974Y8085
X10724Y8085
X10734Y7675
X12134Y7675
X10834Y6175
X9834Y6375
X9334Y5575
X8434Y7075
X8034Y6975
X7684Y7875
X14434Y7875
X14934Y8075
X16034Y7275
X16334Y6375
X15734Y4775
X15734Y4275
X18234Y6975
X18634Y7075
X17884Y7875
X16684Y9225
X17384Y9325
X16884Y10425
X17384Y10725
X19684Y10025
X20134Y8575
X20174Y8085
X20924Y8085
X20934Y7675
X22334Y7675
X21034Y6175
X20034Y6375
X19534Y5575
X24634Y7875
X25134Y8075
X26234Y7275
X26534Y6375
X25934Y4775
X25934Y4275
X28434Y6975
X28834Y7075
X28084Y7875
X26884Y9225
X27584Y9325
X27084Y10425
X27584Y10725
X29884Y10025
X30334Y8575
X30374Y8085
X31124Y8085
X31134Y7675
X32534Y7675
X31234Y6175
X30234Y6375
X29734Y5575
X25934Y14475
X25934Y14975
X26534Y16575
X26234Y17475
X25134Y18275
X24634Y18075
X22334Y17875
X20934Y17875
X20924Y18285
X20174Y18285
X20134Y18775
X18634Y17275
X18234Y17175
X17884Y18075
X17384Y19525
X16684Y19425
X16884Y20625
X17384Y20925
X19684Y20225
X16034Y17475
X16334Y16575
X15734Y14975
X15734Y14475
X12134Y17875
X10734Y17875
X10724Y18285
X9974Y18285
X9934Y18775
X8434Y17275
X8034Y17175
X7684Y18075
X7184Y19525
X6484Y19425
X6684Y20625
X7184Y20925
X9484Y20225
X5834Y17475
X6134Y16575
X5534Y14975
X5534Y14475
X4234Y18075
X4734Y18275
X9334Y15775
X9834Y16575
X10834Y16375
X14434Y18075
X14934Y18275
X19534Y15775
X20034Y16575
X21034Y16375
X26884Y19425
X27584Y19525
X27084Y20625
X27584Y20925
X29884Y20225
X30334Y18775
X30374Y18285
X31124Y18285
X31134Y17875
X32534Y17875
X31234Y16375
X30234Y16575
X29734Y15775
X28434Y17175
X28834Y17275
X28084Y18075
X25934Y24675
X25934Y25175
X26534Y26775
X26234Y27675
X25134Y28475
X24634Y28275
X22334Y28075
X20934Y28075
X20924Y28485
X20174Y28485
X20134Y28975
X19684Y30425
X17384Y29725
X16684Y29625
X16884Y30825
X17384Y31125
X17884Y28275
X18234Y27375
X18634Y27475
X20034Y26775
X19534Y25975
X21034Y26575
X16334Y26775
X16034Y27675
X14934Y28475
X14434Y28275
X12134Y28075
X10734Y28075
X10724Y28485
X9974Y28485
X9934Y28975
X9484Y30425
X7184Y29725
X6484Y29625
X6684Y30825
X7184Y31125
X7684Y28275
X8034Y27375
X8434Y27475
X9834Y26775
X9334Y25975
X10834Y26575
X6134Y26775
X5834Y27675
X4734Y28475
X4234Y28275
X5534Y25175
X5534Y24675
X15734Y24675
X15734Y25175
X26884Y29625
X27584Y29725
X27084Y30825
X27584Y31125
X29884Y30425
X30334Y28975
X30374Y28485
X31124Y28485
X31134Y28075
X32534Y28075
X31234Y26575
X30234Y26775
X29734Y25975
X28834Y27475
X28434Y27375
X28084Y28275
T02
X28234Y23775
X29234Y23775
X30234Y23775
X27234Y23775
X20034Y23775
X19034Y23775
X18034Y23775
X17034Y23775
X9834Y23775
X8834Y23775
X7834Y23775
X6834Y23775
X6834Y13575
X7834Y13575
X8834Y13575
X9834Y13575
X17034Y13575
X18034Y13575
X19034Y13575
X20034Y13575
X27234Y13575
X28234Y13575
X29234Y13575
X30234Y13575
X30234Y3375
X29234Y3375
X28234Y3375
X27234Y3375
X20034Y3375
X19034Y3375
X18034Y3375
X17034Y3375
X9834Y3375
X8834Y3375
X7834Y3375
X6834Y3375
T03
X4334Y11875
X12334Y11875
X14534Y11875
X22534Y11875
X24734Y11875
X32734Y11875
X32734Y22075
X24734Y22075
X22534Y22075
X14534Y22075
X12334Y22075
X4334Y22075
X4334Y32275
X12334Y32275
X14534Y32275
X22534Y32275
X24734Y32275
X32734Y32275
M30
