%
M48
M72
T01C0.0120
T02C0.0400
T03C0.1300
%
T01
X5534Y4275
X5534Y4775
X6134Y6375
X5834Y7275
X4734Y8075
X4234Y7875
X6484Y9225
X7184Y9325
X6684Y10425
X7184Y10725
X9484Y10025
X9934Y8575
X9974Y8085
X10724Y8085
X10734Y7675
X12134Y7675
X10834Y6175
X9834Y6375
X9334Y5575
X8434Y7075
X8034Y6975
X7684Y7875
X5534Y14475
X5534Y14975
X6134Y16575
X5834Y17475
X4734Y18275
X4234Y18075
X6484Y19425
X7184Y19525
X6684Y20625
X7184Y20925
X9484Y20225
X9934Y18775
X9974Y18285
X10724Y18285
X10734Y17875
X12134Y17875
X10834Y16375
X9834Y16575
X9334Y15775
X8434Y17275
X8034Y17175
X7684Y18075
X14434Y18075
X14934Y18275
X16034Y17475
X16334Y16575
X17884Y18075
X18234Y17175
X18634Y17275
X19534Y15775
X20034Y16575
X21034Y16375
X20934Y17875
X20924Y18285
X20174Y18285
X20134Y18775
X19684Y20225
X17384Y19525
X16684Y19425
X16884Y20625
X17384Y20925
X15734Y24675
X15734Y25175
X16334Y26775
X16034Y27675
X14934Y28475
X14434Y28275
X16684Y29625
X17384Y29725
X16884Y30825
X17384Y31125
X19684Y30425
X20134Y28975
X20174Y28485
X20924Y28485
X20934Y28075
X22334Y28075
X21034Y26575
X20034Y26775
X19534Y25975
X18634Y27475
X18234Y27375
X17884Y28275
X12134Y28075
X10734Y28075
X10724Y28485
X9974Y28485
X9934Y28975
X8434Y27475
X8034Y27375
X7684Y28275
X6484Y29625
X7184Y29725
X6684Y30825
X7184Y31125
X9484Y30425
X5834Y27675
X6134Y26775
X5534Y25175
X5534Y24675
X4234Y28275
X4734Y28475
X9334Y25975
X9834Y26775
X10834Y26575
X15734Y34875
X15734Y35375
X16334Y36975
X16034Y37875
X14934Y38675
X14434Y38475
X16684Y39825
X17384Y39925
X16884Y41025
X17384Y41325
X19684Y40625
X20134Y39175
X20174Y38685
X20924Y38685
X20934Y38275
X22334Y38275
X21034Y36775
X20034Y36975
X19534Y36175
X18634Y37675
X18234Y37575
X17884Y38475
X12134Y38275
X10734Y38275
X10724Y38685
X9974Y38685
X9934Y39175
X8434Y37675
X8034Y37575
X7684Y38475
X7184Y39925
X6484Y39825
X6684Y41025
X7184Y41325
X9484Y40625
X5834Y37875
X6134Y36975
X4734Y38675
X4234Y38475
X5534Y35375
X5534Y34875
X9334Y36175
X9834Y36975
X10834Y36775
X15734Y45075
X15734Y45575
X16334Y47175
X16034Y48075
X14934Y48875
X14434Y48675
X16684Y50025
X17384Y50125
X16884Y51225
X17384Y51525
X19684Y50825
X20134Y49375
X20174Y48885
X20924Y48885
X20934Y48475
X22334Y48475
X21034Y46975
X20034Y47175
X19534Y46375
X18234Y47775
X18634Y47875
X17884Y48675
X12134Y48475
X10734Y48475
X10724Y48885
X9974Y48885
X9934Y49375
X9484Y50825
X7184Y50125
X6484Y50025
X6684Y51225
X7184Y51525
X7684Y48675
X8034Y47775
X8434Y47875
X9834Y47175
X9334Y46375
X10834Y46975
X6134Y47175
X5834Y48075
X4734Y48875
X4234Y48675
X5534Y45575
X5534Y45075
X24634Y48675
X25134Y48875
X26234Y48075
X26534Y47175
X25934Y45575
X25934Y45075
X28434Y47775
X28834Y47875
X28084Y48675
X27584Y50125
X26884Y50025
X27084Y51225
X27584Y51525
X29884Y50825
X30334Y49375
X30374Y48885
X31124Y48885
X31134Y48475
X32534Y48475
X31234Y46975
X30234Y47175
X29734Y46375
X27584Y41325
X27084Y41025
X27584Y39925
X26884Y39825
X28084Y38475
X28434Y37575
X28834Y37675
X30234Y36975
X29734Y36175
X31234Y36775
X31134Y38275
X31124Y38685
X30374Y38685
X30334Y39175
X29884Y40625
X32534Y38275
X34834Y38475
X35334Y38675
X36434Y37875
X36734Y36975
X38634Y37575
X39034Y37675
X38284Y38475
X37784Y39925
X37084Y39825
X37284Y41025
X37784Y41325
X40084Y40625
X40534Y39175
X40574Y38685
X41324Y38685
X41334Y38275
X42734Y38275
X41434Y36775
X40434Y36975
X39934Y36175
X36134Y35375
X36134Y34875
X37784Y31125
X37284Y30825
X37784Y29725
X37084Y29625
X38284Y28275
X38634Y27375
X39034Y27475
X40434Y26775
X39934Y25975
X41434Y26575
X41334Y28075
X41324Y28485
X40574Y28485
X40534Y28975
X40084Y30425
X42734Y28075
X45034Y28275
X45534Y28475
X46634Y27675
X46934Y26775
X46334Y25175
X46334Y24675
X48834Y27375
X49234Y27475
X48484Y28275
X47284Y29625
X47984Y29725
X47484Y30825
X47984Y31125
X50284Y30425
X50734Y28975
X50774Y28485
X51524Y28485
X51534Y28075
X50634Y26775
X50134Y25975
X51634Y26575
X52934Y28075
X46334Y34875
X46334Y35375
X46934Y36975
X46634Y37875
X45534Y38675
X45034Y38475
X47284Y39825
X47984Y39925
X47484Y41025
X47984Y41325
X50284Y40625
X50734Y39175
X50774Y38685
X51524Y38685
X51534Y38275
X50634Y36975
X50134Y36175
X51634Y36775
X52934Y38275
X49234Y37675
X48834Y37575
X48484Y38475
X46334Y45075
X46334Y45575
X46934Y47175
X46634Y48075
X45534Y48875
X45034Y48675
X42734Y48475
X41334Y48475
X41324Y48885
X40574Y48885
X40534Y49375
X40084Y50825
X38284Y48675
X39034Y47875
X38634Y47775
X39934Y46375
X40434Y47175
X41434Y46975
X37784Y50125
X37084Y50025
X37284Y51225
X37784Y51525
X35334Y48875
X34834Y48675
X36434Y48075
X36734Y47175
X36134Y45575
X36134Y45075
X26534Y36975
X26234Y37875
X25134Y38675
X24634Y38475
X25934Y35375
X25934Y34875
X27584Y31125
X27084Y30825
X27584Y29725
X26884Y29625
X28084Y28275
X28434Y27375
X28834Y27475
X30234Y26775
X29734Y25975
X31234Y26575
X31134Y28075
X31124Y28485
X30374Y28485
X30334Y28975
X29884Y30425
X32534Y28075
X34834Y28275
X35334Y28475
X36434Y27675
X36734Y26775
X36134Y25175
X36134Y24675
X37784Y20925
X37284Y20625
X37784Y19525
X37084Y19425
X38284Y18075
X38634Y17175
X39034Y17275
X40434Y16575
X39934Y15775
X41434Y16375
X41334Y17875
X41324Y18285
X40574Y18285
X40534Y18775
X40084Y20225
X42734Y17875
X45034Y18075
X45534Y18275
X46634Y17475
X46934Y16575
X46334Y14975
X46334Y14475
X48834Y17175
X49234Y17275
X48484Y18075
X47984Y19525
X47284Y19425
X47484Y20625
X47984Y20925
X50284Y20225
X50734Y18775
X50774Y18285
X51524Y18285
X51534Y17875
X51634Y16375
X50634Y16575
X50134Y15775
X52934Y17875
X47984Y10725
X47484Y10425
X47984Y9325
X47284Y9225
X48484Y7875
X48834Y6975
X49234Y7075
X50634Y6375
X50134Y5575
X51634Y6175
X51534Y7675
X51524Y8085
X50774Y8085
X50734Y8575
X50284Y10025
X52934Y7675
X46934Y6375
X46634Y7275
X45534Y8075
X45034Y7875
X42734Y7675
X41334Y7675
X41324Y8085
X40574Y8085
X40534Y8575
X40084Y10025
X38284Y7875
X38634Y6975
X39034Y7075
X40434Y6375
X39934Y5575
X41434Y6175
X37784Y9325
X37084Y9225
X37284Y10425
X37784Y10725
X35334Y8075
X34834Y7875
X36434Y7275
X36734Y6375
X36134Y4775
X36134Y4275
X32534Y7675
X31134Y7675
X31124Y8085
X30374Y8085
X30334Y8575
X29884Y10025
X28084Y7875
X28434Y6975
X28834Y7075
X30234Y6375
X29734Y5575
X31234Y6175
X27584Y9325
X26884Y9225
X27084Y10425
X27584Y10725
X25134Y8075
X24634Y7875
X26234Y7275
X26534Y6375
X25934Y4775
X25934Y4275
X22334Y7675
X20934Y7675
X20924Y8085
X20174Y8085
X20134Y8575
X19684Y10025
X17884Y7875
X18234Y6975
X18634Y7075
X19534Y5575
X20034Y6375
X21034Y6175
X17384Y9325
X16684Y9225
X16884Y10425
X17384Y10725
X14934Y8075
X14434Y7875
X16034Y7275
X16334Y6375
X15734Y4775
X15734Y4275
X15734Y14475
X15734Y14975
X22334Y17875
X24634Y18075
X25134Y18275
X26234Y17475
X26534Y16575
X28084Y18075
X28434Y17175
X28834Y17275
X30234Y16575
X29734Y15775
X31234Y16375
X31134Y17875
X31124Y18285
X30374Y18285
X30334Y18775
X29884Y20225
X27584Y19525
X26884Y19425
X27084Y20625
X27584Y20925
X25934Y24675
X25934Y25175
X26534Y26775
X26234Y27675
X25134Y28475
X24634Y28275
X35334Y18275
X34834Y18075
X36434Y17475
X36734Y16575
X36134Y14975
X36134Y14475
X32534Y17875
X25934Y14975
X25934Y14475
X46334Y4775
X46334Y4275
X50134Y46375
X50634Y47175
X51634Y46975
X51534Y48475
X51524Y48885
X50774Y48885
X50734Y49375
X50284Y50825
X48484Y48675
X49234Y47875
X48834Y47775
X47984Y50125
X47284Y50025
X47484Y51225
X47984Y51525
X52934Y48475
T02
X50634Y44175
X49634Y44175
X48634Y44175
X47634Y44175
X40434Y44175
X39434Y44175
X38434Y44175
X37434Y44175
X30234Y44175
X29234Y44175
X28234Y44175
X27234Y44175
X20034Y44175
X19034Y44175
X18034Y44175
X17034Y44175
X9834Y44175
X8834Y44175
X7834Y44175
X6834Y44175
X6834Y33975
X7834Y33975
X8834Y33975
X9834Y33975
X17034Y33975
X18034Y33975
X19034Y33975
X20034Y33975
X27234Y33975
X28234Y33975
X29234Y33975
X30234Y33975
X37434Y33975
X38434Y33975
X39434Y33975
X40434Y33975
X47634Y33975
X48634Y33975
X49634Y33975
X50634Y33975
X50634Y23775
X49634Y23775
X48634Y23775
X47634Y23775
X40434Y23775
X39434Y23775
X38434Y23775
X37434Y23775
X30234Y23775
X29234Y23775
X28234Y23775
X27234Y23775
X20034Y23775
X19034Y23775
X18034Y23775
X17034Y23775
X9834Y23775
X8834Y23775
X7834Y23775
X6834Y23775
X6834Y13575
X7834Y13575
X8834Y13575
X9834Y13575
X17034Y13575
X18034Y13575
X19034Y13575
X20034Y13575
X27234Y13575
X28234Y13575
X29234Y13575
X30234Y13575
X37434Y13575
X38434Y13575
X39434Y13575
X40434Y13575
X47634Y13575
X48634Y13575
X49634Y13575
X50634Y13575
X50634Y3375
X49634Y3375
X48634Y3375
X47634Y3375
X40434Y3375
X39434Y3375
X38434Y3375
X37434Y3375
X30234Y3375
X29234Y3375
X28234Y3375
X27234Y3375
X20034Y3375
X19034Y3375
X18034Y3375
X17034Y3375
X9834Y3375
X8834Y3375
X7834Y3375
X6834Y3375
T03
X4334Y11875
X12334Y11875
X14534Y11875
X22534Y11875
X24734Y11875
X32734Y11875
X34934Y11875
X42934Y11875
X45134Y11875
X53134Y11875
X53134Y22075
X45134Y22075
X42934Y22075
X34934Y22075
X32734Y22075
X24734Y22075
X22534Y22075
X14534Y22075
X12334Y22075
X4334Y22075
X4334Y32275
X12334Y32275
X14534Y32275
X22534Y32275
X24734Y32275
X32734Y32275
X34934Y32275
X42934Y32275
X45134Y32275
X53134Y32275
X53134Y42475
X45134Y42475
X42934Y42475
X34934Y42475
X32734Y42475
X24734Y42475
X22534Y42475
X14534Y42475
X12334Y42475
X4334Y42475
X4334Y52675
X12334Y52675
X14534Y52675
X22534Y52675
X24734Y52675
X32734Y52675
X34934Y52675
X42934Y52675
X45134Y52675
X53134Y52675
M30
