G75*
%MOIN*%
%OFA0B0*%
%FSLAX25Y25*%
%IPPOS*%
%LPD*%
%AMOC8*
5,1,8,0,0,1.08239X$1,22.5*
%
%ADD10R,0.07874X0.04724*%
%ADD11R,0.05315X0.02362*%
%ADD12R,0.04331X0.03937*%
%ADD13C,0.01181*%
%ADD14R,0.02165X0.01378*%
%ADD15R,0.01969X0.05512*%
D10*
X0038873Y0067726D03*
X0038873Y0089774D03*
X0038873Y0169726D03*
X0038873Y0191774D03*
X0038873Y0271726D03*
X0038873Y0293774D03*
X0127810Y0293774D03*
X0140873Y0293774D03*
X0140873Y0271726D03*
X0127810Y0271726D03*
X0127810Y0191774D03*
X0140873Y0191774D03*
X0140873Y0169726D03*
X0127810Y0169726D03*
X0127810Y0089774D03*
X0140873Y0089774D03*
X0140873Y0067726D03*
X0127810Y0067726D03*
X0229810Y0067726D03*
X0242873Y0067726D03*
X0242873Y0089774D03*
X0229810Y0089774D03*
X0229810Y0169726D03*
X0242873Y0169726D03*
X0242873Y0191774D03*
X0229810Y0191774D03*
X0229810Y0271726D03*
X0242873Y0271726D03*
X0242873Y0293774D03*
X0229810Y0293774D03*
X0331810Y0293774D03*
X0331810Y0271726D03*
X0331810Y0191774D03*
X0331810Y0169726D03*
X0331810Y0089774D03*
X0331810Y0067726D03*
D11*
X0317342Y0072844D03*
X0317342Y0076781D03*
X0317342Y0080719D03*
X0317342Y0084656D03*
X0257342Y0084656D03*
X0257342Y0080719D03*
X0257342Y0076781D03*
X0257342Y0072844D03*
X0215342Y0072844D03*
X0215342Y0076781D03*
X0215342Y0080719D03*
X0215342Y0084656D03*
X0155342Y0084656D03*
X0155342Y0080719D03*
X0155342Y0076781D03*
X0155342Y0072844D03*
X0113342Y0072844D03*
X0113342Y0076781D03*
X0113342Y0080719D03*
X0113342Y0084656D03*
X0053342Y0084656D03*
X0053342Y0080719D03*
X0053342Y0076781D03*
X0053342Y0072844D03*
X0053342Y0174844D03*
X0053342Y0178781D03*
X0053342Y0182719D03*
X0053342Y0186656D03*
X0113342Y0186656D03*
X0113342Y0182719D03*
X0113342Y0178781D03*
X0113342Y0174844D03*
X0155342Y0174844D03*
X0155342Y0178781D03*
X0155342Y0182719D03*
X0155342Y0186656D03*
X0215342Y0186656D03*
X0215342Y0182719D03*
X0215342Y0178781D03*
X0215342Y0174844D03*
X0257342Y0174844D03*
X0257342Y0178781D03*
X0257342Y0182719D03*
X0257342Y0186656D03*
X0317342Y0186656D03*
X0317342Y0182719D03*
X0317342Y0178781D03*
X0317342Y0174844D03*
X0317342Y0276844D03*
X0317342Y0280781D03*
X0317342Y0284719D03*
X0317342Y0288656D03*
X0257342Y0288656D03*
X0257342Y0284719D03*
X0257342Y0280781D03*
X0257342Y0276844D03*
X0215342Y0276844D03*
X0215342Y0280781D03*
X0215342Y0284719D03*
X0215342Y0288656D03*
X0155342Y0288656D03*
X0155342Y0284719D03*
X0155342Y0280781D03*
X0155342Y0276844D03*
X0113342Y0276844D03*
X0113342Y0280781D03*
X0113342Y0284719D03*
X0113342Y0288656D03*
X0053342Y0288656D03*
X0053342Y0284719D03*
X0053342Y0280781D03*
X0053342Y0276844D03*
D12*
X0042495Y0047250D03*
X0049188Y0047250D03*
X0080495Y0084750D03*
X0087188Y0084750D03*
X0087188Y0096750D03*
X0080495Y0096750D03*
X0080495Y0103750D03*
X0087188Y0103750D03*
X0049188Y0149250D03*
X0042495Y0149250D03*
X0080495Y0186750D03*
X0087188Y0186750D03*
X0087188Y0198750D03*
X0080495Y0198750D03*
X0080495Y0205750D03*
X0087188Y0205750D03*
X0049188Y0251250D03*
X0042495Y0251250D03*
X0080495Y0288750D03*
X0087188Y0288750D03*
X0087188Y0300750D03*
X0080495Y0300750D03*
X0080495Y0307750D03*
X0087188Y0307750D03*
X0144495Y0251250D03*
X0151188Y0251250D03*
X0182495Y0288750D03*
X0189188Y0288750D03*
X0189188Y0300750D03*
X0182495Y0300750D03*
X0182495Y0307750D03*
X0189188Y0307750D03*
X0246495Y0251250D03*
X0253188Y0251250D03*
X0284495Y0288750D03*
X0291188Y0288750D03*
X0291188Y0300750D03*
X0284495Y0300750D03*
X0284495Y0307750D03*
X0291188Y0307750D03*
X0291188Y0205750D03*
X0284495Y0205750D03*
X0284495Y0198750D03*
X0291188Y0198750D03*
X0291188Y0186750D03*
X0284495Y0186750D03*
X0253188Y0149250D03*
X0246495Y0149250D03*
X0284495Y0103750D03*
X0284495Y0096750D03*
X0291188Y0096750D03*
X0291188Y0103750D03*
X0291188Y0084750D03*
X0284495Y0084750D03*
X0253188Y0047250D03*
X0246495Y0047250D03*
X0189188Y0084750D03*
X0182495Y0084750D03*
X0182495Y0096750D03*
X0189188Y0096750D03*
X0189188Y0103750D03*
X0182495Y0103750D03*
X0151188Y0149250D03*
X0144495Y0149250D03*
X0182495Y0186750D03*
X0189188Y0186750D03*
X0189188Y0198750D03*
X0182495Y0198750D03*
X0182495Y0205750D03*
X0189188Y0205750D03*
X0151188Y0047250D03*
X0144495Y0047250D03*
D13*
X0143011Y0051372D02*
X0143011Y0054128D01*
X0145767Y0054128D01*
X0145767Y0051372D01*
X0143011Y0051372D01*
X0143011Y0052494D02*
X0145767Y0052494D01*
X0145767Y0053616D02*
X0143011Y0053616D01*
X0149917Y0054128D02*
X0149917Y0051372D01*
X0149917Y0054128D02*
X0152673Y0054128D01*
X0152673Y0051372D01*
X0149917Y0051372D01*
X0149917Y0052494D02*
X0152673Y0052494D01*
X0152673Y0053616D02*
X0149917Y0053616D01*
X0245011Y0054128D02*
X0245011Y0051372D01*
X0245011Y0054128D02*
X0247767Y0054128D01*
X0247767Y0051372D01*
X0245011Y0051372D01*
X0245011Y0052494D02*
X0247767Y0052494D01*
X0247767Y0053616D02*
X0245011Y0053616D01*
X0251917Y0054128D02*
X0251917Y0051372D01*
X0251917Y0054128D02*
X0254673Y0054128D01*
X0254673Y0051372D01*
X0251917Y0051372D01*
X0251917Y0052494D02*
X0254673Y0052494D01*
X0254673Y0053616D02*
X0251917Y0053616D01*
X0251917Y0153372D02*
X0251917Y0156128D01*
X0254673Y0156128D01*
X0254673Y0153372D01*
X0251917Y0153372D01*
X0251917Y0154494D02*
X0254673Y0154494D01*
X0254673Y0155616D02*
X0251917Y0155616D01*
X0245011Y0156128D02*
X0245011Y0153372D01*
X0245011Y0156128D02*
X0247767Y0156128D01*
X0247767Y0153372D01*
X0245011Y0153372D01*
X0245011Y0154494D02*
X0247767Y0154494D01*
X0247767Y0155616D02*
X0245011Y0155616D01*
X0149917Y0156128D02*
X0149917Y0153372D01*
X0149917Y0156128D02*
X0152673Y0156128D01*
X0152673Y0153372D01*
X0149917Y0153372D01*
X0149917Y0154494D02*
X0152673Y0154494D01*
X0152673Y0155616D02*
X0149917Y0155616D01*
X0143011Y0156128D02*
X0143011Y0153372D01*
X0143011Y0156128D02*
X0145767Y0156128D01*
X0145767Y0153372D01*
X0143011Y0153372D01*
X0143011Y0154494D02*
X0145767Y0154494D01*
X0145767Y0155616D02*
X0143011Y0155616D01*
X0047917Y0156128D02*
X0047917Y0153372D01*
X0047917Y0156128D02*
X0050673Y0156128D01*
X0050673Y0153372D01*
X0047917Y0153372D01*
X0047917Y0154494D02*
X0050673Y0154494D01*
X0050673Y0155616D02*
X0047917Y0155616D01*
X0041011Y0156128D02*
X0041011Y0153372D01*
X0041011Y0156128D02*
X0043767Y0156128D01*
X0043767Y0153372D01*
X0041011Y0153372D01*
X0041011Y0154494D02*
X0043767Y0154494D01*
X0043767Y0155616D02*
X0041011Y0155616D01*
X0041011Y0255372D02*
X0041011Y0258128D01*
X0043767Y0258128D01*
X0043767Y0255372D01*
X0041011Y0255372D01*
X0041011Y0256494D02*
X0043767Y0256494D01*
X0043767Y0257616D02*
X0041011Y0257616D01*
X0047917Y0258128D02*
X0047917Y0255372D01*
X0047917Y0258128D02*
X0050673Y0258128D01*
X0050673Y0255372D01*
X0047917Y0255372D01*
X0047917Y0256494D02*
X0050673Y0256494D01*
X0050673Y0257616D02*
X0047917Y0257616D01*
X0143011Y0258128D02*
X0143011Y0255372D01*
X0143011Y0258128D02*
X0145767Y0258128D01*
X0145767Y0255372D01*
X0143011Y0255372D01*
X0143011Y0256494D02*
X0145767Y0256494D01*
X0145767Y0257616D02*
X0143011Y0257616D01*
X0149917Y0258128D02*
X0149917Y0255372D01*
X0149917Y0258128D02*
X0152673Y0258128D01*
X0152673Y0255372D01*
X0149917Y0255372D01*
X0149917Y0256494D02*
X0152673Y0256494D01*
X0152673Y0257616D02*
X0149917Y0257616D01*
X0245011Y0258128D02*
X0245011Y0255372D01*
X0245011Y0258128D02*
X0247767Y0258128D01*
X0247767Y0255372D01*
X0245011Y0255372D01*
X0245011Y0256494D02*
X0247767Y0256494D01*
X0247767Y0257616D02*
X0245011Y0257616D01*
X0251917Y0258128D02*
X0251917Y0255372D01*
X0251917Y0258128D02*
X0254673Y0258128D01*
X0254673Y0255372D01*
X0251917Y0255372D01*
X0251917Y0256494D02*
X0254673Y0256494D01*
X0254673Y0257616D02*
X0251917Y0257616D01*
X0047917Y0054128D02*
X0047917Y0051372D01*
X0047917Y0054128D02*
X0050673Y0054128D01*
X0050673Y0051372D01*
X0047917Y0051372D01*
X0047917Y0052494D02*
X0050673Y0052494D01*
X0050673Y0053616D02*
X0047917Y0053616D01*
X0041011Y0054128D02*
X0041011Y0051372D01*
X0041011Y0054128D02*
X0043767Y0054128D01*
X0043767Y0051372D01*
X0041011Y0051372D01*
X0041011Y0052494D02*
X0043767Y0052494D01*
X0043767Y0053616D02*
X0041011Y0053616D01*
D14*
X0080200Y0074781D03*
X0080200Y0078719D03*
X0087484Y0078719D03*
X0087484Y0074781D03*
X0182200Y0074781D03*
X0182200Y0078719D03*
X0189484Y0078719D03*
X0189484Y0074781D03*
X0284200Y0074781D03*
X0284200Y0078719D03*
X0291484Y0078719D03*
X0291484Y0074781D03*
X0291484Y0176781D03*
X0291484Y0180719D03*
X0284200Y0180719D03*
X0284200Y0176781D03*
X0189484Y0176781D03*
X0189484Y0180719D03*
X0182200Y0180719D03*
X0182200Y0176781D03*
X0087484Y0176781D03*
X0087484Y0180719D03*
X0080200Y0180719D03*
X0080200Y0176781D03*
X0080200Y0278781D03*
X0080200Y0282719D03*
X0087484Y0282719D03*
X0087484Y0278781D03*
X0182200Y0278781D03*
X0182200Y0282719D03*
X0189484Y0282719D03*
X0189484Y0278781D03*
X0284200Y0278781D03*
X0284200Y0282719D03*
X0291484Y0282719D03*
X0291484Y0278781D03*
D15*
X0287842Y0280750D03*
X0185842Y0280750D03*
X0083842Y0280750D03*
X0083842Y0178750D03*
X0185842Y0178750D03*
X0287842Y0178750D03*
X0287842Y0076750D03*
X0185842Y0076750D03*
X0083842Y0076750D03*
M02*
