G75*
%MOIN*%
%OFA0B0*%
%FSLAX25Y25*%
%IPPOS*%
%LPD*%
%AMOC8*
5,1,8,0,0,1.08239X$1,22.5*
%
%ADD10C,0.13800*%
%ADD11C,0.03300*%
%ADD12R,0.08674X0.05524*%
%ADD13R,0.06115X0.03162*%
%ADD14C,0.08200*%
%ADD15R,0.05131X0.04737*%
%ADD16C,0.01990*%
%ADD17R,0.02965X0.02178*%
%ADD18R,0.03556X0.07099*%
%ADD19C,0.04737*%
%ADD20C,0.05000*%
%ADD21C,0.06706*%
D10*
X0043342Y0118750D03*
X0123342Y0118750D03*
X0145342Y0118750D03*
X0225342Y0118750D03*
X0247342Y0118750D03*
X0327342Y0118750D03*
X0349342Y0118750D03*
X0429342Y0118750D03*
X0451342Y0118750D03*
X0531342Y0118750D03*
X0531342Y0220750D03*
X0451342Y0220750D03*
X0429342Y0220750D03*
X0349342Y0220750D03*
X0327342Y0220750D03*
X0247342Y0220750D03*
X0225342Y0220750D03*
X0145342Y0220750D03*
X0123342Y0220750D03*
X0043342Y0220750D03*
X0043342Y0322750D03*
X0123342Y0322750D03*
X0145342Y0322750D03*
X0225342Y0322750D03*
X0247342Y0322750D03*
X0327342Y0322750D03*
X0349342Y0322750D03*
X0429342Y0322750D03*
X0451342Y0322750D03*
X0531342Y0322750D03*
X0531342Y0424750D03*
X0451342Y0424750D03*
X0429342Y0424750D03*
X0349342Y0424750D03*
X0327342Y0424750D03*
X0247342Y0424750D03*
X0225342Y0424750D03*
X0145342Y0424750D03*
X0123342Y0424750D03*
X0043342Y0424750D03*
X0043342Y0526750D03*
X0123342Y0526750D03*
X0145342Y0526750D03*
X0225342Y0526750D03*
X0247342Y0526750D03*
X0327342Y0526750D03*
X0349342Y0526750D03*
X0429342Y0526750D03*
X0451342Y0526750D03*
X0531342Y0526750D03*
D11*
X0444342Y0533750D03*
X0342342Y0533750D03*
X0333842Y0440250D03*
X0342342Y0431750D03*
X0435842Y0440250D03*
X0444342Y0431750D03*
X0537842Y0440250D03*
X0537842Y0338250D03*
X0444342Y0329750D03*
X0435842Y0338250D03*
X0342342Y0329750D03*
X0333842Y0338250D03*
X0240342Y0329750D03*
X0231842Y0338250D03*
X0138342Y0329750D03*
X0129842Y0338250D03*
X0036342Y0329750D03*
X0129842Y0236250D03*
X0138342Y0227750D03*
X0231842Y0236250D03*
X0240342Y0227750D03*
X0333842Y0236250D03*
X0342342Y0227750D03*
X0435842Y0236250D03*
X0444342Y0227750D03*
X0537842Y0236250D03*
X0537842Y0134250D03*
X0444342Y0125750D03*
X0435842Y0134250D03*
X0342342Y0125750D03*
X0333842Y0134250D03*
X0240342Y0125750D03*
X0231842Y0134250D03*
X0138342Y0125750D03*
X0129842Y0134250D03*
X0036342Y0125750D03*
X0129842Y0032250D03*
X0231842Y0032250D03*
X0333842Y0032250D03*
X0435842Y0032250D03*
X0537842Y0032250D03*
X0240342Y0431750D03*
X0231842Y0440250D03*
X0138342Y0431750D03*
X0129842Y0440250D03*
X0036342Y0431750D03*
X0036342Y0533750D03*
X0138342Y0533750D03*
X0240342Y0533750D03*
X0036342Y0227750D03*
D12*
X0038873Y0191774D03*
X0038873Y0169726D03*
X0127810Y0169726D03*
X0140873Y0169726D03*
X0140873Y0191774D03*
X0127810Y0191774D03*
X0127810Y0271726D03*
X0140873Y0271726D03*
X0140873Y0293774D03*
X0127810Y0293774D03*
X0127810Y0373726D03*
X0140873Y0373726D03*
X0140873Y0395774D03*
X0127810Y0395774D03*
X0127810Y0475726D03*
X0140873Y0475726D03*
X0140873Y0497774D03*
X0127810Y0497774D03*
X0038873Y0497774D03*
X0038873Y0475726D03*
X0038873Y0395774D03*
X0038873Y0373726D03*
X0038873Y0293774D03*
X0038873Y0271726D03*
X0229810Y0271726D03*
X0242873Y0271726D03*
X0242873Y0293774D03*
X0229810Y0293774D03*
X0229810Y0373726D03*
X0242873Y0373726D03*
X0242873Y0395774D03*
X0229810Y0395774D03*
X0229810Y0475726D03*
X0242873Y0475726D03*
X0242873Y0497774D03*
X0229810Y0497774D03*
X0331810Y0497774D03*
X0344873Y0497774D03*
X0344873Y0475726D03*
X0331810Y0475726D03*
X0331810Y0395774D03*
X0344873Y0395774D03*
X0344873Y0373726D03*
X0331810Y0373726D03*
X0331810Y0293774D03*
X0344873Y0293774D03*
X0344873Y0271726D03*
X0331810Y0271726D03*
X0331810Y0191774D03*
X0344873Y0191774D03*
X0344873Y0169726D03*
X0331810Y0169726D03*
X0331810Y0089774D03*
X0344873Y0089774D03*
X0344873Y0067726D03*
X0331810Y0067726D03*
X0242873Y0067726D03*
X0229810Y0067726D03*
X0229810Y0089774D03*
X0242873Y0089774D03*
X0242873Y0169726D03*
X0229810Y0169726D03*
X0229810Y0191774D03*
X0242873Y0191774D03*
X0140873Y0089774D03*
X0127810Y0089774D03*
X0127810Y0067726D03*
X0140873Y0067726D03*
X0038873Y0067726D03*
X0038873Y0089774D03*
X0433810Y0089774D03*
X0446873Y0089774D03*
X0446873Y0067726D03*
X0433810Y0067726D03*
X0535810Y0067726D03*
X0535810Y0089774D03*
X0535810Y0169726D03*
X0535810Y0191774D03*
X0535810Y0271726D03*
X0535810Y0293774D03*
X0535810Y0373726D03*
X0535810Y0395774D03*
X0535810Y0475726D03*
X0535810Y0497774D03*
X0446873Y0497774D03*
X0433810Y0497774D03*
X0433810Y0475726D03*
X0446873Y0475726D03*
X0446873Y0395774D03*
X0433810Y0395774D03*
X0433810Y0373726D03*
X0446873Y0373726D03*
X0446873Y0293774D03*
X0433810Y0293774D03*
X0433810Y0271726D03*
X0446873Y0271726D03*
X0446873Y0191774D03*
X0433810Y0191774D03*
X0433810Y0169726D03*
X0446873Y0169726D03*
D13*
X0461342Y0174844D03*
X0461342Y0178781D03*
X0461342Y0182719D03*
X0461342Y0186656D03*
X0419342Y0186656D03*
X0419342Y0182719D03*
X0419342Y0178781D03*
X0419342Y0174844D03*
X0359342Y0174844D03*
X0359342Y0178781D03*
X0359342Y0182719D03*
X0359342Y0186656D03*
X0317342Y0186656D03*
X0317342Y0182719D03*
X0317342Y0178781D03*
X0317342Y0174844D03*
X0257342Y0174844D03*
X0257342Y0178781D03*
X0257342Y0182719D03*
X0257342Y0186656D03*
X0215342Y0186656D03*
X0215342Y0182719D03*
X0215342Y0178781D03*
X0215342Y0174844D03*
X0155342Y0174844D03*
X0155342Y0178781D03*
X0155342Y0182719D03*
X0155342Y0186656D03*
X0113342Y0186656D03*
X0113342Y0182719D03*
X0113342Y0178781D03*
X0113342Y0174844D03*
X0053342Y0174844D03*
X0053342Y0178781D03*
X0053342Y0182719D03*
X0053342Y0186656D03*
X0053342Y0276844D03*
X0053342Y0280781D03*
X0053342Y0284719D03*
X0053342Y0288656D03*
X0113342Y0288656D03*
X0113342Y0284719D03*
X0113342Y0280781D03*
X0113342Y0276844D03*
X0155342Y0276844D03*
X0155342Y0280781D03*
X0155342Y0284719D03*
X0155342Y0288656D03*
X0215342Y0288656D03*
X0215342Y0284719D03*
X0215342Y0280781D03*
X0215342Y0276844D03*
X0257342Y0276844D03*
X0257342Y0280781D03*
X0257342Y0284719D03*
X0257342Y0288656D03*
X0317342Y0288656D03*
X0317342Y0284719D03*
X0317342Y0280781D03*
X0317342Y0276844D03*
X0359342Y0276844D03*
X0359342Y0280781D03*
X0359342Y0284719D03*
X0359342Y0288656D03*
X0419342Y0288656D03*
X0419342Y0284719D03*
X0419342Y0280781D03*
X0419342Y0276844D03*
X0461342Y0276844D03*
X0461342Y0280781D03*
X0461342Y0284719D03*
X0461342Y0288656D03*
X0521342Y0288656D03*
X0521342Y0284719D03*
X0521342Y0280781D03*
X0521342Y0276844D03*
X0521342Y0186656D03*
X0521342Y0182719D03*
X0521342Y0178781D03*
X0521342Y0174844D03*
X0521342Y0084656D03*
X0521342Y0080719D03*
X0521342Y0076781D03*
X0521342Y0072844D03*
X0461342Y0072844D03*
X0461342Y0076781D03*
X0461342Y0080719D03*
X0461342Y0084656D03*
X0419342Y0084656D03*
X0419342Y0080719D03*
X0419342Y0076781D03*
X0419342Y0072844D03*
X0359342Y0072844D03*
X0359342Y0076781D03*
X0359342Y0080719D03*
X0359342Y0084656D03*
X0317342Y0084656D03*
X0317342Y0080719D03*
X0317342Y0076781D03*
X0317342Y0072844D03*
X0257342Y0072844D03*
X0257342Y0076781D03*
X0257342Y0080719D03*
X0257342Y0084656D03*
X0215342Y0084656D03*
X0215342Y0080719D03*
X0215342Y0076781D03*
X0215342Y0072844D03*
X0155342Y0072844D03*
X0155342Y0076781D03*
X0155342Y0080719D03*
X0155342Y0084656D03*
X0113342Y0084656D03*
X0113342Y0080719D03*
X0113342Y0076781D03*
X0113342Y0072844D03*
X0053342Y0072844D03*
X0053342Y0076781D03*
X0053342Y0080719D03*
X0053342Y0084656D03*
X0053342Y0378844D03*
X0053342Y0382781D03*
X0053342Y0386719D03*
X0053342Y0390656D03*
X0113342Y0390656D03*
X0113342Y0386719D03*
X0113342Y0382781D03*
X0113342Y0378844D03*
X0155342Y0378844D03*
X0155342Y0382781D03*
X0155342Y0386719D03*
X0155342Y0390656D03*
X0215342Y0390656D03*
X0215342Y0386719D03*
X0215342Y0382781D03*
X0215342Y0378844D03*
X0257342Y0378844D03*
X0257342Y0382781D03*
X0257342Y0386719D03*
X0257342Y0390656D03*
X0317342Y0390656D03*
X0317342Y0386719D03*
X0317342Y0382781D03*
X0317342Y0378844D03*
X0359342Y0378844D03*
X0359342Y0382781D03*
X0359342Y0386719D03*
X0359342Y0390656D03*
X0419342Y0390656D03*
X0419342Y0386719D03*
X0419342Y0382781D03*
X0419342Y0378844D03*
X0461342Y0378844D03*
X0461342Y0382781D03*
X0461342Y0386719D03*
X0461342Y0390656D03*
X0521342Y0390656D03*
X0521342Y0386719D03*
X0521342Y0382781D03*
X0521342Y0378844D03*
X0521342Y0480844D03*
X0521342Y0484781D03*
X0521342Y0488719D03*
X0521342Y0492656D03*
X0461342Y0492656D03*
X0461342Y0488719D03*
X0461342Y0484781D03*
X0461342Y0480844D03*
X0419342Y0480844D03*
X0419342Y0484781D03*
X0419342Y0488719D03*
X0419342Y0492656D03*
X0359342Y0492656D03*
X0359342Y0488719D03*
X0359342Y0484781D03*
X0359342Y0480844D03*
X0317342Y0480844D03*
X0317342Y0484781D03*
X0317342Y0488719D03*
X0317342Y0492656D03*
X0257342Y0492656D03*
X0257342Y0488719D03*
X0257342Y0484781D03*
X0257342Y0480844D03*
X0215342Y0480844D03*
X0215342Y0484781D03*
X0215342Y0488719D03*
X0215342Y0492656D03*
X0155342Y0492656D03*
X0155342Y0488719D03*
X0155342Y0484781D03*
X0155342Y0480844D03*
X0113342Y0480844D03*
X0113342Y0484781D03*
X0113342Y0488719D03*
X0113342Y0492656D03*
X0053342Y0492656D03*
X0053342Y0488719D03*
X0053342Y0484781D03*
X0053342Y0480844D03*
D14*
X0068342Y0441750D03*
X0078342Y0441750D03*
X0088342Y0441750D03*
X0098342Y0441750D03*
X0170342Y0441750D03*
X0180342Y0441750D03*
X0190342Y0441750D03*
X0200342Y0441750D03*
X0272342Y0441750D03*
X0282342Y0441750D03*
X0292342Y0441750D03*
X0302342Y0441750D03*
X0374342Y0441750D03*
X0384342Y0441750D03*
X0394342Y0441750D03*
X0404342Y0441750D03*
X0476342Y0441750D03*
X0486342Y0441750D03*
X0496342Y0441750D03*
X0506342Y0441750D03*
X0506342Y0339750D03*
X0496342Y0339750D03*
X0486342Y0339750D03*
X0476342Y0339750D03*
X0404342Y0339750D03*
X0394342Y0339750D03*
X0384342Y0339750D03*
X0374342Y0339750D03*
X0302342Y0339750D03*
X0292342Y0339750D03*
X0282342Y0339750D03*
X0272342Y0339750D03*
X0200342Y0339750D03*
X0190342Y0339750D03*
X0180342Y0339750D03*
X0170342Y0339750D03*
X0098342Y0339750D03*
X0088342Y0339750D03*
X0078342Y0339750D03*
X0068342Y0339750D03*
X0068342Y0237750D03*
X0078342Y0237750D03*
X0088342Y0237750D03*
X0098342Y0237750D03*
X0170342Y0237750D03*
X0180342Y0237750D03*
X0190342Y0237750D03*
X0200342Y0237750D03*
X0272342Y0237750D03*
X0282342Y0237750D03*
X0292342Y0237750D03*
X0302342Y0237750D03*
X0374342Y0237750D03*
X0384342Y0237750D03*
X0394342Y0237750D03*
X0404342Y0237750D03*
X0476342Y0237750D03*
X0486342Y0237750D03*
X0496342Y0237750D03*
X0506342Y0237750D03*
X0506342Y0135750D03*
X0496342Y0135750D03*
X0486342Y0135750D03*
X0476342Y0135750D03*
X0404342Y0135750D03*
X0394342Y0135750D03*
X0384342Y0135750D03*
X0374342Y0135750D03*
X0302342Y0135750D03*
X0292342Y0135750D03*
X0282342Y0135750D03*
X0272342Y0135750D03*
X0200342Y0135750D03*
X0190342Y0135750D03*
X0180342Y0135750D03*
X0170342Y0135750D03*
X0098342Y0135750D03*
X0088342Y0135750D03*
X0078342Y0135750D03*
X0068342Y0135750D03*
X0068342Y0033750D03*
X0078342Y0033750D03*
X0088342Y0033750D03*
X0098342Y0033750D03*
X0170342Y0033750D03*
X0180342Y0033750D03*
X0190342Y0033750D03*
X0200342Y0033750D03*
X0272342Y0033750D03*
X0282342Y0033750D03*
X0292342Y0033750D03*
X0302342Y0033750D03*
X0374342Y0033750D03*
X0384342Y0033750D03*
X0394342Y0033750D03*
X0404342Y0033750D03*
X0476342Y0033750D03*
X0486342Y0033750D03*
X0496342Y0033750D03*
X0506342Y0033750D03*
D15*
X0042495Y0047250D03*
X0049188Y0047250D03*
X0080495Y0084750D03*
X0087188Y0084750D03*
X0087188Y0096750D03*
X0080495Y0096750D03*
X0080495Y0103750D03*
X0087188Y0103750D03*
X0049188Y0149250D03*
X0042495Y0149250D03*
X0080495Y0186750D03*
X0087188Y0186750D03*
X0087188Y0198750D03*
X0080495Y0198750D03*
X0080495Y0205750D03*
X0087188Y0205750D03*
X0049188Y0251250D03*
X0042495Y0251250D03*
X0080495Y0288750D03*
X0087188Y0288750D03*
X0087188Y0300750D03*
X0080495Y0300750D03*
X0080495Y0307750D03*
X0087188Y0307750D03*
X0049188Y0353250D03*
X0042495Y0353250D03*
X0080495Y0390750D03*
X0087188Y0390750D03*
X0087188Y0402750D03*
X0080495Y0402750D03*
X0080495Y0409750D03*
X0087188Y0409750D03*
X0049188Y0455250D03*
X0042495Y0455250D03*
X0080495Y0492750D03*
X0087188Y0492750D03*
X0087188Y0504750D03*
X0080495Y0504750D03*
X0080495Y0511750D03*
X0087188Y0511750D03*
X0144495Y0455250D03*
X0151188Y0455250D03*
X0182495Y0492750D03*
X0189188Y0492750D03*
X0189188Y0504750D03*
X0182495Y0504750D03*
X0182495Y0511750D03*
X0189188Y0511750D03*
X0246495Y0455250D03*
X0253188Y0455250D03*
X0284495Y0492750D03*
X0291188Y0492750D03*
X0291188Y0504750D03*
X0284495Y0504750D03*
X0284495Y0511750D03*
X0291188Y0511750D03*
X0348495Y0455250D03*
X0355188Y0455250D03*
X0386495Y0492750D03*
X0393188Y0492750D03*
X0393188Y0504750D03*
X0393188Y0511750D03*
X0386495Y0511750D03*
X0386495Y0504750D03*
X0450495Y0455250D03*
X0457188Y0455250D03*
X0488495Y0492750D03*
X0495188Y0492750D03*
X0495188Y0504750D03*
X0488495Y0504750D03*
X0488495Y0511750D03*
X0495188Y0511750D03*
X0495188Y0409750D03*
X0488495Y0409750D03*
X0488495Y0402750D03*
X0495188Y0402750D03*
X0495188Y0390750D03*
X0488495Y0390750D03*
X0457188Y0353250D03*
X0450495Y0353250D03*
X0488495Y0307750D03*
X0495188Y0307750D03*
X0495188Y0300750D03*
X0488495Y0300750D03*
X0488495Y0288750D03*
X0495188Y0288750D03*
X0457188Y0251250D03*
X0450495Y0251250D03*
X0488495Y0205750D03*
X0495188Y0205750D03*
X0495188Y0198750D03*
X0488495Y0198750D03*
X0488495Y0186750D03*
X0495188Y0186750D03*
X0457188Y0149250D03*
X0450495Y0149250D03*
X0488495Y0103750D03*
X0495188Y0103750D03*
X0495188Y0096750D03*
X0488495Y0096750D03*
X0488495Y0084750D03*
X0495188Y0084750D03*
X0457188Y0047250D03*
X0450495Y0047250D03*
X0393188Y0084750D03*
X0393188Y0096750D03*
X0386495Y0096750D03*
X0386495Y0084750D03*
X0386495Y0103750D03*
X0393188Y0103750D03*
X0355188Y0149250D03*
X0348495Y0149250D03*
X0386495Y0186750D03*
X0393188Y0186750D03*
X0393188Y0198750D03*
X0393188Y0205750D03*
X0386495Y0205750D03*
X0386495Y0198750D03*
X0355188Y0251250D03*
X0348495Y0251250D03*
X0386495Y0288750D03*
X0393188Y0288750D03*
X0393188Y0300750D03*
X0393188Y0307750D03*
X0386495Y0307750D03*
X0386495Y0300750D03*
X0355188Y0353250D03*
X0348495Y0353250D03*
X0386495Y0390750D03*
X0393188Y0390750D03*
X0393188Y0402750D03*
X0393188Y0409750D03*
X0386495Y0409750D03*
X0386495Y0402750D03*
X0291188Y0402750D03*
X0284495Y0402750D03*
X0284495Y0409750D03*
X0291188Y0409750D03*
X0291188Y0390750D03*
X0284495Y0390750D03*
X0253188Y0353250D03*
X0246495Y0353250D03*
X0284495Y0307750D03*
X0291188Y0307750D03*
X0291188Y0300750D03*
X0284495Y0300750D03*
X0284495Y0288750D03*
X0291188Y0288750D03*
X0253188Y0251250D03*
X0246495Y0251250D03*
X0284495Y0205750D03*
X0291188Y0205750D03*
X0291188Y0198750D03*
X0284495Y0198750D03*
X0284495Y0186750D03*
X0291188Y0186750D03*
X0253188Y0149250D03*
X0246495Y0149250D03*
X0284495Y0103750D03*
X0291188Y0103750D03*
X0291188Y0096750D03*
X0284495Y0096750D03*
X0284495Y0084750D03*
X0291188Y0084750D03*
X0253188Y0047250D03*
X0246495Y0047250D03*
X0189188Y0084750D03*
X0182495Y0084750D03*
X0182495Y0096750D03*
X0189188Y0096750D03*
X0189188Y0103750D03*
X0182495Y0103750D03*
X0151188Y0149250D03*
X0144495Y0149250D03*
X0182495Y0186750D03*
X0189188Y0186750D03*
X0189188Y0198750D03*
X0182495Y0198750D03*
X0182495Y0205750D03*
X0189188Y0205750D03*
X0151188Y0251250D03*
X0144495Y0251250D03*
X0182495Y0288750D03*
X0189188Y0288750D03*
X0189188Y0300750D03*
X0182495Y0300750D03*
X0182495Y0307750D03*
X0189188Y0307750D03*
X0151188Y0353250D03*
X0144495Y0353250D03*
X0182495Y0390750D03*
X0189188Y0390750D03*
X0189188Y0402750D03*
X0182495Y0402750D03*
X0182495Y0409750D03*
X0189188Y0409750D03*
X0151188Y0047250D03*
X0144495Y0047250D03*
X0348495Y0047250D03*
X0355188Y0047250D03*
D16*
X0353922Y0051377D02*
X0353922Y0054123D01*
X0356668Y0054123D01*
X0356668Y0051377D01*
X0353922Y0051377D01*
X0353922Y0053267D02*
X0356668Y0053267D01*
X0347016Y0054123D02*
X0347016Y0051377D01*
X0347016Y0054123D02*
X0349762Y0054123D01*
X0349762Y0051377D01*
X0347016Y0051377D01*
X0347016Y0053267D02*
X0349762Y0053267D01*
X0251922Y0054123D02*
X0251922Y0051377D01*
X0251922Y0054123D02*
X0254668Y0054123D01*
X0254668Y0051377D01*
X0251922Y0051377D01*
X0251922Y0053267D02*
X0254668Y0053267D01*
X0245016Y0054123D02*
X0245016Y0051377D01*
X0245016Y0054123D02*
X0247762Y0054123D01*
X0247762Y0051377D01*
X0245016Y0051377D01*
X0245016Y0053267D02*
X0247762Y0053267D01*
X0149922Y0054123D02*
X0149922Y0051377D01*
X0149922Y0054123D02*
X0152668Y0054123D01*
X0152668Y0051377D01*
X0149922Y0051377D01*
X0149922Y0053267D02*
X0152668Y0053267D01*
X0143016Y0054123D02*
X0143016Y0051377D01*
X0143016Y0054123D02*
X0145762Y0054123D01*
X0145762Y0051377D01*
X0143016Y0051377D01*
X0143016Y0053267D02*
X0145762Y0053267D01*
X0047922Y0054123D02*
X0047922Y0051377D01*
X0047922Y0054123D02*
X0050668Y0054123D01*
X0050668Y0051377D01*
X0047922Y0051377D01*
X0047922Y0053267D02*
X0050668Y0053267D01*
X0041016Y0054123D02*
X0041016Y0051377D01*
X0041016Y0054123D02*
X0043762Y0054123D01*
X0043762Y0051377D01*
X0041016Y0051377D01*
X0041016Y0053267D02*
X0043762Y0053267D01*
X0041016Y0153377D02*
X0041016Y0156123D01*
X0043762Y0156123D01*
X0043762Y0153377D01*
X0041016Y0153377D01*
X0041016Y0155267D02*
X0043762Y0155267D01*
X0047922Y0156123D02*
X0047922Y0153377D01*
X0047922Y0156123D02*
X0050668Y0156123D01*
X0050668Y0153377D01*
X0047922Y0153377D01*
X0047922Y0155267D02*
X0050668Y0155267D01*
X0143016Y0156123D02*
X0143016Y0153377D01*
X0143016Y0156123D02*
X0145762Y0156123D01*
X0145762Y0153377D01*
X0143016Y0153377D01*
X0143016Y0155267D02*
X0145762Y0155267D01*
X0149922Y0156123D02*
X0149922Y0153377D01*
X0149922Y0156123D02*
X0152668Y0156123D01*
X0152668Y0153377D01*
X0149922Y0153377D01*
X0149922Y0155267D02*
X0152668Y0155267D01*
X0245016Y0156123D02*
X0245016Y0153377D01*
X0245016Y0156123D02*
X0247762Y0156123D01*
X0247762Y0153377D01*
X0245016Y0153377D01*
X0245016Y0155267D02*
X0247762Y0155267D01*
X0251922Y0156123D02*
X0251922Y0153377D01*
X0251922Y0156123D02*
X0254668Y0156123D01*
X0254668Y0153377D01*
X0251922Y0153377D01*
X0251922Y0155267D02*
X0254668Y0155267D01*
X0347016Y0156123D02*
X0347016Y0153377D01*
X0347016Y0156123D02*
X0349762Y0156123D01*
X0349762Y0153377D01*
X0347016Y0153377D01*
X0347016Y0155267D02*
X0349762Y0155267D01*
X0353922Y0156123D02*
X0353922Y0153377D01*
X0353922Y0156123D02*
X0356668Y0156123D01*
X0356668Y0153377D01*
X0353922Y0153377D01*
X0353922Y0155267D02*
X0356668Y0155267D01*
X0449016Y0156123D02*
X0449016Y0153377D01*
X0449016Y0156123D02*
X0451762Y0156123D01*
X0451762Y0153377D01*
X0449016Y0153377D01*
X0449016Y0155267D02*
X0451762Y0155267D01*
X0455922Y0156123D02*
X0455922Y0153377D01*
X0455922Y0156123D02*
X0458668Y0156123D01*
X0458668Y0153377D01*
X0455922Y0153377D01*
X0455922Y0155267D02*
X0458668Y0155267D01*
X0455922Y0255377D02*
X0455922Y0258123D01*
X0458668Y0258123D01*
X0458668Y0255377D01*
X0455922Y0255377D01*
X0455922Y0257267D02*
X0458668Y0257267D01*
X0449016Y0258123D02*
X0449016Y0255377D01*
X0449016Y0258123D02*
X0451762Y0258123D01*
X0451762Y0255377D01*
X0449016Y0255377D01*
X0449016Y0257267D02*
X0451762Y0257267D01*
X0353922Y0258123D02*
X0353922Y0255377D01*
X0353922Y0258123D02*
X0356668Y0258123D01*
X0356668Y0255377D01*
X0353922Y0255377D01*
X0353922Y0257267D02*
X0356668Y0257267D01*
X0347016Y0258123D02*
X0347016Y0255377D01*
X0347016Y0258123D02*
X0349762Y0258123D01*
X0349762Y0255377D01*
X0347016Y0255377D01*
X0347016Y0257267D02*
X0349762Y0257267D01*
X0251922Y0258123D02*
X0251922Y0255377D01*
X0251922Y0258123D02*
X0254668Y0258123D01*
X0254668Y0255377D01*
X0251922Y0255377D01*
X0251922Y0257267D02*
X0254668Y0257267D01*
X0245016Y0258123D02*
X0245016Y0255377D01*
X0245016Y0258123D02*
X0247762Y0258123D01*
X0247762Y0255377D01*
X0245016Y0255377D01*
X0245016Y0257267D02*
X0247762Y0257267D01*
X0149922Y0258123D02*
X0149922Y0255377D01*
X0149922Y0258123D02*
X0152668Y0258123D01*
X0152668Y0255377D01*
X0149922Y0255377D01*
X0149922Y0257267D02*
X0152668Y0257267D01*
X0143016Y0258123D02*
X0143016Y0255377D01*
X0143016Y0258123D02*
X0145762Y0258123D01*
X0145762Y0255377D01*
X0143016Y0255377D01*
X0143016Y0257267D02*
X0145762Y0257267D01*
X0047922Y0258123D02*
X0047922Y0255377D01*
X0047922Y0258123D02*
X0050668Y0258123D01*
X0050668Y0255377D01*
X0047922Y0255377D01*
X0047922Y0257267D02*
X0050668Y0257267D01*
X0041016Y0258123D02*
X0041016Y0255377D01*
X0041016Y0258123D02*
X0043762Y0258123D01*
X0043762Y0255377D01*
X0041016Y0255377D01*
X0041016Y0257267D02*
X0043762Y0257267D01*
X0041016Y0357377D02*
X0041016Y0360123D01*
X0043762Y0360123D01*
X0043762Y0357377D01*
X0041016Y0357377D01*
X0041016Y0359267D02*
X0043762Y0359267D01*
X0047922Y0360123D02*
X0047922Y0357377D01*
X0047922Y0360123D02*
X0050668Y0360123D01*
X0050668Y0357377D01*
X0047922Y0357377D01*
X0047922Y0359267D02*
X0050668Y0359267D01*
X0143016Y0360123D02*
X0143016Y0357377D01*
X0143016Y0360123D02*
X0145762Y0360123D01*
X0145762Y0357377D01*
X0143016Y0357377D01*
X0143016Y0359267D02*
X0145762Y0359267D01*
X0149922Y0360123D02*
X0149922Y0357377D01*
X0149922Y0360123D02*
X0152668Y0360123D01*
X0152668Y0357377D01*
X0149922Y0357377D01*
X0149922Y0359267D02*
X0152668Y0359267D01*
X0245016Y0360123D02*
X0245016Y0357377D01*
X0245016Y0360123D02*
X0247762Y0360123D01*
X0247762Y0357377D01*
X0245016Y0357377D01*
X0245016Y0359267D02*
X0247762Y0359267D01*
X0251922Y0360123D02*
X0251922Y0357377D01*
X0251922Y0360123D02*
X0254668Y0360123D01*
X0254668Y0357377D01*
X0251922Y0357377D01*
X0251922Y0359267D02*
X0254668Y0359267D01*
X0347016Y0360123D02*
X0347016Y0357377D01*
X0347016Y0360123D02*
X0349762Y0360123D01*
X0349762Y0357377D01*
X0347016Y0357377D01*
X0347016Y0359267D02*
X0349762Y0359267D01*
X0353922Y0360123D02*
X0353922Y0357377D01*
X0353922Y0360123D02*
X0356668Y0360123D01*
X0356668Y0357377D01*
X0353922Y0357377D01*
X0353922Y0359267D02*
X0356668Y0359267D01*
X0449016Y0360123D02*
X0449016Y0357377D01*
X0449016Y0360123D02*
X0451762Y0360123D01*
X0451762Y0357377D01*
X0449016Y0357377D01*
X0449016Y0359267D02*
X0451762Y0359267D01*
X0455922Y0360123D02*
X0455922Y0357377D01*
X0455922Y0360123D02*
X0458668Y0360123D01*
X0458668Y0357377D01*
X0455922Y0357377D01*
X0455922Y0359267D02*
X0458668Y0359267D01*
X0455922Y0459377D02*
X0455922Y0462123D01*
X0458668Y0462123D01*
X0458668Y0459377D01*
X0455922Y0459377D01*
X0455922Y0461267D02*
X0458668Y0461267D01*
X0449016Y0462123D02*
X0449016Y0459377D01*
X0449016Y0462123D02*
X0451762Y0462123D01*
X0451762Y0459377D01*
X0449016Y0459377D01*
X0449016Y0461267D02*
X0451762Y0461267D01*
X0353922Y0462123D02*
X0353922Y0459377D01*
X0353922Y0462123D02*
X0356668Y0462123D01*
X0356668Y0459377D01*
X0353922Y0459377D01*
X0353922Y0461267D02*
X0356668Y0461267D01*
X0347016Y0462123D02*
X0347016Y0459377D01*
X0347016Y0462123D02*
X0349762Y0462123D01*
X0349762Y0459377D01*
X0347016Y0459377D01*
X0347016Y0461267D02*
X0349762Y0461267D01*
X0251922Y0462123D02*
X0251922Y0459377D01*
X0251922Y0462123D02*
X0254668Y0462123D01*
X0254668Y0459377D01*
X0251922Y0459377D01*
X0251922Y0461267D02*
X0254668Y0461267D01*
X0245016Y0462123D02*
X0245016Y0459377D01*
X0245016Y0462123D02*
X0247762Y0462123D01*
X0247762Y0459377D01*
X0245016Y0459377D01*
X0245016Y0461267D02*
X0247762Y0461267D01*
X0149922Y0462123D02*
X0149922Y0459377D01*
X0149922Y0462123D02*
X0152668Y0462123D01*
X0152668Y0459377D01*
X0149922Y0459377D01*
X0149922Y0461267D02*
X0152668Y0461267D01*
X0143016Y0462123D02*
X0143016Y0459377D01*
X0143016Y0462123D02*
X0145762Y0462123D01*
X0145762Y0459377D01*
X0143016Y0459377D01*
X0143016Y0461267D02*
X0145762Y0461267D01*
X0047922Y0462123D02*
X0047922Y0459377D01*
X0047922Y0462123D02*
X0050668Y0462123D01*
X0050668Y0459377D01*
X0047922Y0459377D01*
X0047922Y0461267D02*
X0050668Y0461267D01*
X0041016Y0462123D02*
X0041016Y0459377D01*
X0041016Y0462123D02*
X0043762Y0462123D01*
X0043762Y0459377D01*
X0041016Y0459377D01*
X0041016Y0461267D02*
X0043762Y0461267D01*
X0449016Y0054123D02*
X0449016Y0051377D01*
X0449016Y0054123D02*
X0451762Y0054123D01*
X0451762Y0051377D01*
X0449016Y0051377D01*
X0449016Y0053267D02*
X0451762Y0053267D01*
X0455922Y0054123D02*
X0455922Y0051377D01*
X0455922Y0054123D02*
X0458668Y0054123D01*
X0458668Y0051377D01*
X0455922Y0051377D01*
X0455922Y0053267D02*
X0458668Y0053267D01*
D17*
X0488200Y0074781D03*
X0488200Y0078719D03*
X0495484Y0078719D03*
X0495484Y0074781D03*
X0393484Y0074781D03*
X0393484Y0078719D03*
X0386200Y0078719D03*
X0386200Y0074781D03*
X0291484Y0074781D03*
X0291484Y0078719D03*
X0284200Y0078719D03*
X0284200Y0074781D03*
X0189484Y0074781D03*
X0189484Y0078719D03*
X0182200Y0078719D03*
X0182200Y0074781D03*
X0087484Y0074781D03*
X0087484Y0078719D03*
X0080200Y0078719D03*
X0080200Y0074781D03*
X0080200Y0176781D03*
X0080200Y0180719D03*
X0087484Y0180719D03*
X0087484Y0176781D03*
X0182200Y0176781D03*
X0182200Y0180719D03*
X0189484Y0180719D03*
X0189484Y0176781D03*
X0284200Y0176781D03*
X0284200Y0180719D03*
X0291484Y0180719D03*
X0291484Y0176781D03*
X0386200Y0176781D03*
X0386200Y0180719D03*
X0393484Y0180719D03*
X0393484Y0176781D03*
X0488200Y0176781D03*
X0488200Y0180719D03*
X0495484Y0180719D03*
X0495484Y0176781D03*
X0495484Y0278781D03*
X0495484Y0282719D03*
X0488200Y0282719D03*
X0488200Y0278781D03*
X0393484Y0278781D03*
X0393484Y0282719D03*
X0386200Y0282719D03*
X0386200Y0278781D03*
X0291484Y0278781D03*
X0291484Y0282719D03*
X0284200Y0282719D03*
X0284200Y0278781D03*
X0189484Y0278781D03*
X0189484Y0282719D03*
X0182200Y0282719D03*
X0182200Y0278781D03*
X0087484Y0278781D03*
X0087484Y0282719D03*
X0080200Y0282719D03*
X0080200Y0278781D03*
X0080200Y0380781D03*
X0080200Y0384719D03*
X0087484Y0384719D03*
X0087484Y0380781D03*
X0182200Y0380781D03*
X0182200Y0384719D03*
X0189484Y0384719D03*
X0189484Y0380781D03*
X0284200Y0380781D03*
X0284200Y0384719D03*
X0291484Y0384719D03*
X0291484Y0380781D03*
X0386200Y0380781D03*
X0386200Y0384719D03*
X0393484Y0384719D03*
X0393484Y0380781D03*
X0488200Y0380781D03*
X0488200Y0384719D03*
X0495484Y0384719D03*
X0495484Y0380781D03*
X0495484Y0482781D03*
X0495484Y0486719D03*
X0488200Y0486719D03*
X0488200Y0482781D03*
X0393484Y0482781D03*
X0393484Y0486719D03*
X0386200Y0486719D03*
X0386200Y0482781D03*
X0291484Y0482781D03*
X0291484Y0486719D03*
X0284200Y0486719D03*
X0284200Y0482781D03*
X0189484Y0482781D03*
X0189484Y0486719D03*
X0182200Y0486719D03*
X0182200Y0482781D03*
X0087484Y0482781D03*
X0087484Y0486719D03*
X0080200Y0486719D03*
X0080200Y0482781D03*
D18*
X0083842Y0484750D03*
X0185842Y0484750D03*
X0287842Y0484750D03*
X0389842Y0484750D03*
X0491842Y0484750D03*
X0491842Y0382750D03*
X0389842Y0382750D03*
X0287842Y0382750D03*
X0185842Y0382750D03*
X0083842Y0382750D03*
X0083842Y0280750D03*
X0185842Y0280750D03*
X0287842Y0280750D03*
X0389842Y0280750D03*
X0491842Y0280750D03*
X0491842Y0178750D03*
X0389842Y0178750D03*
X0287842Y0178750D03*
X0185842Y0178750D03*
X0083842Y0178750D03*
X0083842Y0076750D03*
X0185842Y0076750D03*
X0287842Y0076750D03*
X0389842Y0076750D03*
X0491842Y0076750D03*
D19*
X0514342Y0545000D03*
X0060342Y0545000D03*
D20*
X0056777Y0020500D02*
X0056779Y0020619D01*
X0056785Y0020738D01*
X0056795Y0020857D01*
X0056809Y0020975D01*
X0056827Y0021093D01*
X0056848Y0021210D01*
X0056874Y0021326D01*
X0056904Y0021442D01*
X0056937Y0021556D01*
X0056974Y0021669D01*
X0057015Y0021781D01*
X0057060Y0021892D01*
X0057108Y0022001D01*
X0057160Y0022108D01*
X0057216Y0022213D01*
X0057275Y0022317D01*
X0057337Y0022418D01*
X0057403Y0022518D01*
X0057472Y0022615D01*
X0057544Y0022709D01*
X0057620Y0022802D01*
X0057698Y0022891D01*
X0057779Y0022978D01*
X0057864Y0023063D01*
X0057951Y0023144D01*
X0058040Y0023222D01*
X0058133Y0023298D01*
X0058227Y0023370D01*
X0058324Y0023439D01*
X0058424Y0023505D01*
X0058525Y0023567D01*
X0058629Y0023626D01*
X0058734Y0023682D01*
X0058841Y0023734D01*
X0058950Y0023782D01*
X0059061Y0023827D01*
X0059173Y0023868D01*
X0059286Y0023905D01*
X0059400Y0023938D01*
X0059516Y0023968D01*
X0059632Y0023994D01*
X0059749Y0024015D01*
X0059867Y0024033D01*
X0059985Y0024047D01*
X0060104Y0024057D01*
X0060223Y0024063D01*
X0060342Y0024065D01*
X0060461Y0024063D01*
X0060580Y0024057D01*
X0060699Y0024047D01*
X0060817Y0024033D01*
X0060935Y0024015D01*
X0061052Y0023994D01*
X0061168Y0023968D01*
X0061284Y0023938D01*
X0061398Y0023905D01*
X0061511Y0023868D01*
X0061623Y0023827D01*
X0061734Y0023782D01*
X0061843Y0023734D01*
X0061950Y0023682D01*
X0062055Y0023626D01*
X0062159Y0023567D01*
X0062260Y0023505D01*
X0062360Y0023439D01*
X0062457Y0023370D01*
X0062551Y0023298D01*
X0062644Y0023222D01*
X0062733Y0023144D01*
X0062820Y0023063D01*
X0062905Y0022978D01*
X0062986Y0022891D01*
X0063064Y0022802D01*
X0063140Y0022709D01*
X0063212Y0022615D01*
X0063281Y0022518D01*
X0063347Y0022418D01*
X0063409Y0022317D01*
X0063468Y0022213D01*
X0063524Y0022108D01*
X0063576Y0022001D01*
X0063624Y0021892D01*
X0063669Y0021781D01*
X0063710Y0021669D01*
X0063747Y0021556D01*
X0063780Y0021442D01*
X0063810Y0021326D01*
X0063836Y0021210D01*
X0063857Y0021093D01*
X0063875Y0020975D01*
X0063889Y0020857D01*
X0063899Y0020738D01*
X0063905Y0020619D01*
X0063907Y0020500D01*
X0063905Y0020381D01*
X0063899Y0020262D01*
X0063889Y0020143D01*
X0063875Y0020025D01*
X0063857Y0019907D01*
X0063836Y0019790D01*
X0063810Y0019674D01*
X0063780Y0019558D01*
X0063747Y0019444D01*
X0063710Y0019331D01*
X0063669Y0019219D01*
X0063624Y0019108D01*
X0063576Y0018999D01*
X0063524Y0018892D01*
X0063468Y0018787D01*
X0063409Y0018683D01*
X0063347Y0018582D01*
X0063281Y0018482D01*
X0063212Y0018385D01*
X0063140Y0018291D01*
X0063064Y0018198D01*
X0062986Y0018109D01*
X0062905Y0018022D01*
X0062820Y0017937D01*
X0062733Y0017856D01*
X0062644Y0017778D01*
X0062551Y0017702D01*
X0062457Y0017630D01*
X0062360Y0017561D01*
X0062260Y0017495D01*
X0062159Y0017433D01*
X0062055Y0017374D01*
X0061950Y0017318D01*
X0061843Y0017266D01*
X0061734Y0017218D01*
X0061623Y0017173D01*
X0061511Y0017132D01*
X0061398Y0017095D01*
X0061284Y0017062D01*
X0061168Y0017032D01*
X0061052Y0017006D01*
X0060935Y0016985D01*
X0060817Y0016967D01*
X0060699Y0016953D01*
X0060580Y0016943D01*
X0060461Y0016937D01*
X0060342Y0016935D01*
X0060223Y0016937D01*
X0060104Y0016943D01*
X0059985Y0016953D01*
X0059867Y0016967D01*
X0059749Y0016985D01*
X0059632Y0017006D01*
X0059516Y0017032D01*
X0059400Y0017062D01*
X0059286Y0017095D01*
X0059173Y0017132D01*
X0059061Y0017173D01*
X0058950Y0017218D01*
X0058841Y0017266D01*
X0058734Y0017318D01*
X0058629Y0017374D01*
X0058525Y0017433D01*
X0058424Y0017495D01*
X0058324Y0017561D01*
X0058227Y0017630D01*
X0058133Y0017702D01*
X0058040Y0017778D01*
X0057951Y0017856D01*
X0057864Y0017937D01*
X0057779Y0018022D01*
X0057698Y0018109D01*
X0057620Y0018198D01*
X0057544Y0018291D01*
X0057472Y0018385D01*
X0057403Y0018482D01*
X0057337Y0018582D01*
X0057275Y0018683D01*
X0057216Y0018787D01*
X0057160Y0018892D01*
X0057108Y0018999D01*
X0057060Y0019108D01*
X0057015Y0019219D01*
X0056974Y0019331D01*
X0056937Y0019444D01*
X0056904Y0019558D01*
X0056874Y0019674D01*
X0056848Y0019790D01*
X0056827Y0019907D01*
X0056809Y0020025D01*
X0056795Y0020143D01*
X0056785Y0020262D01*
X0056779Y0020381D01*
X0056777Y0020500D01*
D21*
X0060342Y0020500D03*
M02*
